<svg width="150" height="150" viewBox="0 0 150 150" fill="none" xmlns="http://www.w3.org/2000/svg">
<path d="M110.407 50.166C110.842 41.6355 117.382 34.791 125.502 34.7715C133.774 34.749 140.742 41.9168 140.742 51.1658L140.721 52.1025C144.659 54.0705 146.617 59.1428 144.682 63.7395C145.358 64.2937 145.847 65.0428 146.082 65.8849C146.317 66.7269 146.286 67.6209 145.994 68.4449C145.702 69.2689 145.163 69.9829 144.451 70.4894C143.739 70.996 142.887 71.2705 142.013 71.2755C129.376 71.2335 117.558 67.5773 105.154 67.4415C105.043 67.4394 104.937 67.3936 104.859 67.3141C104.781 67.2346 104.737 67.1277 104.737 67.0163C104.737 66.9613 104.747 66.9067 104.768 66.8558C104.789 66.8048 104.82 66.7585 104.858 66.7195C104.897 66.6805 104.943 66.6496 104.994 66.6286C105.045 66.6076 105.099 66.5968 105.154 66.597C117.541 66.6818 129.837 70.1828 142.013 70.1415C142.417 70.1407 142.816 70.0598 143.189 69.9034C143.561 69.7469 143.898 69.5182 144.181 69.2303C144.508 68.9008 144.755 68.5021 144.906 68.0638C145.057 67.6254 145.108 67.1587 145.054 66.6983C144.999 66.2379 144.842 65.7955 144.594 65.4041C144.346 65.0126 144.012 64.6821 143.619 64.437C143.493 64.3598 143.399 64.2386 143.357 64.0967C143.314 63.9547 143.326 63.8022 143.389 63.6683C145.339 60.0023 143.891 54.7545 139.845 53.0438C139.726 52.9954 139.626 52.9106 139.559 52.8015C139.491 52.6925 139.46 52.5649 139.47 52.437L139.532 51.1658C139.532 42.7065 133.168 35.9828 125.502 35.961C118.323 35.9415 111.907 41.787 111.367 50.6033C111.362 50.7208 111.315 50.8326 111.235 50.9184C111.154 51.0042 111.046 51.0582 110.929 51.0705C105.379 51.687 102.814 58.6455 105.862 63.1785C105.916 63.2665 105.932 63.3718 105.909 63.472C105.886 63.5721 105.824 63.6593 105.738 63.7148C105.697 63.7432 105.65 63.7629 105.601 63.7727C105.551 63.7825 105.501 63.7822 105.452 63.7718C105.403 63.7614 105.356 63.7412 105.315 63.7123C105.274 63.6834 105.239 63.6465 105.213 63.6038C101.833 58.5938 104.486 51.2303 110.407 50.166Z" fill="#2A2928"/>
<path d="M101.378 79.233C101.357 76.7708 101.232 67.923 101.19 64.4625C101.189 64.0318 101.078 63.6086 100.866 63.2335C100.654 62.8585 100.35 62.5443 99.9811 62.3213L95.1653 59.3558C95.1653 59.3558 89.7241 56.6025 71.1653 56.4098C52.6313 56.2163 46.8773 59.5268 46.8773 59.5268C46.8773 59.5268 43.6253 61.3643 41.7278 62.4278C41.3351 62.655 41.0089 62.9814 40.782 63.3743C40.555 63.7672 40.4353 64.2128 40.4348 64.6665C40.4566 68.2125 40.5188 77.0063 40.5391 79.623C40.5437 79.9821 40.6242 80.3361 40.7751 80.662C40.9261 80.9878 41.1442 81.2781 41.4151 81.5138C47.8066 87.0368 74.1901 86.5103 82.6823 85.8578C82.6966 85.4355 82.7198 84.984 82.7371 84.4973L85.9816 84.39C86.0261 84.7746 86.1082 85.154 86.2268 85.5225C95.9206 84.417 99.4268 82.3155 100.686 81.0158C100.914 80.7794 101.092 80.5 101.211 80.194C101.33 79.8879 101.387 79.5612 101.378 79.233ZM47.8936 61.8623C48.0923 61.1933 48.2686 62.5245 57.2333 63.4778C66.4351 64.3443 75.6979 64.3423 84.8993 63.4718C93.7988 62.544 94.0201 61.2563 94.2181 61.8623C94.2324 61.8915 94.2405 61.9233 94.2419 61.9558C94.2433 61.9883 94.238 62.0207 94.2263 62.0511C94.2146 62.0814 94.1968 62.109 94.174 62.1321C94.1511 62.1553 94.1238 62.1735 94.0936 62.1855C91.1481 63.2093 88.0883 63.8687 84.9826 64.149C75.733 65.168 66.3996 65.168 57.1501 64.149C54.0459 63.8785 50.9864 63.2294 48.0398 62.2163C48.0058 62.2042 47.9747 62.185 47.9486 62.1601C47.9224 62.1352 47.9018 62.1051 47.888 62.0718C47.8742 62.0384 47.8676 62.0025 47.8686 61.9664C47.8695 61.9303 47.878 61.8949 47.8936 61.8623ZM99.7651 65.3873C95.6401 67.9493 86.3198 69.105 81.4808 69.5123C75.1075 70.0097 68.7069 70.0538 62.3273 69.6443C56.9626 69.291 47.4338 68.2463 42.6601 65.7525C42.5987 65.7173 42.5536 65.6595 42.5341 65.5915C42.5146 65.5235 42.5223 65.4506 42.5557 65.3882C42.589 65.3258 42.6453 65.2789 42.7127 65.2573C42.7801 65.2357 42.8532 65.2411 42.9166 65.2725C47.6213 67.656 57.0803 68.5725 62.3528 68.8943C68.6991 69.2649 75.0629 69.2165 81.4028 68.7495C98.8778 67.407 99.3278 64.284 99.8401 65.049C99.8726 65.1047 99.8829 65.1706 99.869 65.2336C99.8551 65.2965 99.818 65.3519 99.7651 65.3888V65.3873Z" fill="#115711"/>
<path d="M101.378 134.723C101.336 131.898 101.253 124.574 101.211 121.03C101.201 120.421 101.037 119.825 100.735 119.297C100.432 118.769 100.001 118.327 99.4808 118.011C94.7018 115.06 95.2298 115.326 94.3313 115.028C83.2365 118.054 58.3635 117.871 47.6528 115.171C47.0528 115.403 47.3588 115.234 42.2738 118.117C41.7143 118.432 41.2491 118.891 40.9264 119.446C40.6037 120 40.4353 120.632 40.4385 121.273C40.4603 124.887 40.5225 132.142 40.5428 135.082C40.5435 135.672 40.6905 136.253 40.9708 136.772C41.251 137.292 41.6557 137.734 42.1485 138.058C44.859 139.798 52.0305 142.249 71.0858 142.249C90.3698 142.249 97.3958 139.533 99.9398 137.648C100.393 137.309 100.76 136.867 101.01 136.358C101.26 135.85 101.386 135.29 101.378 134.723ZM47.8935 117.854C48.0923 117.185 48.2685 118.517 57.2333 119.47C66.435 120.337 75.6979 120.335 84.8993 119.464C93.7988 118.537 94.02 117.249 94.218 117.854C94.2324 117.883 94.2406 117.915 94.2421 117.948C94.2436 117.98 94.2383 118.013 94.2266 118.043C94.2149 118.073 94.1971 118.101 94.1742 118.124C94.1512 118.147 94.1238 118.165 94.0935 118.177C91.1481 119.202 88.0883 119.861 84.9825 120.142C75.733 121.16 66.3996 121.16 57.15 120.142C54.0459 119.871 50.9865 119.222 48.0398 118.209C48.0057 118.197 47.9747 118.178 47.9485 118.153C47.9223 118.128 47.9017 118.097 47.8879 118.064C47.8742 118.031 47.8675 117.995 47.8685 117.959C47.8695 117.922 47.878 117.887 47.8935 117.854ZM99.765 121.379C95.646 123.936 86.3543 125.094 81.4808 125.504C75.1074 126.002 68.7068 126.046 62.3273 125.636C56.9678 125.284 47.4338 124.238 42.66 121.745C42.601 121.709 42.5581 121.651 42.54 121.584C42.5219 121.517 42.53 121.446 42.5627 121.384C42.5954 121.323 42.6501 121.277 42.7159 121.254C42.7816 121.232 42.8533 121.236 42.9165 121.264C47.6205 123.647 57.0773 124.564 62.3528 124.886C68.699 125.257 75.0629 125.209 81.4028 124.741C98.8778 123.4 99.3278 120.276 99.84 121.041C99.8723 121.097 99.8825 121.162 99.8686 121.225C99.8547 121.288 99.8177 121.343 99.765 121.38V121.379Z" fill="#115711"/>
<path d="M15.8596 121.168C16.4573 119.12 17.6984 117.319 19.3993 116.031C21.1001 114.743 23.1703 114.037 25.3036 114.017C27.7482 114.072 30.0881 115.02 31.8818 116.682C33.6755 118.344 34.7989 120.605 35.0401 123.038C36.3338 123.938 37.2852 125.248 37.7395 126.757C38.1938 128.266 38.1242 129.884 37.5421 131.348L37.8128 131.338C37.9245 131.332 38.0338 131.371 38.1168 131.446C38.1997 131.521 38.2494 131.626 38.255 131.738C38.2605 131.85 38.2215 131.959 38.1465 132.042C38.0714 132.125 37.9665 132.174 37.8548 132.18L36.8956 132.229C36.8194 132.237 36.7427 132.223 36.6735 132.19C36.6044 132.157 36.5454 132.106 36.5027 132.043C36.4601 131.979 36.4353 131.905 36.4311 131.829C36.4268 131.753 36.4432 131.676 36.4786 131.608C37.1593 130.261 37.3165 128.709 36.92 127.252C36.5234 125.796 35.6012 124.538 34.3313 123.721C34.2689 123.684 34.217 123.631 34.1805 123.568C34.1441 123.505 34.1242 123.434 34.1228 123.361C33.3496 116.236 25.3981 112.573 19.9043 117.098C18.3937 118.368 17.3273 120.087 16.8601 122.004C16.8406 122.08 16.8064 122.152 16.7592 122.215C16.712 122.278 16.6528 122.332 16.585 122.372C16.5173 122.412 16.4422 122.439 16.3642 122.45C16.2862 122.461 16.2067 122.457 16.1303 122.437C10.6276 121.137 6.35258 127.478 9.35483 132.542C9.41108 132.632 9.44305 132.734 9.44757 132.84C9.4521 132.945 9.42903 133.05 9.38065 133.144C9.33226 133.238 9.26023 133.318 9.17165 133.375C9.08308 133.433 8.98103 133.466 8.87558 133.472L7.31183 133.533C6.6812 133.558 6.08428 133.824 5.64458 134.277C5.31269 134.598 5.08536 135.012 4.99233 135.464C4.8993 135.916 4.94488 136.386 5.12313 136.812C5.30137 137.238 5.60398 137.6 5.9914 137.851C6.37881 138.102 6.833 138.231 7.29458 138.22C13.1941 137.985 36.7951 136.906 38.4421 136.835C38.5453 136.833 38.6455 136.87 38.7228 136.938C38.8001 137.007 38.8487 137.102 38.8591 137.204C38.8599 137.307 38.8215 137.406 38.7518 137.481C38.6821 137.556 38.5863 137.602 38.4841 137.608C32.9341 137.888 9.06683 139.333 7.35908 139.412C6.65649 139.435 5.96325 139.246 5.36957 138.87C4.77588 138.493 4.30923 137.947 4.03032 137.302C3.75142 136.656 3.67318 135.942 3.80579 135.252C3.93839 134.561 4.2757 133.927 4.77383 133.431C5.42988 132.745 6.32688 132.342 7.27508 132.306L7.85933 132.286C5.41508 126.956 9.47108 120.274 15.8596 121.168Z" fill="#2A2928"/>
<path d="M104.881 102.329C105.071 102.036 105.294 101.768 105.548 101.528C106.455 100.673 107.588 100.383 108.487 101.259C109.233 102.207 109.651 103.373 109.676 104.58C112.064 104.406 113.005 106.931 112.24 109.184C112.803 109.457 117.272 111.753 118.953 112.603C119.077 112.67 119.173 112.778 119.227 112.908C119.28 113.038 119.286 113.183 119.245 113.318C119.2 113.452 119.107 113.566 118.985 113.639C118.862 113.711 118.718 113.737 118.578 113.712C114.537 112.934 109.706 111.912 105.131 111.837C105.019 111.834 104.913 111.788 104.835 111.708C104.757 111.628 104.714 111.521 104.714 111.41C104.713 111.355 104.724 111.3 104.745 111.25C104.766 111.199 104.796 111.153 104.835 111.114C104.874 111.075 104.92 111.045 104.971 111.024C105.021 111.003 105.076 110.992 105.131 110.993C108.395 111.019 111.651 111.316 114.866 111.881C110.918 109.904 111.023 110.031 110.885 109.692C110.836 109.536 110.851 109.367 110.927 109.223C111.752 107.527 111.266 105.302 109.238 105.802C109.151 105.823 109.061 105.823 108.975 105.802C108.889 105.781 108.809 105.74 108.742 105.682C108.674 105.624 108.622 105.551 108.589 105.469C108.555 105.387 108.542 105.298 108.55 105.209C108.648 104.225 108.449 102.669 107.778 101.969C107.075 101.236 105.938 102.245 105.402 103.094C105.342 103.189 105.248 103.257 105.14 103.285C105.031 103.312 104.916 103.298 104.818 103.244C104.578 103.104 104.311 103.015 104.034 102.985C103.757 102.956 103.477 102.985 103.213 103.071C103.119 103.104 103.015 103.1 102.924 103.059C102.833 103.018 102.761 102.943 102.724 102.851C102.686 102.758 102.686 102.655 102.722 102.562C102.759 102.469 102.83 102.394 102.921 102.352C103.55 102.109 104.246 102.101 104.881 102.329Z" fill="#2A2928"/>
<path d="M69.6158 12.8948C69.8858 12.5775 70.344 12.7913 70.4528 12.8655C70.5368 12.9333 70.6427 12.9682 70.7505 12.9638C70.8584 12.9593 70.961 12.9159 71.0393 12.8415C71.6033 12.2355 69.5393 10.7168 68.9498 12.525C68.799 12.9893 69.2655 13.3058 69.6158 12.8948Z" fill="#2A2928"/>
<path d="M73.1362 12.7193C73.3061 12.6047 73.5069 12.5446 73.7119 12.5469C73.9168 12.5492 74.1163 12.6137 74.2837 12.732C74.3521 12.8163 74.4497 12.8717 74.5571 12.8873C74.6645 12.9028 74.7739 12.8774 74.8634 12.816C75.5729 12.2603 73.5944 10.4955 72.5384 12.2258C72.473 12.305 72.4417 12.407 72.4515 12.5094C72.4612 12.6117 72.5113 12.7059 72.5905 12.7714C72.6698 12.8368 72.7718 12.8681 72.8741 12.8583C72.9765 12.8485 73.0707 12.7985 73.1362 12.7193Z" fill="#2A2928"/>
<path d="M73.7257 15.144C73.7987 15.1486 73.8722 15.1353 73.9418 15.1049C74.0115 15.0746 74.076 15.0278 74.1316 14.9671C74.1872 14.9065 74.2329 14.8333 74.2661 14.7516C74.2992 14.67 74.3192 14.5815 74.3248 14.4912C74.3304 14.4009 74.3216 14.3107 74.2988 14.2255C74.276 14.1404 74.2397 14.0621 74.1921 13.995C74.1444 13.928 74.0862 13.8736 74.0208 13.8348C73.9555 13.7961 73.8842 13.7738 73.8112 13.7693C73.7381 13.7648 73.6647 13.7781 73.595 13.8084C73.5254 13.8388 73.4609 13.8856 73.4053 13.9462C73.3496 14.0068 73.3039 14.0801 73.2708 14.1617C73.2377 14.2434 73.2177 14.3319 73.2121 14.4221C73.2065 14.5124 73.2153 14.6027 73.2381 14.6878C73.2609 14.773 73.2971 14.8513 73.3448 14.9183C73.3925 14.9853 73.4507 15.0398 73.516 15.0785C73.5814 15.1172 73.6526 15.1395 73.7257 15.144Z" fill="#2A2928"/>
<path d="M69.8939 15.1035C69.9679 15.1101 70.0425 15.0984 70.1135 15.0691C70.1845 15.0398 70.2504 14.9934 70.3074 14.9327C70.3643 14.872 70.4112 14.7982 70.4451 14.7156C70.4791 14.633 70.4996 14.5433 70.5053 14.4518C70.511 14.3603 70.5018 14.2687 70.4783 14.1826C70.4548 14.0964 70.4175 14.0174 70.3685 13.9501C70.3195 13.8828 70.2599 13.8286 70.1931 13.7908C70.1263 13.7529 70.0536 13.732 69.9794 13.7295C69.9055 13.7228 69.8308 13.7345 69.7598 13.7638C69.6888 13.7932 69.6229 13.8396 69.566 13.9003C69.509 13.961 69.4622 14.0348 69.4282 14.1174C69.3942 14.1999 69.3738 14.2896 69.3681 14.3812C69.3624 14.4727 69.3716 14.5642 69.395 14.6504C69.4185 14.7365 69.4559 14.8156 69.5048 14.8828C69.5538 14.9501 69.6135 15.0043 69.6803 15.0422C69.7471 15.0801 69.8197 15.1009 69.8939 15.1035Z" fill="#2A2928"/>
<path d="M65.9055 25.1393C58.695 26.6468 53.667 33.9285 51.4058 40.9088C50.7623 42.8955 50.2665 45.4928 50.976 47.4585C51.8918 49.9958 55.6628 51.2453 58.3178 50.9835C58.4155 50.976 58.5123 51.0061 58.5884 51.0679C58.6645 51.1296 58.7139 51.2182 58.7266 51.3153C58.7393 51.4125 58.7143 51.5108 58.6566 51.59C58.599 51.6692 58.5131 51.7232 58.4168 51.741C55.3695 52.098 51.2528 50.7263 50.1211 47.7773C49.2848 45.6023 49.7528 42.8445 50.4428 40.6043C52.8076 32.925 58.2353 25.2893 66.1733 23.8613C66.3117 23.8387 66.4536 23.8647 66.5749 23.9348C66.6963 24.005 66.7897 24.1149 66.8393 24.246C68.5515 28.7198 74.9273 30.1778 77.6858 23.8223C77.7335 23.7132 77.8128 23.6209 77.9135 23.5574C78.0141 23.4939 78.1316 23.4621 78.2505 23.466C85.464 23.6288 89.5095 30.0848 92.4675 36.6443C94.4925 41.1405 95.5425 46.0148 91.8675 49.2503C90.2246 50.6351 88.2217 51.5239 86.0925 51.813C85.9872 51.8243 85.8815 51.7948 85.7971 51.7308C85.7127 51.6667 85.656 51.5728 85.6386 51.4682C85.6212 51.3637 85.6443 51.2565 85.7033 51.1685C85.7623 51.0805 85.8527 51.0183 85.956 50.9948C87.9237 50.7243 89.7694 49.8847 91.2661 48.579C94.5833 45.6375 93.3698 41.079 91.5248 37.0755C88.8248 31.2053 85.0478 25.0065 78.618 24.6608C77.8246 26.4622 76.4232 27.9273 74.6588 28.8C71.2883 30.2633 67.4003 28.413 65.9055 25.1393Z" fill="#2A2928"/>
<path d="M60.6629 37.179C60.4691 38.266 60.4491 39.3768 60.6036 40.47C60.6099 40.5781 60.6578 40.6797 60.7373 40.7532C60.8168 40.8267 60.9218 40.8666 61.0301 40.8643C61.1384 40.8621 61.2416 40.818 61.318 40.7412C61.3944 40.6645 61.4381 40.5611 61.4399 40.4528C61.5791 39.3634 61.5791 38.2608 61.4399 37.1715C61.4389 37.0685 61.397 36.9701 61.3235 36.8979C61.2499 36.8257 61.1507 36.7858 61.0476 36.7868C60.9446 36.7878 60.8462 36.8296 60.774 36.9032C60.7019 36.9768 60.6619 37.076 60.6629 37.179Z" fill="#2A2928"/>
<path d="M80.0663 36.2085C79.8241 37.3031 79.8032 38.435 80.0048 39.5377C80.0071 39.5914 80.0199 39.644 80.0426 39.6927C80.0653 39.7413 80.0973 39.7851 80.1368 39.8213C80.1764 39.8576 80.2227 39.8858 80.2731 39.9042C80.3236 39.9225 80.3771 39.9308 80.4308 39.9285C80.4844 39.9262 80.537 39.9133 80.5857 39.8907C80.6344 39.868 80.6781 39.836 80.7144 39.7964C80.7507 39.7569 80.7788 39.7105 80.7972 39.6601C80.8156 39.6097 80.8238 39.5561 80.8215 39.5025C80.8966 38.4242 80.8943 37.3419 80.8148 36.264C80.8184 36.2148 80.8123 36.1655 80.7969 36.1187C80.7815 36.0719 80.757 36.0286 80.7248 35.9912C80.6926 35.9539 80.6534 35.9233 80.6094 35.9011C80.5654 35.8789 80.5174 35.8656 80.4683 35.862C80.4191 35.8583 80.3697 35.8644 80.3229 35.8799C80.2761 35.8953 80.2328 35.9198 80.1955 35.952C80.1582 35.9842 80.1276 36.0234 80.1054 36.0674C80.0832 36.1114 80.0699 36.1593 80.0663 36.2085Z" fill="#2A2928"/>
<path d="M73.4408 48.3277C73.4213 47.7383 73.1733 47.1796 72.7491 46.7699C72.325 46.3602 71.758 46.1316 71.1683 46.1325C70.8746 46.1262 70.5826 46.1781 70.3091 46.2853C70.0356 46.3924 69.7861 46.5527 69.5748 46.7568C69.3635 46.9608 69.1948 47.2047 69.0782 47.4743C68.9617 47.744 68.8997 48.034 68.8958 48.3277C68.8821 48.6346 68.9308 48.9412 69.0388 49.2288C69.1469 49.5164 69.3121 49.7792 69.5244 50.0012C69.7368 50.2232 69.992 50.3999 70.2745 50.5207C70.557 50.6414 70.8611 50.7036 71.1683 50.7036C71.4755 50.7036 71.7796 50.6414 72.0621 50.5207C72.3447 50.3999 72.5998 50.2232 72.8122 50.0012C73.0245 49.7792 73.1897 49.5164 73.2978 49.2288C73.4058 48.9412 73.4545 48.6346 73.4408 48.3277Z" fill="#2A2928"/>
<path d="M71.973 43.8705C71.77 44.0358 71.609 44.2467 71.5029 44.486C71.3968 44.7252 71.3487 44.9862 71.3625 45.2475C71.3374 45.3125 71.3291 45.3828 71.3384 45.4518C71.3478 45.5208 71.3744 45.5863 71.4159 45.6423C71.4573 45.6983 71.5123 45.7429 71.5756 45.7719C71.6389 45.801 71.7085 45.8136 71.778 45.8085C72.2886 45.8581 72.7997 45.7187 73.2144 45.4167C73.629 45.1147 73.9185 44.671 74.028 44.1698C74.2095 43.29 72.7267 43.1858 71.973 43.8705Z" fill="#2A2928"/>
<path d="M76.4766 17.4292C76.8461 17.3889 77.1923 17.2288 77.4623 16.9733C77.7323 16.7179 77.9113 16.3812 77.9721 16.0145C78.0329 15.6478 77.972 15.2713 77.7988 14.9424C77.6256 14.6135 77.3496 14.3503 77.0129 14.193C76.9024 14.1385 76.7858 14.0972 76.6656 14.07C76.7328 13.2746 76.7268 12.4747 76.6476 11.6805C75.9299 5.74123 67.0064 6.57598 67.1294 13.9012C64.6356 14.5342 65.1846 17.4607 67.1376 17.682C66.7071 18.6682 66.0366 20.457 66.9576 21.0015L66.9426 21.2505C66.8834 22.1962 67.1519 23.1615 68.0961 23.1825C68.1749 23.4854 68.366 23.747 68.6307 23.9142C68.8954 24.0814 69.2137 24.1415 69.5211 24.0825C70.0626 25.6575 71.1404 25.8592 71.9601 25.1632C72.0971 25.2759 72.2564 25.3583 72.4275 25.4051C72.5986 25.4519 72.7777 25.462 72.9529 25.4348C73.1282 25.4075 73.2958 25.3435 73.4446 25.2469C73.5934 25.1504 73.7201 25.0234 73.8164 24.8745C74.0367 24.5755 74.1932 24.2345 74.2761 23.8725C75.0794 24.0322 75.6704 23.3647 75.9434 22.6012C76.4114 22.7122 76.9139 22.4295 76.9851 21.633C77.0072 21.3356 76.9837 21.0367 76.9154 20.7465C77.1267 20.6583 77.3053 20.5065 77.4262 20.3121C77.5472 20.1177 77.6046 19.8905 77.5904 19.662C77.5904 19.0087 76.8194 17.937 76.4031 17.4315C76.4277 17.4326 76.4522 17.4318 76.4766 17.4292ZM73.0401 19.0042C72.7859 18.9356 72.5356 18.8535 72.2901 18.7582C71.6324 18.4582 71.9196 18.4065 71.6016 18.6082C71.2741 18.8096 70.9017 18.9263 70.5179 18.948C70.4658 18.9551 70.4129 18.9419 70.3703 18.9112C70.3276 18.8805 70.2983 18.8346 70.2884 18.783C70.2812 18.7312 70.2947 18.6786 70.3258 18.6366C70.3569 18.5945 70.4032 18.5663 70.4549 18.558C70.8708 18.3789 71.2574 18.1382 71.6016 17.844C71.6581 17.7978 71.729 17.7732 71.8018 17.7743C71.8747 17.7753 71.9449 17.8022 71.9999 17.85C72.3593 18.1525 72.7591 18.4034 73.1879 18.5955C73.2149 18.6052 73.2397 18.6201 73.2609 18.6394C73.2821 18.6587 73.2993 18.682 73.3115 18.7079C73.3238 18.7338 73.3308 18.7619 73.3321 18.7906C73.3335 18.8192 73.3292 18.8479 73.3195 18.8749C73.3098 18.9018 73.2949 18.9266 73.2756 18.9479C73.2563 18.9691 73.233 18.9863 73.2071 18.9985C73.1811 19.0107 73.153 19.0177 73.1244 19.0191C73.0957 19.0205 73.0671 19.0162 73.0401 19.0065V19.0042ZM76.3604 16.6042C76.2936 16.614 76.2302 16.6401 76.1758 16.6801C76.1215 16.7202 76.0779 16.7731 76.0488 16.834C76.0197 16.8949 76.0061 16.9621 76.0092 17.0296C76.0123 17.097 76.0319 17.1627 76.0664 17.2207C76.0113 17.2239 75.9578 17.2398 75.9099 17.2671C75.8621 17.2945 75.8211 17.3325 75.7904 17.3782H75.7499C75.1499 18.1492 74.2499 15.7342 72.2721 15.4815C72.3349 15.0055 72.3311 14.5231 72.2609 14.0482C72.1821 13.3132 72.1626 12.9525 71.8109 12.9165C71.4276 12.8775 71.3174 13.3282 71.1794 14.0025C71.069 14.522 71.0721 15.0592 71.1884 15.5775C70.2344 15.8992 69.8991 16.692 69.0561 17.2335C68.6759 17.472 68.5199 17.367 68.3744 17.106C68.3372 17.0274 68.2817 16.9589 68.2127 16.9061C68.1436 16.8533 68.0629 16.8178 67.9773 16.8026C67.8918 16.7873 67.8038 16.7927 67.7207 16.8183C67.6377 16.844 67.5619 16.8891 67.4999 16.95L67.1474 16.9162C66.9939 16.88 66.8506 16.8096 66.728 16.7103C66.6055 16.6111 66.5068 16.4855 66.4395 16.3429C66.3721 16.2003 66.3377 16.0444 66.3389 15.8867C66.34 15.729 66.3767 15.5736 66.4461 15.432C66.5944 15.243 66.7841 15.0906 67.0006 14.9865C67.2171 14.8825 67.4547 14.8296 67.6949 14.832C67.8256 14.8209 67.9471 14.7605 68.0348 14.6629C68.1224 14.5654 68.1696 14.4381 68.1666 14.307C68.0841 8.61448 73.6071 7.61023 75.1484 10.5435C75.6081 11.6546 75.7839 12.8627 75.6599 14.0587C75.6299 14.5417 75.5849 14.6647 75.7566 14.8492C75.9674 15.0742 76.1541 14.9752 76.3949 15.0105C76.5902 15.0368 76.7689 15.1342 76.897 15.2839C77.0251 15.4337 77.0935 15.6254 77.0892 15.8224C77.085 16.0194 77.0083 16.2079 76.8739 16.352C76.7394 16.4961 76.5566 16.5856 76.3604 16.6035V16.6042Z" fill="#2A2928"/>
<path d="M101.378 107.351C101.336 104.603 101.253 96.8685 101.19 93.3308C101.186 92.776 101.04 92.2315 100.766 91.7488C100.493 91.2661 100.101 90.8612 99.627 90.5723C98.1406 89.6537 96.6533 88.7364 95.1652 87.8205C93.9991 87.3237 92.7828 86.9538 91.5375 86.7173C90.1335 86.9927 88.7204 87.2195 87.3007 87.3975C87.9157 88.14 89.799 89.9123 90.1012 91.2008C91.3971 90.9783 92.6702 90.6394 93.9052 90.1883C93.9664 90.1633 94.035 90.1637 94.0959 90.1893C94.1568 90.2149 94.205 90.2636 94.23 90.3248C94.2549 90.3859 94.2546 90.4545 94.229 90.5154C94.2034 90.5763 94.1546 90.6246 94.0935 90.6495C92.8078 91.1464 91.4803 91.5272 90.1267 91.7873C89.9287 92.931 88.7602 92.7 87.7042 92.232C78.5617 93.6975 65.9595 93.696 56.7682 92.5643C54.5182 93.7808 53.8102 92.9835 54.102 92.1893C52.0332 91.9046 50.0009 91.3992 48.0397 90.6818C47.9732 90.6541 47.9204 90.6012 47.8929 90.5346C47.8654 90.468 47.8655 90.3932 47.8931 90.3267C47.9207 90.2601 47.9737 90.2073 48.0403 90.1798C48.1069 90.1523 48.1817 90.1524 48.2482 90.18C50.2525 90.8726 52.3254 91.3479 54.4312 91.5975C55.4807 90.416 56.3786 89.1082 57.1042 87.7043C54.4237 87.456 52.1782 87.1403 50.3002 86.7863C49.116 87.0505 47.968 87.4564 46.881 87.9953C46.881 87.9953 44.025 89.6048 42.1065 90.6825C41.6002 90.9748 41.1796 91.3949 40.8868 91.9009C40.5941 92.4069 40.4395 92.981 40.4385 93.5655C40.4602 97.179 40.5225 104.847 40.5427 107.717C40.5415 108.246 40.6702 108.767 40.9175 109.235C41.1648 109.702 41.5231 110.102 41.961 110.399C44.4832 112.142 51.5302 114.725 71.0857 114.725C90.8707 114.725 97.7505 111.863 100.127 109.973C100.526 109.665 100.847 109.267 101.065 108.811C101.282 108.356 101.389 107.856 101.378 107.351ZM99.765 93.8513C95.646 96.4073 86.3542 97.566 81.4807 97.9763C75.1074 98.4737 68.7068 98.5175 62.3272 98.1075C56.9685 97.755 47.4337 96.7103 42.66 94.2165C42.5987 94.1813 42.5535 94.1235 42.534 94.0555C42.5145 93.9875 42.5223 93.9146 42.5556 93.8522C42.5889 93.7898 42.6452 93.7429 42.7126 93.7213C42.78 93.6997 42.8531 93.7052 42.9165 93.7365C47.6212 96.12 57.0795 97.0365 62.3527 97.3583C68.699 97.7287 75.0628 97.6803 81.4027 97.2135C86.157 96.8483 95.391 95.871 99.507 93.4305C99.5621 93.3974 99.6281 93.3875 99.6905 93.403C99.7529 93.4185 99.8067 93.458 99.84 93.513C99.8722 93.5687 99.8824 93.6344 99.8685 93.6972C99.8547 93.7599 99.8177 93.8152 99.765 93.852V93.8513Z" fill="#115711"/>
<path d="M57.6907 91.989C67.3501 92.8726 77.0738 92.7847 86.7157 91.7265C84.8512 90.6667 83.1719 89.8515 82.7812 87.8557C75.4844 88.354 68.1637 88.3968 60.8617 87.984C60.8339 89.7652 59.2957 90.9247 57.6907 91.989Z" fill="#115711"/>
<path d="M90.5581 90.6976C89.9994 89.2726 88.1619 87.7215 87.3894 86.7225C86.9631 86.0904 86.6445 85.3919 86.4466 84.6556C86.6986 84.6128 86.9491 84.5611 87.1966 84.4981C87.2985 84.4762 87.3911 84.4235 87.462 84.3472C87.5328 84.2708 87.5784 84.1745 87.5926 84.0713C88.0719 81.0353 88.5519 78.0166 88.9269 74.9813C89.3764 71.4355 89.6407 67.8686 89.7189 64.2953C89.6789 61.9988 88.8798 59.7802 87.4464 57.9856C86.3619 56.5408 85.1023 55.2363 83.6964 54.1021C83.6409 54.0583 83.5759 54.0282 83.5066 54.0143L85.7184 40.7731C85.7326 40.6845 85.7269 40.5939 85.7015 40.5079C85.6761 40.4219 85.6318 40.3427 85.5718 40.2761C85.5118 40.2095 85.4377 40.1571 85.3548 40.123C85.2719 40.0888 85.1824 40.0736 85.0929 40.0786L57.1539 41.5261C57.0793 41.5296 57.0064 41.5499 56.9407 41.5854C56.875 41.6208 56.818 41.6706 56.774 41.7309C56.7301 41.7913 56.7002 41.8608 56.6866 41.9342C56.6731 42.0077 56.6761 42.0832 56.6956 42.1553L60.0331 54.8438C57.6481 55.8773 54.9091 56.9648 53.3581 59.0648C50.9386 62.4098 51.1644 66.6991 52.1701 70.6853C53.3058 75.6876 54.804 80.6005 56.6529 85.3853C56.705 85.4947 56.7828 85.5899 56.8797 85.6626C56.9767 85.7354 57.0898 85.7836 57.2094 85.8031C56.7069 88.7491 54.3864 90.3586 53.6341 91.7281C53.4885 91.9449 53.4089 92.1994 53.405 92.4606C53.4011 92.7217 53.473 92.9785 53.6121 93.1996C53.7512 93.4207 53.9515 93.5967 54.1886 93.7062C54.4258 93.8158 54.6896 93.8542 54.9481 93.8168C55.8658 93.6765 56.7414 93.3357 57.5124 92.8186C58.8879 91.8863 60.2874 90.9106 60.9309 89.6348C61.194 89.1329 61.335 88.576 61.3423 88.0093C61.3496 87.4427 61.223 86.8823 60.9729 86.3738C60.7764 85.9358 60.1771 86.2238 61.0726 85.9988C61.2012 85.9638 61.3152 85.8884 61.3977 85.7838C61.4802 85.6791 61.5269 85.5508 61.5309 85.4176C61.6471 77.9176 61.0239 72.3458 61.0516 65.3251C62.6413 64.0716 64.3444 62.9691 66.1389 62.0318C66.2634 62.0206 72.1216 61.6696 74.2066 61.5413C76.2444 61.4153 78.1816 62.7451 80.1069 63.7163C80.3566 66.3901 81.3579 80.0663 81.6069 84.2611C81.6107 84.3934 81.6644 84.5194 81.7571 84.6138C81.8499 84.7082 81.9749 84.7641 82.1071 84.7703L82.3479 84.7838C82.1124 87.7373 82.0366 89.2516 84.2806 90.9473C84.7556 91.2866 85.2496 91.5984 85.7604 91.8811C86.7315 92.5654 87.842 93.0265 89.0124 93.2311C90.4809 93.3001 91.0809 91.9501 90.5581 90.6976ZM60.1831 86.6761C61.0644 89.1713 59.0971 90.3908 56.8681 91.8106C56.2758 92.2012 55.6082 92.4633 54.9084 92.5801C54.8041 92.5846 54.6999 92.5988 54.6586 92.5178V92.5261C54.5956 92.5261 54.6789 92.4158 54.6999 92.3551C54.9924 91.6943 56.6154 90.0766 57.4306 88.1356C57.7111 87.4594 57.8954 86.7472 57.9781 86.0198C58.7788 86.204 59.6065 86.2398 60.4201 86.1256C60.3158 86.1673 60.2322 86.2486 60.1877 86.3518C60.1431 86.4549 60.1412 86.5715 60.1824 86.6761H60.1831ZM60.7411 54.4771L57.8251 42.5108C59.6596 42.4358 82.4469 41.4076 84.4276 41.3108L82.4026 53.7466L60.7411 54.4771ZM89.5366 91.7521C89.4324 92.1091 89.0784 92.0318 88.7244 91.9441C87.8945 91.6701 87.1027 91.2921 86.3679 90.8191C85.0599 90.0323 83.7271 89.4271 83.3244 87.9563C83.1264 86.9218 83.0611 85.8663 83.1301 84.8153C83.9516 84.8532 84.7747 84.8362 85.5939 84.7643C86.2966 88.0546 88.2616 88.6043 89.3911 90.9278C89.5324 91.1787 89.5835 91.4704 89.5359 91.7543L89.5366 91.7521Z" fill="#2A2928"/>
</svg>
