<svg width="151" height="150" viewBox="0 0 151 150" fill="none" xmlns="http://www.w3.org/2000/svg">
<path d="M121.912 29.6048L123.3 28.3043C123.383 28.2244 123.432 28.1152 123.435 28.0001C123.438 27.885 123.397 27.7731 123.318 27.6885L121.56 25.8428C121.482 25.7652 121.377 25.7188 121.267 25.7123C121.157 25.7058 121.048 25.7397 120.96 25.8075L119.592 27C119.506 27.0776 119.455 27.1856 119.448 27.3007C119.442 27.4159 119.48 27.529 119.556 27.6158L121.281 29.5658C121.362 29.6507 121.472 29.702 121.589 29.7092C121.706 29.7164 121.822 29.6791 121.912 29.6048Z" fill="#115711"/>
<path d="M118.238 33.3495L119.626 32.0483C119.709 31.9685 119.758 31.8595 119.761 31.7445C119.764 31.6295 119.722 31.5178 119.644 31.4333L117.886 29.5876C117.808 29.5098 117.703 29.4633 117.593 29.4568C117.483 29.4504 117.374 29.4843 117.286 29.5523L115.918 30.75C115.832 30.8275 115.781 30.9353 115.774 31.0503C115.768 31.1654 115.806 31.2784 115.882 31.365L117.607 33.315C117.689 33.3995 117.799 33.45 117.916 33.4564C118.033 33.4628 118.148 33.4246 118.238 33.3495Z" fill="#115711"/>
<path d="M114.564 37.0762L115.953 35.7757C116.036 35.6956 116.084 35.5864 116.087 35.4714C116.09 35.3563 116.048 35.2446 115.97 35.16L114.212 33.3142C114.133 33.2366 114.029 33.1903 113.919 33.1838C113.808 33.1773 113.699 33.2111 113.612 33.279L112.241 34.4745C112.156 34.552 112.104 34.66 112.098 34.7752C112.091 34.8903 112.13 35.0034 112.206 35.0902L113.931 37.0402C113.969 37.0861 114.016 37.1237 114.069 37.1506C114.122 37.1775 114.18 37.1932 114.239 37.1965C114.299 37.1999 114.358 37.191 114.414 37.1703C114.47 37.1496 114.521 37.1176 114.564 37.0762Z" fill="#115711"/>
<path d="M37.4585 42.0165L39.5682 41.1375L36.7205 38.3242L37.4585 42.0165Z" fill="#115711"/>
<path d="M53.6143 44.9699L47.1642 30.3254C47.0481 30.087 46.8442 29.9026 46.5953 29.8109C46.3463 29.7192 46.0716 29.7273 45.8285 29.8334L30.9035 35.9159C30.7864 35.9599 30.6794 36.0271 30.589 36.1135C30.4986 36.2 30.4267 36.3039 30.3776 36.419C30.3285 36.534 30.3033 36.6578 30.3035 36.7829C30.3036 36.908 30.3291 37.0318 30.3785 37.1467C32.993 43.1107 34.1735 46.2314 36.707 52.2127C36.823 52.4607 37.0318 52.6532 37.2884 52.7486C37.5451 52.844 37.8289 52.8347 38.0787 52.7227L53.1095 46.1827C53.2235 46.1378 53.3274 46.0705 53.4149 45.9847C53.5023 45.8989 53.5717 45.7964 53.6188 45.6832C53.6659 45.5701 53.6897 45.4487 53.6889 45.3261C53.6882 45.2036 53.6628 45.0825 53.6143 44.9699ZM41.9592 34.7737C42.0874 34.7807 42.208 34.8365 42.2962 34.9297C42.3844 35.0229 42.4336 35.1464 42.4336 35.2747C42.4336 35.403 42.3844 35.5265 42.2962 35.6196C42.208 35.7128 42.0874 35.7687 41.9592 35.7757C41.8311 35.7687 41.7105 35.7128 41.6223 35.6196C41.5341 35.5265 41.4849 35.403 41.4849 35.2747C41.4849 35.1464 41.5341 35.0229 41.6223 34.9297C41.7105 34.8365 41.8311 34.7807 41.9592 34.7737ZM45.4047 46.1474C45.3113 46.2404 45.1848 46.2926 45.053 46.2926C44.9212 46.2926 44.7947 46.2404 44.7013 46.1474L40.3415 41.8724L37.652 42.9974L38.795 48.6937C38.8077 48.7583 38.8076 48.8249 38.7945 48.8895C38.7815 48.9541 38.7559 49.0155 38.7192 49.0702C38.6825 49.1249 38.6353 49.1718 38.5804 49.2083C38.5256 49.2448 38.464 49.2701 38.3994 49.2828C38.3347 49.2955 38.2682 49.2954 38.2036 49.2824C38.139 49.2694 38.0776 49.2438 38.0229 49.207C37.9682 49.1703 37.9212 49.1231 37.8848 49.0682C37.8483 49.0134 37.823 48.9518 37.8103 48.8872L35.4897 37.3754C35.4656 37.2424 35.4845 37.1052 35.5438 36.9837C35.6031 36.8623 35.6996 36.7629 35.8193 36.7001C35.939 36.6374 36.0756 36.6144 36.2093 36.6347C36.3429 36.655 36.4666 36.7175 36.5623 36.8129L45.3695 45.4447C45.4214 45.4863 45.4639 45.5384 45.4942 45.5976C45.5244 45.6568 45.5418 45.7217 45.5451 45.7881C45.5485 45.8545 45.5377 45.9209 45.5135 45.9828C45.4893 46.0448 45.4522 46.1009 45.4047 46.1474ZM47.1447 44.3722C47.0876 44.4068 47.024 44.4292 46.9578 44.4382C46.8916 44.4471 46.8243 44.4424 46.76 44.4242C46.6957 44.4061 46.6359 44.3749 46.5841 44.3327C46.5324 44.2905 46.4899 44.238 46.4592 44.1787L43.5238 38.8694C43.4642 38.7533 43.4521 38.6187 43.4898 38.4938C43.5275 38.3689 43.6122 38.2635 43.7261 38.1997C43.8399 38.136 43.9741 38.1189 44.1003 38.1521C44.2265 38.1852 44.3349 38.266 44.4027 38.3774L47.3382 43.6867C47.3715 43.7442 47.3929 43.8077 47.4012 43.8736C47.4095 43.9395 47.4044 44.0064 47.3864 44.0703C47.3684 44.1343 47.3377 44.1939 47.2962 44.2458C47.2547 44.2976 47.2032 44.3406 47.1447 44.3722Z" fill="#115711"/>
<path d="M32.6945 14.925C32.7799 14.6206 32.7989 14.3015 32.7504 13.9892C32.7019 13.6769 32.5869 13.3786 32.4133 13.1145C31.7782 12.3641 30.9043 11.8551 29.9383 11.673L28.3213 15.348C29.9615 16.035 32.3105 16.6747 32.6945 14.925Z" fill="#115711"/>
<path d="M40.7113 12.4298L26.6121 6.82504C26.3832 6.73698 26.1291 6.7409 25.903 6.83596C25.677 6.93103 25.4965 7.10987 25.3993 7.33504C22.8606 13.254 21.9178 15.678 19.3693 21.5745C19.3169 21.6917 19.289 21.8182 19.2872 21.9465C19.2854 22.0748 19.3099 22.2021 19.359 22.3207C19.4082 22.4392 19.481 22.5464 19.573 22.6358C19.6651 22.7252 19.7744 22.7949 19.8943 22.8405L34.3798 28.2203C34.6082 28.3056 34.8609 28.2984 35.0841 28.2004C35.3073 28.1024 35.4835 27.9212 35.5753 27.6953L41.2183 13.6703C41.27 13.556 41.2979 13.4324 41.3002 13.307C41.3025 13.1816 41.2793 13.057 41.2318 12.9409C41.1843 12.8248 41.1137 12.7196 41.0242 12.6317C40.9347 12.5438 40.8283 12.4751 40.7113 12.4298ZM25.6453 21.45C25.6214 21.5121 25.5852 21.5688 25.539 21.6166C25.4927 21.6645 25.4373 21.7025 25.3761 21.7285C25.3149 21.7545 25.249 21.768 25.1825 21.768C25.1159 21.7681 25.0501 21.7548 24.9888 21.7289C24.9275 21.703 24.872 21.665 24.8257 21.6173C24.7794 21.5695 24.7431 21.513 24.719 21.4509C24.695 21.3889 24.6837 21.3226 24.6857 21.2561C24.6878 21.1896 24.7032 21.1242 24.7311 21.0638L27.0163 15.8775C26.865 15.7938 26.7127 15.7118 26.5595 15.6315C26.4993 15.6006 26.4458 15.5579 26.4024 15.5059C26.3591 15.4539 26.3266 15.3936 26.307 15.3288C26.2874 15.264 26.2811 15.1958 26.2884 15.1285C26.2958 15.0612 26.3166 14.996 26.3497 14.9369C26.3828 14.8778 26.4274 14.8259 26.481 14.7845C26.5346 14.743 26.5959 14.7128 26.6614 14.6956C26.727 14.6784 26.7953 14.6745 26.8623 14.6843C26.9293 14.6941 26.9937 14.7173 27.0516 14.7525C27.1573 14.805 27.2766 14.8755 27.4206 14.946L29.3368 10.5683L29.7058 10.6208C32.2296 11.0415 34.2186 12.6495 33.6441 15.1568C33.0741 17.6408 30.2923 17.2965 27.8953 16.2645L25.6453 21.45ZM34.1361 20.2725C34.0176 20.3311 33.8807 20.3403 33.7554 20.2981C33.6302 20.2559 33.5268 20.1658 33.4678 20.0475C32.4508 17.9813 29.8971 20.0715 31.376 20.1885C31.7433 20.1604 32.112 20.2207 32.4512 20.3642C32.7905 20.5077 33.0905 20.7304 33.3261 21.0135C33.4833 21.388 33.5464 21.7953 33.5097 22.1997C33.473 22.6042 33.3377 22.9935 33.1156 23.3335C32.8936 23.6736 32.5915 23.954 32.236 24.1502C31.8804 24.3464 31.4821 24.4525 31.0761 24.459C30.5314 24.444 30.0012 24.2806 29.5425 23.9863C29.0839 23.6921 28.7143 23.2783 28.4736 22.7895C28.4181 22.6735 28.4098 22.5405 28.4506 22.4186C28.4913 22.2966 28.5779 22.1953 28.6919 22.1359C28.806 22.0766 28.9386 22.0638 29.0619 22.1004C29.1851 22.137 29.2894 22.2201 29.3526 22.332C29.5489 22.775 29.9116 23.123 30.3624 23.3007C30.8132 23.4783 31.3158 23.4715 31.7615 23.2815C32.057 23.1079 32.2864 22.8409 32.4136 22.5227C32.5408 22.2045 32.5586 21.853 32.4643 21.5235C32.0593 20.8958 30.1656 21.5318 29.7921 20.469C29.4418 19.4708 30.8158 18.195 32.0601 18.1485C32.5414 18.1644 33.0095 18.31 33.4149 18.5699C33.8204 18.8298 34.148 19.1945 34.3633 19.6253C34.4174 19.7411 34.424 19.8736 34.3815 19.9942C34.339 20.1148 34.2508 20.214 34.1361 20.2703V20.2725Z" fill="#115711"/>
<path d="M18.3672 43.2293C18.9485 43.5901 19.7067 42.6893 20.1252 42.1396L18.2615 40.9613C17.901 41.3173 17.6823 41.7924 17.6465 42.2978C17.6829 42.4996 17.7674 42.6896 17.8929 42.8518C18.0183 43.0139 18.1811 43.1434 18.3672 43.2293Z" fill="#115711"/>
<path d="M26.0495 37.9381L13.814 29.7811C13.6014 29.6451 13.3438 29.5983 13.097 29.651C12.8502 29.7036 12.6341 29.8514 12.4955 30.0623L4.39099 42.8775C4.26453 43.0868 4.22321 43.3365 4.27554 43.5753C4.32787 43.8141 4.46987 44.0237 4.67224 44.1608C10.0257 47.7511 11.726 49.1303 17.0472 52.74C17.1549 52.8113 17.2758 52.8601 17.4027 52.8836C17.5296 52.9071 17.66 52.9048 17.786 52.8768C17.912 52.8488 18.031 52.7957 18.1361 52.7206C18.2411 52.6456 18.3299 52.5502 18.3972 52.44L26.348 39.1861C26.4664 38.9791 26.5014 38.7348 26.446 38.5029C26.3905 38.271 26.2487 38.069 26.0495 37.9381ZM17.3652 47.2201L9.87499 42.21C9.77226 42.135 9.70239 42.0232 9.67988 41.898C9.65737 41.7727 9.68396 41.6436 9.75412 41.5375C9.82427 41.4313 9.93262 41.3563 10.0567 41.3279C10.1807 41.2995 10.3109 41.32 10.4202 41.3851L17.909 46.3951C17.9676 46.4287 18.0188 46.4739 18.0593 46.5281C18.0998 46.5822 18.1287 46.6441 18.1444 46.7098C18.1601 46.7756 18.1621 46.8439 18.1504 46.9104C18.1386 46.977 18.1134 47.0405 18.0762 47.0969C18.039 47.1534 17.9906 47.2016 17.9341 47.2387C17.8775 47.2757 17.814 47.3007 17.7473 47.3123C17.6807 47.3238 17.6125 47.3216 17.5467 47.3057C17.481 47.2899 17.4193 47.2607 17.3652 47.2201ZM21.2322 42.225C20.4552 43.5203 19.1165 44.8831 17.8572 44.0888C16.3572 43.1431 16.2822 41.733 17.3997 40.4138L12.8292 37.5128C12.7711 37.4797 12.7202 37.4352 12.6797 37.3819C12.6391 37.3286 12.6098 37.2678 12.5933 37.2029C12.5769 37.138 12.5737 37.0705 12.584 37.0044C12.5943 36.9382 12.6178 36.8748 12.6531 36.818C12.6885 36.7612 12.735 36.7121 12.7898 36.6737C12.8445 36.6352 12.9065 36.6082 12.972 36.5943C13.0375 36.5804 13.105 36.5799 13.1707 36.5927C13.2364 36.6056 13.2988 36.6315 13.3542 36.669L21.4587 41.8028L21.2322 42.225Z" fill="#115711"/>
<path d="M26.3307 94.2104C22.3942 95.0937 18.3982 95.6873 14.375 95.9865C12.4775 96.1177 12.6155 96.4155 15.4122 96.6015C18.63 96.7181 21.8513 96.5121 25.028 95.9865C25.1567 97.1244 25.2213 98.2687 25.2215 99.414C19.0332 101.225 8.69671 99.5377 6.78046 99.2032C6.28921 96.1732 6.22096 95.0115 6.05971 94.896C5.93671 94.8262 5.86471 99.819 5.90146 100.221C6.28296 104.491 7.48898 108.646 9.45271 112.456C11.4575 116.296 18.668 116.297 22.9715 114.373C23.3185 114.222 23.6313 114.003 23.8912 113.728C24.151 113.453 24.3525 113.128 24.4835 112.773C26.585 106.221 27.512 100.908 26.3307 94.2104ZM23.852 108.96C22.892 112.06 22.577 112.893 19.439 113.548C16.9489 114.045 14.3689 113.819 12.0027 112.898C10.85 112.457 9.87496 109.635 9.54196 108.75C8.39666 106.021 7.53659 103.181 6.97546 100.275C7.04521 100.662 12.1085 100.975 12.566 101.014C16.7172 101.366 21.1797 101.576 25.223 100.468C25.1462 103.347 24.6851 106.203 23.852 108.96Z" fill="#2A2928"/>
<path d="M13.796 78.2655C13.7148 80.0502 13.7901 81.8385 14.021 83.61C14.8265 90.447 15.647 93.735 15.902 90.96C16.5403 84.0053 13.808 75.6398 18.6448 70.515C20.3765 68.6798 21.8915 68.9348 21.9845 68.565C22.0843 68.265 19.9198 67.7918 17.8183 69.426C15.875 70.9403 14.0443 74.0925 13.796 78.2655Z" fill="#2A2928"/>
<path d="M17.189 78.6353L17.6112 78.7755C22.589 80.4353 27.6612 77.2755 28.106 71.6738C22.517 70.3838 18.1707 73.725 17.189 78.6353ZM26.3832 72.4103L18.5427 77.4203C19.1105 75.8351 20.1884 74.4832 21.6074 73.5767C23.0264 72.6703 24.7062 72.2605 26.3832 72.4118V72.4103ZM18.7535 78.0533L26.8932 72.8678C26.7023 73.7444 26.3399 74.5746 25.8267 75.3106C25.3135 76.0465 24.6598 76.6736 23.9031 77.1558C23.1465 77.6379 22.302 77.9656 21.4181 78.1199C20.5343 78.2742 19.6287 78.252 18.7535 78.0548V78.0533Z" fill="#2A2928"/>
<path d="M13.1983 71.814C17.15 67.8622 16.5298 61.9672 11.4733 58.9807L11.21 59.3325C5.91504 66.1672 13.1578 71.739 13.1983 71.814ZM13.3565 70.1437L12.0733 60.5805C12.7877 61.1225 13.3879 61.8004 13.8394 62.5752C14.2908 63.35 14.5847 64.2064 14.7039 65.0952C14.8232 65.984 14.7655 66.8876 14.5343 67.754C14.3031 68.6204 13.9028 69.4326 13.3565 70.1437ZM11.423 60.8437L12.671 70.0552C11.4771 68.872 10.7075 67.3276 10.4818 65.6619C10.2561 63.9963 10.587 62.3027 11.423 60.8445V60.8437Z" fill="#2A2928"/>
<path d="M79.826 128.087L66.026 111.122C65.8621 110.906 65.6529 110.727 65.413 110.6C65.1731 110.472 64.9083 110.399 64.637 110.384H38.0562C37.6395 110.356 37.2269 110.481 36.896 110.736C30.257 116.516 25.4375 120.494 20.4942 125.028C20.439 125.074 20.399 125.136 20.3793 125.205C20.3597 125.274 20.3613 125.348 20.3841 125.416C20.4068 125.485 20.4496 125.544 20.5068 125.588C20.5641 125.632 20.6331 125.657 20.705 125.661C52.9002 126.476 38.9622 127.611 79.5447 128.632C79.6088 128.634 79.6721 128.618 79.7273 128.585C79.7825 128.553 79.8274 128.505 79.8568 128.448C79.8863 128.391 79.899 128.327 79.8935 128.263C79.888 128.199 79.8646 128.138 79.826 128.087ZM62.8438 122.602C64.7637 124.057 53.7905 123.22 52.085 123.393C44.4035 124.176 51.1355 125.242 46.952 125.486C46.0377 125.539 34.8845 125.64 33.89 122.743C33.455 121.475 39.0935 118.367 37.4937 118.313C32.4305 118.142 41.1335 116.297 46.829 115.412C57.8352 113.702 59.6967 112.722 62.387 115.412C63.7227 116.748 64.8102 117.437 67.4675 120.089C68.5145 121.133 59.492 120.062 62.8438 122.602ZM75.0972 125.011C75.0476 125.055 74.9893 125.088 74.9261 125.109C74.8629 125.129 74.7961 125.136 74.73 125.13C74.6639 125.123 74.5999 125.103 74.5421 125.07C74.4842 125.038 74.4337 124.993 74.3937 124.94L64.4787 113.126C64.3997 113.018 64.2966 112.931 64.1776 112.87C64.0585 112.809 63.9269 112.776 63.7932 112.775L39.5855 112.09C39.4556 112.083 39.3334 112.026 39.2447 111.931C39.156 111.836 39.1077 111.71 39.11 111.58C39.1123 111.45 39.1651 111.326 39.2572 111.234C39.3492 111.142 39.4734 111.089 39.6035 111.087L63.8105 111.773C64.0916 111.776 64.3683 111.844 64.6185 111.972C64.8688 112.1 65.0857 112.285 65.252 112.511L75.152 124.325C75.1942 124.374 75.2263 124.43 75.2465 124.491C75.2666 124.551 75.2743 124.616 75.2692 124.68C75.2641 124.743 75.2463 124.806 75.2168 124.863C75.1872 124.919 75.1466 124.97 75.0972 125.011Z" fill="#115711"/>
<path d="M60.0665 114.814C59.0825 114.373 57.3942 115.061 56.3742 115.254C52.13 116.056 47.489 117.254 43.3475 118.471C41.87 118.905 40.412 119.051 39.287 120.176C38.6187 120.844 37.8807 121.495 37.262 122.215C38.8915 122.581 40.5508 122.799 42.2195 122.866C43.8681 122.783 45.5111 122.613 47.1417 122.356C51.1136 122 55.0509 121.33 58.9167 120.352C59.6712 120.137 61.0775 119.876 61.4127 119.051C62.2422 117.028 61.3512 115.391 60.0665 114.814ZM40.9925 121.618L40.025 121.354C40.625 120.733 40.751 120.534 41.2205 120.405C46.0989 119.061 51.0047 117.818 55.9347 116.677C56.3599 117 56.6815 117.44 56.8595 117.943C57.0376 118.446 57.0644 118.99 56.9367 119.508C52.5957 120.436 42.5997 121.694 40.9925 121.618ZM60.2592 118.489C59.6693 118.856 59.0119 119.101 58.3257 119.209C58.408 118.191 58.1278 117.176 57.5345 116.344C58.1898 116.17 58.8614 116.064 59.5385 116.027C59.9505 116.268 60.2547 116.657 60.3888 117.115C60.5228 117.572 60.4765 118.064 60.2592 118.489Z" fill="#2A2928"/>
<path d="M146.577 45.9892C146.502 45.849 132.001 27.8017 130.297 25.6845C129.647 24.876 128.786 23.9797 127.766 24.1725C129.27 25.7212 129.163 25.6957 142.234 50.595L133.759 51.12C130.612 44.826 127.466 38.526 124.319 32.22C125.532 30.585 126.763 28.9327 127.975 27.2977C127.501 26.6977 127.009 26.1022 126.534 25.5045C126.332 25.7935 126.248 26.1479 126.297 26.4968C126.346 26.8456 126.525 27.163 126.798 27.3855C122.368 32.466 117.798 37.4085 113.261 42.3982C113.202 42.485 113.124 42.5571 113.033 42.6092C112.942 42.6612 112.841 42.6916 112.736 42.6982C112.459 42.6712 112.498 42.5992 110.134 40.3252C109.498 39.7132 108.73 40.0597 109.309 40.8697C110.003 41.7147 110.787 42.481 111.648 43.155C113.284 44.5897 113.598 43.5045 117.818 38.901C118.662 40.7467 118.427 42.8917 118.343 44.913C118.318 45.5422 118.718 46.101 119.168 45.5287C119.984 44.4174 120.377 43.0519 120.278 41.6769C120.178 40.3019 119.592 39.0073 118.625 38.025C120.225 36.2497 121.842 34.4917 123.442 32.7157C133.506 52.845 132.855 51.774 133.267 52.0012C133.678 52.2285 133.61 52.1145 142.32 51.5617C143.389 51.4935 143.548 50.9512 143.059 50.0317C142.593 49.1572 142.126 48.2917 141.67 47.4127C143.041 47.325 144.412 47.2515 145.801 47.1667C146.737 47.1105 146.943 46.6837 146.577 45.9892ZM141.162 46.464L132.425 29.925L145.54 46.2217L141.162 46.464Z" fill="#2A2928"/>
<path d="M85.8207 25.5263C85.4689 24.63 85.1704 24.1553 85.0467 24.1553C84.7782 24.1553 85.1727 25.911 85.3632 27.9353C84.8539 27.0735 80.4649 25.6328 80.1949 29.4465C80.1094 30.66 81.2487 26.7165 84.5899 29.1128C84.7842 29.2523 85.2754 29.0603 85.4517 28.6733C85.4862 28.9545 85.5012 29.2358 85.5214 29.5523C85.7952 33.7043 86.5032 38.0273 84.5727 41.9108C82.5754 45.9315 77.1432 48.0855 70.1397 43.5608C68.3397 42.399 68.2174 42.5948 69.5239 44.0003C74.4349 49.2848 82.7097 48.8475 85.8912 43.4558C88.4494 39.1193 87.6312 34.2 86.8579 29.4975C86.6485 28.1419 86.301 26.8112 85.8207 25.5263Z" fill="#2A2928"/>
<path d="M122.563 48.0113C125.816 44.343 124.158 39.3233 123.442 41.067C123.241 41.556 123.073 42.4733 122.738 43.5105C122.037 45.5224 121.009 47.4053 119.697 49.0838C119.397 49.5758 119.451 49.857 120.049 49.716C121.04 49.4148 121.916 48.8204 122.563 48.0113Z" fill="#2A2928"/>
<path d="M51.1354 89.625C54.7637 89.5432 58.3825 90.0296 61.8604 91.0665C67.5604 92.6663 70.6519 94.3808 72.6199 95.004C73.8334 95.388 74.0779 95.2163 73.0767 94.4243C71.3053 93.0404 69.3609 91.8937 67.2927 91.0133C63.1722 89.3123 58.6369 87.8363 53.9502 88.341C53.9502 88.2008 53.9059 89.766 52.8252 75.2445C52.8115 75.1125 52.7471 74.991 52.6455 74.9057C52.5439 74.8203 52.4131 74.7777 52.2807 74.787C52.2146 74.792 52.1501 74.8101 52.0911 74.8404C52.0321 74.8707 51.9797 74.9124 51.9371 74.9632C51.8944 75.0141 51.8624 75.0729 51.8428 75.1363C51.8233 75.1996 51.8166 75.2663 51.8232 75.3323C52.8799 89.559 52.9174 88.2983 52.9999 88.4625C50.9299 88.7918 49.0497 89.5928 51.1354 89.625Z" fill="#2A2928"/>
<path d="M75.6418 33.6833C75.9583 33.6661 76.1871 33.1913 76.1518 32.6461C76.1166 32.1008 75.8173 31.6711 75.5016 31.6973C74.7021 31.7611 74.8933 33.7253 75.6418 33.6833Z" fill="#2A2928"/>
<path d="M83.4649 31.8555C83.4296 31.293 83.1319 30.8617 82.7966 30.888C82.4614 30.9142 82.2341 31.3807 82.2716 31.9432C82.3091 32.5057 82.6054 32.9452 82.9399 32.91C83.2744 32.8747 83.5001 32.418 83.4649 31.8555Z" fill="#2A2928"/>
<path d="M71.3877 30.4665C71.3636 30.6184 71.3867 30.7739 71.4539 30.9122C71.5211 31.0504 71.6292 31.1647 71.7635 31.2395C71.8978 31.3143 72.0518 31.346 72.2047 31.3304C72.3577 31.3147 72.5021 31.2525 72.6185 31.152C74.5302 27.5288 77.3 30.4628 76.679 29.427C74.729 26.1833 71.4582 29.4818 71.3877 30.4665Z" fill="#2A2928"/>
<path d="M79.4389 37.3403C80.1597 37.3043 82.0054 36.3555 82.0407 35.67C82.0759 34.9845 80.1597 31.785 80.1597 31.785C79.7202 32.277 80.9847 35.4765 80.8984 35.5995C80.8122 35.7225 79.4389 35.9693 79.1577 36.0923C78.8944 36.2325 78.7362 37.3748 79.4389 37.3403Z" fill="#2A2928"/>
<path d="M77.0481 39.3615C76.9611 39.3018 76.8564 39.2734 76.7511 39.281C76.6459 39.2886 76.5464 39.3317 76.4688 39.4032C76.3913 39.4747 76.3403 39.5705 76.3243 39.6748C76.3082 39.779 76.3281 39.8857 76.3806 39.9772C76.6266 40.6447 79.3671 42.4905 80.0368 40.0297C80.2476 39.2565 78.9733 41.6175 77.0481 39.3615Z" fill="#2A2928"/>
<path d="M127.4 22.5908L126.433 21.6908C126.204 21.5533 125.943 21.4764 125.675 21.4672C125.408 21.4581 125.142 21.5169 124.903 21.6383L126.345 22.9568C126.261 22.8721 125.426 23.6918 125.273 23.9063L124.183 22.5353C123.999 22.8846 123.863 23.2569 123.778 23.6423C123.778 23.6678 124.745 24.8206 124.728 24.8378C124.533 25.3808 124.37 26.4833 124.921 26.6483C125.002 26.6711 125.087 26.6739 125.168 26.6564C125.25 26.6389 125.326 26.6017 125.39 26.548C125.455 26.4944 125.505 26.4258 125.536 26.3484C125.568 26.271 125.58 26.187 125.572 26.1038C125.307 24.3601 127.366 22.9403 129.172 23.6956C129.351 23.7651 129.513 23.8728 129.646 24.0113C129.706 24.0795 129.784 24.1295 129.871 24.1558C129.958 24.1822 130.05 24.1837 130.138 24.1603C130.226 24.1369 130.305 24.0895 130.367 24.0235C130.429 23.9574 130.472 23.8753 130.49 23.7863C130.509 23.7099 130.509 23.6302 130.49 23.5537C130.472 23.4773 130.436 23.4063 130.384 23.3468C130.058 23.0447 129.672 22.815 129.251 22.6728C128.83 22.5306 128.383 22.4791 127.941 22.5218C127.394 22.5316 127.475 22.6658 127.4 22.5908Z" fill="#2A2928"/>
<path d="M140.388 68.9138L119.943 70.935C120.006 69.66 119.718 59.9595 119.028 56.2388C121.134 55.3712 122.984 53.984 124.408 52.2069C125.831 50.4298 126.781 48.3208 127.168 46.077C127.334 44.865 127.203 44.196 127.116 44.196C126.975 44.196 126.87 44.829 126.447 46.077C125.772 48.2441 124.564 50.207 122.933 51.7858C121.302 53.3645 119.301 54.5086 117.113 55.113C117.713 59.838 118.057 69.864 118.009 71.1458L98.9172 73.0095C108.585 55.3785 109.225 52.3605 109.29 52.23C108.501 51.7763 104.94 52.6163 103.699 47.835C103.384 46.537 103.451 45.1754 103.893 43.9148C105.15 40.0898 108.657 37.7685 108.657 37.305C108.639 37.182 108.077 37.4108 106.986 38.166C106.986 37.9125 106.935 37.9298 105.668 36.7778C105.556 36.6098 104.631 37.4393 122.105 23.5028C122.051 23.6115 122.196 24.018 122.667 24.012C122.733 24.0058 122.797 23.9859 122.855 23.9535C122.913 23.9211 122.963 23.8771 123.003 23.8241C123.043 23.7712 123.071 23.7105 123.086 23.646C123.101 23.5815 123.102 23.5146 123.09 23.4495C123.05 22.9482 123.169 22.4469 123.431 22.0176C123.693 21.5883 124.084 21.2528 124.548 21.0593C124.972 20.8801 125.435 20.815 125.892 20.8705C126.348 20.926 126.782 21.1002 127.15 21.3758C127.212 21.4438 127.291 21.4931 127.38 21.518C127.468 21.543 127.562 21.5425 127.65 21.5168C127.738 21.4911 127.817 21.441 127.878 21.3725C127.939 21.3039 127.979 21.2195 127.995 21.129C128.009 21.0541 128.006 20.9767 127.985 20.9033C127.963 20.83 127.924 20.7628 127.872 20.7075C127.065 19.8075 125.565 19.7325 124.531 20.004C124.022 20.1586 123.554 20.4274 123.164 20.7901C122.774 21.1527 122.472 21.5995 122.281 22.0965L105.07 35.8283C104.953 35.9263 104.857 36.0464 104.787 36.1817C104.717 36.317 104.674 36.4648 104.661 36.6167C104.648 36.7686 104.665 36.9215 104.711 37.0668C104.757 37.2121 104.832 37.3468 104.93 37.4633C106.392 38.82 106.107 38.5973 106.355 38.6588C99.413 44.1713 101.63 51.9893 106.742 53.7773C106.373 54.7268 97.6002 71.9198 96.95 73.2383L82.1637 74.7C81.5121 74.7651 80.9055 75.0616 80.454 75.5359C80.0025 76.0101 79.736 76.6306 79.703 77.2845C79.703 77.2845 77.9975 106.449 77.9975 106.467C75.3252 106.59 72.4595 107.272 69.3657 107.504C56.426 108.474 40.9347 104.061 34.8567 91.5068C27.1092 75.5025 39.2367 58.9425 56.1807 54.8528C56.1807 55.458 60.1677 62.9565 67.8185 62.9565C72.398 62.9565 76.5035 60.8715 78.1557 56.6813C86.723 59.2568 87.4002 59.4728 94.3115 65.2073C95.5227 66.2115 95.8407 66.174 94.9445 64.8203C91.5335 59.67 86.2047 56.955 80.3885 55.38C78.8405 54.9608 77.2062 54.8715 75.6597 54.4305C73.0745 53.694 73.4442 52.6703 73.6205 50.1413C73.6347 49.9298 73.7217 48.222 73.2155 48.8753C72.8624 49.4517 72.6462 50.1013 72.5832 50.7743C72.4032 51.7223 72.0087 52.689 72.1962 53.6573C72.4137 54.7823 73.2777 55.1393 74.2527 55.4678C75.038 55.7325 77.048 56.3295 77.189 56.382C76.538 58.017 74.3945 61.6688 68.3112 61.9373C60.77 62.2695 57.3762 55.239 57.113 54.624C60.6335 53.8695 61.883 54.375 63.0545 53.481C63.6095 52.9419 63.9422 52.2143 63.9867 51.4418C64.3955 49.3125 65.3262 43.0418 65.5512 42.0548C65.8595 40.7048 66.3215 38.4923 65.006 38.064C64.683 37.9881 64.3529 37.9469 64.0212 37.941C61.6257 37.6065 60.542 33.6728 63.389 33.054C65.2355 32.652 65.7507 32.8388 66.2015 33.528C67.5035 35.5208 68.9967 35.9018 69.401 33.0188C69.401 33.0188 70.8425 24.1403 76.6085 21.855C80.4237 20.3438 84.0335 21.8258 86.0142 22.998C86.6315 23.3633 86.9652 22.8053 87.1212 22.098C87.9222 18.498 76.8725 6.68028 67.4495 15.5408C67.4495 15.5408 74.6225 6.22278 69.7527 6.32853C64.883 6.43428 66.4655 11.4968 66.4655 11.4968C66.4655 11.4968 64.883 6.73278 60.2067 9.02178C55.5305 11.3108 58.4135 15.1718 58.4135 15.1718C58.4135 15.1718 54.2472 10.707 51.4692 15.576C48.6912 20.445 55.1442 21.726 55.1442 21.726C55.1442 21.726 49.9535 21.126 51.1692 25.8578C51.4453 26.8691 51.944 27.806 52.6287 28.5998C53.9517 30.1748 57.779 28.4063 59.9037 24.609C59.0592 26.4203 57.4595 31.026 61.0287 34.3133C60.8878 34.8428 60.8658 35.397 60.9644 35.9361C61.063 36.4751 61.2797 36.9856 61.599 37.431C61.9183 37.8764 62.3322 38.2456 62.811 38.512C63.2898 38.7785 63.8217 38.9357 64.3685 38.9723C64.7555 39.0068 64.994 39.0128 64.6145 40.449C64.0145 42.7208 62.6105 51.5415 62.294 52.1745C61.7044 52.3864 61.0902 52.5222 60.4662 52.5788C39.239 54.2595 22.7502 75.45 34.3295 94.4565C41.0795 105.544 55.5282 110.255 69.032 108.89C72.407 108.548 75.308 107.765 77.8917 107.519L77.5055 114.005C77.4851 114.401 77.5498 114.796 77.6951 115.164C77.8404 115.532 78.063 115.865 78.3479 116.14C78.6328 116.415 78.9734 116.626 79.3466 116.758C79.7198 116.89 80.117 116.941 80.5115 116.906L95.63 115.5C95.5775 118.946 95.0472 126.819 91.7097 131.357C89.1762 134.801 83.342 137.198 78.1205 136.965C76.1083 136.93 74.1321 136.426 72.3496 135.492C70.5671 134.558 69.0275 133.22 67.8537 131.585C76.871 131.855 79.0602 131.726 79.5267 131.726C79.2762 129.893 79.1112 127.709 78.8592 130.935C61.025 128.855 9.34997 127.125 22.9025 128.878C31.718 130.021 57.6275 131.307 66.641 131.55C67.9501 133.585 69.7631 135.246 71.904 136.374C74.0448 137.501 76.4407 138.056 78.8592 137.984C84.2382 137.984 89.8842 135.522 92.5182 131.954C96.1182 127.084 96.6147 118.91 96.65 115.412L103.681 114.761C103.664 114.709 103.875 105.286 104.472 103.581C105.07 101.876 105.681 104.021 105.844 108.381C105.912 110.227 104.455 136.685 104.455 136.685L87.8052 138.812C87.6134 138.833 87.4326 138.912 87.2865 139.038C87.1403 139.164 87.0357 139.331 86.9863 139.518C86.9369 139.704 86.9451 139.901 87.0097 140.083C87.0743 140.265 87.1924 140.423 87.3485 140.537L91.181 143.472C91.2822 143.551 91.3981 143.608 91.5218 143.641C91.6456 143.675 91.7747 143.683 91.9017 143.666L128.45 138.691C128.657 138.664 128.849 138.572 128.999 138.427C129.149 138.283 129.248 138.094 129.281 137.888C129.315 137.683 129.282 137.472 129.186 137.287C129.09 137.102 128.937 136.953 128.75 136.862C123.438 134.17 123.659 134.224 123.264 134.296L113.314 135.562L114.598 113.745L138.665 111.512C139.321 111.454 139.933 111.16 140.389 110.685C140.844 110.209 141.113 109.585 141.144 108.928L143.341 71.835C143.379 71.4393 143.328 71.0402 143.192 70.6666C143.057 70.2929 142.84 69.9541 142.557 69.6745C142.275 69.395 141.934 69.1817 141.558 69.0501C141.183 68.9186 140.784 68.872 140.388 68.9138ZM68.786 15.5415C69.3326 15.0911 69.9503 14.7345 70.6137 14.4863C71.5825 14.113 72.6019 13.8877 73.6377 13.818C78.1107 13.4325 82.7877 16.518 84.1332 19.443C84.5277 20.301 84.341 20.5373 83.5707 20.043C80.999 18.3878 77.3457 14.6153 69.2457 16.2285C68.33 16.4085 68.0562 16.2188 68.786 15.5415ZM107.919 78.2655C89.8115 79.716 88.481 79.2593 86.9277 80.0235C85.8027 80.4983 85.3295 81.624 85.1705 82.977C85.1015 83.5613 84.2705 101.516 83.6585 92.91C83.5205 90.9863 83.2835 84.2723 83.465 82.485C83.9555 77.58 87.7295 77.535 92.378 77.229C133.294 74.5328 133.611 76.2083 107.919 78.2655Z" fill="#2A2928"/>
</svg>
