<svg width="151" height="150" viewBox="0 0 151 150" fill="none" xmlns="http://www.w3.org/2000/svg">
<path d="M57.0936 86.2136C55.0146 85.8446 54.2151 88.5544 55.4511 89.8684C55.6504 90.0846 55.8974 90.2514 56.1724 90.3553C56.4475 90.4593 56.743 90.4976 57.0355 90.4673C57.328 90.4369 57.6094 90.3387 57.8572 90.1804C58.105 90.0221 58.3125 89.8082 58.4631 89.5556C58.6504 89.2565 58.7637 88.917 58.7937 88.5653C58.8238 88.2137 58.7696 87.8599 58.6358 87.5333C58.5019 87.2067 58.2923 86.9167 58.0241 86.6872C57.7559 86.4577 57.437 86.2954 57.0936 86.2136ZM56.0856 89.4829C55.8906 89.3787 55.7242 89.2282 55.6009 89.0447C55.4777 88.8611 55.4014 88.6501 55.3788 88.4301C55.3562 88.2102 55.388 87.9881 55.4713 87.7833C55.5547 87.5785 55.687 87.3973 55.8568 87.2557C56.0265 87.114 56.2285 87.0162 56.4449 86.9709C56.6613 86.9255 56.8855 86.934 57.0978 86.9956C57.3102 87.0572 57.5041 87.17 57.6627 87.3241C57.8212 87.4782 57.9395 87.6689 58.0071 87.8794C58.1175 88.1377 58.1417 88.4248 58.076 88.698C58.0104 88.9711 57.8585 89.2159 57.6428 89.3959C57.4271 89.5759 57.1591 89.6815 56.8786 89.6972C56.5981 89.7129 56.32 89.6377 56.0856 89.4829ZM102.15 74.9786C100.908 75.0349 99.6463 75.2884 98.4749 74.7386C97.2081 74.1461 97.0363 72.7954 97.0199 71.5406C96.9831 68.8256 96.8699 66.0776 97.0303 63.1039C97.0506 62.7289 96.4439 62.8099 96.4041 63.1459C96.1089 66.32 96.0748 69.513 96.3021 72.6926C96.3495 73.307 96.5588 73.8978 96.9085 74.4051C97.2583 74.9124 97.7361 75.3181 98.2934 75.5809C99.5839 76.0986 101.021 76.1157 102.324 75.6289C102.688 77.1054 102.943 78.6067 103.087 80.1207C103.097 80.196 103.134 80.2653 103.191 80.3159C103.247 80.3665 103.32 80.395 103.396 80.3961C103.472 80.3973 103.546 80.3711 103.604 80.3223C103.663 80.2735 103.701 80.2054 103.714 80.1304C104.014 78.3349 103.114 75.4586 102.407 73.7854C102.376 73.7141 102.319 73.6576 102.247 73.6277C102.176 73.5977 102.095 73.5968 102.023 73.6249C101.951 73.6531 101.892 73.7082 101.859 73.7787C101.827 73.8492 101.823 73.9295 101.848 74.0029C101.957 74.3254 102.058 74.6509 102.15 74.9786ZM111.67 74.2106C111.635 74.1372 111.574 74.0799 111.498 74.0506C111.422 74.0213 111.338 74.0223 111.263 74.0533C111.188 74.0844 111.128 74.1432 111.095 74.2175C111.062 74.2917 111.059 74.3758 111.087 74.4521C111.577 75.8462 111.926 77.2863 112.127 78.7504C112.147 78.8185 112.191 78.8772 112.251 78.916C112.311 78.9548 112.382 78.9711 112.453 78.9621C112.523 78.9531 112.588 78.9193 112.636 78.8668C112.684 78.8143 112.712 78.7465 112.714 78.6754C112.657 77.1337 112.302 75.6176 111.67 74.2106ZM89.5881 115.119C84.3696 115.186 77.9976 115.158 72.9786 115.22C56.4164 115.425 39.8534 115.677 23.2911 115.857C17.2019 115.924 10.4916 116.14 4.57185 116.204C4.16385 116.208 4.1271 116.718 4.5576 116.738C9.9411 116.991 15.7326 116.695 21.1634 116.638C37.7264 116.463 54.2899 116.257 70.8539 116.019C76.4736 115.944 83.9924 116.003 89.5724 115.674C89.9924 115.65 90.0411 115.113 89.5881 115.119ZM6.09735 120.785C11.0249 121.132 17.3706 120.688 22.3574 120.604C33.8219 120.41 45.2861 120.206 56.7501 119.994C67.2366 119.812 79.0746 119.619 89.3204 119.344C89.7194 119.333 89.7524 118.86 89.3309 118.863C78.9059 118.949 67.3394 119.145 56.9309 119.319C46.0993 119.499 35.2679 119.684 24.4364 119.873C18.8474 119.97 11.4396 120.248 6.11235 120.285C5.6976 120.288 5.6556 120.754 6.09735 120.785ZM16.4474 103.304C16.4852 102.517 16.4761 101.729 16.4204 100.943C18.9186 100.988 22.5404 101.176 24.9704 101.073C25.1294 103.813 25.4579 108.078 25.4324 111.579C22.7464 112.265 19.9533 112.429 17.2056 112.059C16.8771 112.029 16.7504 112.564 17.0886 112.641C20.018 113.229 23.0447 113.117 25.9229 112.315C26.0131 112.297 26.095 112.249 26.1564 112.181C26.2177 112.112 26.2552 112.025 26.2634 111.933C26.2656 108.573 26.0884 105.216 25.7324 101.874C25.5719 100.381 25.6829 100.355 24.0291 100.256C21.7589 100.12 19.1294 100.175 16.8891 100.223C16.0199 100.241 15.6389 100.073 15.5646 100.991C15.533 101.616 15.539 102.242 15.5826 102.866C13.8869 100.916 10.7376 101.979 10.0424 104.421C9.17085 107.475 11.8424 110.518 14.4599 108.996C14.7531 108.825 14.4974 108.34 14.1599 108.471C11.8694 109.336 10.0881 106.354 10.9619 104.442C12.0869 101.973 14.8619 103.107 15.6119 103.952C15.6614 106.468 15.6419 109.013 15.8489 111.519C15.8594 111.59 15.8945 111.654 15.9479 111.701C16.0013 111.747 16.0696 111.774 16.1406 111.775C16.2116 111.776 16.2807 111.752 16.3356 111.707C16.3906 111.662 16.4278 111.599 16.4406 111.529C16.5899 108.814 16.4751 106.029 16.4496 103.304H16.4474ZM75.7551 112.432C69.2346 112.473 62.6969 112.752 56.1726 112.882C51.5669 112.974 46.9851 112.752 43.3739 109.492C43.0739 109.221 42.6921 109.656 42.9546 109.947C46.1879 113.535 51.5151 113.781 56.0001 113.7C62.8566 113.582 69.7326 113.432 76.5883 113.238C78.1686 113.193 78.8384 112.354 77.5379 111.213C76.5076 110.294 75.3598 109.517 74.1246 108.901C71.8006 107.684 69.1964 107.101 66.5751 107.212C59.6001 107.417 52.3251 107.423 45.2376 107.504C43.1909 107.526 41.5626 107.504 40.4781 109.563C39.9946 110.563 39.7319 111.655 39.7079 112.766C39.7018 112.845 39.7264 112.923 39.7765 112.984C39.8266 113.045 39.8984 113.085 39.9769 113.095C40.0554 113.104 40.1346 113.083 40.1981 113.036C40.2615 112.989 40.3043 112.919 40.3176 112.841C40.483 111.934 40.7308 111.045 41.0579 110.184C42.0209 108.03 43.7661 108.297 45.7476 108.273C52.6716 108.188 59.6226 108.19 66.5406 108.04C68.8377 107.831 71.1468 108.28 73.1976 109.336C74.3384 109.867 75.4176 110.52 76.4159 111.286C77.6534 112.236 76.8044 112.425 75.7574 112.432H75.7551ZM41.0121 95.0959C41.0525 95.0228 41.0632 94.9369 41.042 94.8561C41.0207 94.7753 40.9692 94.7058 40.898 94.662C40.8268 94.6183 40.7415 94.6037 40.6598 94.6212C40.5781 94.6387 40.5063 94.6871 40.4594 94.7562C38.5506 97.5567 34.3551 104.759 34.4459 108.264C34.5096 110.733 36.5234 111.459 38.6181 111.913C38.695 111.935 38.7776 111.926 38.8477 111.888C38.9178 111.849 38.9697 111.784 38.992 111.707C39.0143 111.63 39.0051 111.548 38.9665 111.478C38.9279 111.408 38.863 111.356 38.7861 111.333C37.0769 110.833 35.2304 110.191 35.2821 108.096C35.3661 104.659 39.4566 97.9654 41.0121 95.0959ZM54.3119 95.3246C52.3881 97.9256 51.2639 103.091 51.3644 106.31C51.3634 106.389 51.3927 106.465 51.4461 106.522C51.4996 106.58 51.5731 106.615 51.6516 106.62C51.73 106.625 51.8075 106.6 51.8681 106.55C51.9286 106.5 51.9677 106.428 51.9771 106.35C52.4189 101.258 53.2581 99.9514 54.8841 95.6021C55.0161 95.2504 54.5211 95.0419 54.3119 95.3254V95.3246ZM72.4408 98.0442C70.3244 96.7059 67.844 96.0595 65.3436 96.1947C63.0569 96.2637 60.1259 96.9896 58.3731 98.5947C58.1211 98.8256 58.3596 99.2951 58.6994 99.1309C60.9696 98.0321 62.6534 97.2289 65.3196 97.1014C67.6808 96.9963 70.0273 97.5223 72.1176 98.6254C72.1931 98.6542 72.2764 98.6548 72.3523 98.6271C72.4282 98.5994 72.4916 98.5453 72.5309 98.4747C72.5701 98.4041 72.5826 98.3217 72.5661 98.2427C72.5496 98.1636 72.5051 98.0931 72.4408 98.0442ZM66.9996 98.1132C66.2531 97.9572 65.4806 97.977 64.7431 98.1709C64.0056 98.3648 63.3233 98.7277 62.7501 99.2307C61.4601 100.599 61.6693 102.331 61.8779 104.031C61.9304 104.455 62.5311 104.35 62.5214 103.943C62.4906 102.604 62.4801 100.884 63.4709 99.8434C64.4414 98.8226 65.7899 99.0267 67.0033 98.7312C67.0788 98.7216 67.1482 98.6847 67.1983 98.6274C67.2485 98.5702 67.2759 98.4966 67.2754 98.4205C67.2749 98.3444 67.2466 98.2711 67.1958 98.2145C67.145 98.1579 67.0752 98.1218 66.9996 98.1132ZM67.5441 99.8772C66.3681 99.8907 65.0346 100.627 64.8576 101.882C64.6926 103.048 65.5709 104.623 66.2159 105.564C66.2582 105.632 66.3251 105.68 66.4025 105.7C66.4799 105.719 66.5617 105.707 66.6306 105.667C66.6996 105.627 66.7503 105.562 66.7722 105.485C66.794 105.409 66.7852 105.326 66.7476 105.256C66.2485 104.319 65.9326 103.295 65.8168 102.239C65.7284 101.025 66.6824 100.759 67.6296 100.481C67.6995 100.459 67.7593 100.413 67.7984 100.351C67.8375 100.289 67.8533 100.215 67.843 100.143C67.8328 100.07 67.7971 100.004 67.7423 99.9551C67.6876 99.9064 67.6173 99.8788 67.5441 99.8772ZM137.894 80.6951C136.519 80.3374 133.403 80.4701 131.85 80.4701C129.83 80.4368 127.811 80.5267 125.803 80.7394C125.735 80.7554 125.676 80.794 125.634 80.8488C125.592 80.9035 125.57 80.9711 125.572 81.04C125.574 81.109 125.6 81.1752 125.645 81.2274C125.69 81.2796 125.752 81.3146 125.82 81.3266C127.827 81.4376 129.849 81.3897 131.859 81.4016C133.456 81.4107 136.451 81.5479 137.82 81.4474C138.182 81.4241 138.294 80.7994 137.893 80.6951H137.894ZM139.07 91.1127C136.468 91.1876 134.203 91.0331 131.763 91.0812C129.307 91.1292 126.83 91.1562 124.384 91.3812C124.032 91.4127 124.009 91.9954 124.372 92.0164C126.799 92.1537 129.247 92.1034 131.677 92.0674C134.141 92.115 136.605 92.0216 139.059 91.7877C139.429 91.7404 139.464 91.1007 139.069 91.1127H139.07ZM139.85 101.463C137.515 101.163 134.114 101.504 131.645 101.545C128.875 101.591 126.095 101.559 123.331 101.76C123.25 101.765 123.174 101.801 123.118 101.86C123.063 101.919 123.032 101.998 123.033 102.079C123.034 102.16 123.066 102.237 123.122 102.296C123.179 102.354 123.256 102.388 123.337 102.391C126.102 102.636 128.881 102.711 131.656 102.616C134.022 102.578 137.431 102.301 139.855 102.162C140.197 102.146 140.217 101.511 139.85 101.464V101.463ZM138.327 111.969C135.689 111.974 131.748 111.981 129.003 112.071C125.872 112.174 122.754 112.336 119.634 112.596C119.287 112.626 119.295 113.209 119.649 113.216C122.758 113.274 125.86 113.235 128.97 113.135C131.735 113.046 135.757 113.169 138.345 112.629C138.709 112.556 138.71 111.97 138.326 111.971L138.327 111.969ZM81.1251 50.1146C81.8121 50.6869 85.7713 82.9189 85.2231 83.6637C84.6749 84.4084 24.1034 84.6941 23.1306 84.0071C22.1579 83.3201 18.9501 49.8671 19.2906 49.3039C19.8374 48.4076 80.4344 49.5424 81.1214 50.1146H81.1251ZM34.6251 67.6646C34.0205 67.6999 33.4144 67.7036 32.8094 67.6759C31.2899 67.5559 31.1054 66.9026 32.7066 66.6889C33.3544 66.621 34.0053 66.588 34.6566 66.5899C36.0576 66.5584 36.1641 67.6189 34.6229 67.6646H34.6251ZM31.5614 62.8504C32.4567 62.7321 33.3628 62.718 34.2614 62.8084C35.1614 62.9081 35.2364 63.9596 34.1631 63.8801C33.3749 63.8209 32.6579 63.8434 31.9019 63.8509C30.1881 63.8681 30.6359 63.0386 31.5629 62.8504H31.5614ZM25.7414 54.7091C26.5116 54.625 27.2856 54.5794 28.0604 54.5726C29.4366 54.5344 29.2191 55.5476 28.4031 55.6294C27.4737 55.719 26.5377 55.714 25.6094 55.6144C25.1039 55.5326 25.0094 54.8036 25.7414 54.7091ZM26.1539 59.1491C27.0644 58.9 28.0099 58.8031 28.9521 58.8626C29.3391 58.8514 30.1784 58.7561 30.1859 59.3636C30.1934 59.9936 29.3346 59.9276 28.9304 59.9404C28.1924 59.9621 27.1799 59.9599 26.4554 59.9134C25.9476 59.8811 25.6521 59.3629 26.1509 59.1491H26.1539ZM31.3289 78.3274C30.2653 78.4394 29.1942 78.4605 28.1271 78.3904C28.0276 78.3703 27.9374 78.3182 27.8703 78.242C27.8033 78.1657 27.7631 78.0696 27.7558 77.9684C27.7486 77.8671 27.7748 77.7663 27.8303 77.6813C27.8858 77.5963 27.9677 77.5319 28.0634 77.4979C29.1488 77.3673 30.2416 77.3064 31.3349 77.3156C32.6406 77.2466 32.8454 78.1886 31.3289 78.3274ZM32.6556 70.0024C33.5543 69.8535 34.4642 69.7837 35.3751 69.7939C36.8706 69.7459 36.9891 70.8146 35.3751 70.8694C34.462 70.945 33.5436 70.9314 32.6331 70.8289C32.5436 70.8013 32.4657 70.7451 32.4112 70.6689C32.3567 70.5928 32.3287 70.5009 32.3314 70.4073C32.3342 70.3137 32.3675 70.2236 32.4263 70.1507C32.4851 70.0779 32.5662 70.0263 32.6571 70.0039L32.6556 70.0024ZM36.6644 74.2219C35.7516 74.4521 34.8058 74.5219 33.8691 74.4281C32.6241 74.3801 32.2011 73.5859 33.4049 73.4944C34.3538 73.4035 35.307 73.3657 36.2601 73.3811C36.9066 73.4209 37.7541 73.7959 36.6644 74.2226V74.2219ZM85.2816 92.5587C77.4521 92.6807 69.6224 92.7829 61.7924 92.8654C50.9174 92.9794 40.0424 93.0311 29.1674 93.1046C19.1511 93.1721 18.0554 89.8294 16.8576 80.5466C15.5631 70.5146 14.5176 59.9111 13.9326 49.7891C13.5854 43.7651 16.4159 43.7674 21.5241 43.8484C31.6056 44.0074 41.6874 44.1649 51.7694 44.3209C60.3479 44.4596 68.8761 44.6156 77.5108 44.6876C83.9841 44.7416 85.2021 46.6691 86.3414 52.6519C87.2084 57.2059 87.8076 61.8949 88.3551 66.5741C89.1051 72.9791 89.9796 80.0854 90.7716 86.0787C90.8166 86.4199 91.4114 86.3846 91.3851 86.0299C90.9066 79.5949 89.8176 72.7999 89.0226 66.3514C88.4331 61.5701 87.9276 56.6839 86.9766 51.9596C85.7729 45.9836 83.9669 44.0434 77.6016 44.0261C68.3084 44.0006 59.0106 43.6759 49.7189 43.5296C40.0319 43.3766 30.3444 43.2266 20.6564 43.0796C15.2706 43.0009 12.9314 44.0194 13.1669 49.8056C13.5704 59.7529 14.7869 70.8529 16.0709 80.7371C17.3459 90.5442 18.7139 93.7947 29.1299 93.7872C35.5949 93.7822 42.0601 93.7609 48.5256 93.7234C60.7626 93.6604 72.9981 93.5321 85.2321 93.3386C85.7354 93.3341 85.7856 92.5504 85.2816 92.5594V92.5587ZM110.29 57.7286C112.723 56.6119 115.815 57.4421 114.985 62.4536C114.154 67.4651 112.895 72.8734 110.662 73.7321C108.43 74.5909 105.403 73.5416 104.023 69.7061C105.625 69.4211 105.91 67.1771 105.58 66.1369C105.465 65.8257 105.265 65.5533 105.002 65.3508C104.739 65.1483 104.425 65.0239 104.095 64.992C103.765 64.9602 103.432 65.022 103.136 65.1706C102.839 65.3191 102.591 65.5482 102.418 65.8316C101.599 64.8971 101.107 63.7213 101.016 62.4821C97.2088 61.9654 92.0001 60.1624 94.7751 54.4946C97.5501 48.8269 109.145 53.6644 110.29 57.7294V57.7286ZM104.348 55.7606C102.948 55.2122 101.485 54.8413 99.9921 54.6566C98.6114 54.5764 96.8241 54.8959 96.5219 56.5121C96.4521 56.8871 95.9466 56.7094 95.9219 56.4026C95.7719 54.4714 97.8516 53.6276 99.4536 53.6126C101.266 53.5991 103.454 54.0356 104.871 55.2326C105.258 55.5596 104.941 55.9504 104.348 55.7614V55.7606ZM142.377 71.9606C139.318 68.9689 134.815 68.7964 130.793 68.8046C127.359 68.8121 123.388 68.8616 120.607 71.1866C117.577 73.7209 117.528 77.8481 117.313 81.4721C117.061 85.7171 116.474 89.9356 115.56 94.0886C113.438 103.5 109.769 112.493 104.703 120.703C104.478 121.073 105.003 121.485 105.251 121.113C109.793 114.185 113.212 106.584 115.381 98.5902C117.008 92.6639 118.005 86.5825 118.355 80.4469C118.58 76.8469 118.944 72.9514 122.555 71.1116C125.469 69.6266 130.167 69.6919 133.401 69.8179C137.498 69.9776 141.524 71.0246 143.391 75.0679C145.341 79.2949 145.75 89.1424 145.798 93.7789C145.827 102.695 144.74 111.579 142.561 120.224C142.312 121.281 143.059 121.665 143.335 120.706C145.516 112.843 146.656 104.727 146.728 96.5674C146.83 90.5164 146.784 76.2754 142.377 71.9621V71.9606Z" fill="#2A2928"/>
<path d="M123.147 57.1395C122.928 57.7461 122.541 58.2783 122.033 58.6748C121.524 59.0713 120.913 59.3159 120.271 59.3805C119.642 59.5054 118.991 59.4617 118.384 59.2538C117.777 59.046 117.236 58.6814 116.816 58.197C116.514 57.7156 116.41 57.1359 116.526 56.5795C116.642 56.0232 116.97 55.5335 117.439 55.2135C118.432 54.5308 119.645 54.246 120.837 54.4155C121.176 54.4201 121.509 54.4972 121.815 54.6415C122.121 54.7858 122.393 54.994 122.612 55.2521C122.831 55.5102 122.992 55.8122 123.084 56.1378C123.177 56.4633 123.198 56.8049 123.147 57.1395ZM43.4052 55.5645C46.8057 55.5457 50.8354 55.7377 54.1512 55.4145C54.2229 55.3998 54.2869 55.36 54.3319 55.3023C54.3769 55.2445 54.3998 55.1727 54.3966 55.0996C54.3933 55.0265 54.3641 54.9569 54.3142 54.9034C54.2642 54.8499 54.1969 54.816 54.1242 54.8077C50.6577 54.8467 46.6992 54.771 43.2664 54.7935C39.6874 54.8167 36.0957 54.774 32.5204 54.939C32.1709 54.9555 32.2002 55.539 32.5474 55.5502C36.1609 55.674 39.7894 55.5825 43.4052 55.5622V55.5645ZM57.0777 55.5C60.4887 55.7662 67.6354 55.425 71.5857 55.41C72.0012 55.41 71.9337 54.7995 71.5347 54.7815C67.1637 54.5797 61.6347 54.9255 57.1062 54.8932C56.7619 54.8895 56.7312 55.4715 57.0777 55.5ZM43.7494 59.682C44.1349 59.682 44.0367 59.0985 43.6939 59.0482C42.1272 58.9571 40.5566 58.9511 38.9892 59.0302C37.4434 59.0302 35.9614 59.076 34.4142 59.0302C34.3748 59.0286 34.3354 59.0347 34.2984 59.0483C34.2614 59.0619 34.2274 59.0826 34.1984 59.1093C34.1694 59.136 34.1459 59.1682 34.1294 59.204C34.1128 59.2398 34.1034 59.2784 34.1018 59.3178C34.1002 59.3572 34.1063 59.3966 34.1199 59.4336C34.1335 59.4706 34.1542 59.5046 34.1809 59.5336C34.2076 59.5626 34.2398 59.5861 34.2756 59.6026C34.3113 59.6192 34.35 59.6286 34.3894 59.6302C35.9644 59.7127 37.4697 59.7277 39.0477 59.7382C40.2559 59.7487 42.5517 59.6932 43.7494 59.682ZM53.7289 59.8702C55.7036 59.9531 57.6812 59.9344 59.6539 59.814C60.0469 59.769 60.0199 59.1292 59.6344 59.1277C57.7347 59.121 55.4629 59.0917 53.6127 59.103C51.6507 59.115 49.6527 59.0325 47.6974 59.1975C47.3502 59.2267 47.3727 59.7787 47.7147 59.8057C49.6999 59.9647 51.7339 59.868 53.7289 59.8702ZM63.6664 59.3182C63.5869 59.3168 63.51 59.3471 63.4527 59.4024C63.3955 59.4576 63.3626 59.5334 63.3612 59.613C63.3598 59.6925 63.3901 59.7694 63.4453 59.8266C63.5006 59.8839 63.5764 59.9168 63.6559 59.9182C65.8564 60.0105 68.0809 59.8732 70.2807 59.8237C72.2974 59.7787 74.7477 59.7592 76.7914 59.589C77.1664 59.5582 77.0524 58.959 76.7164 58.968C74.6757 59.0242 72.1977 59.0175 70.1914 59.0745C68.0232 59.1382 65.8294 59.118 63.6664 59.3182ZM39.5839 62.8552C39.1707 62.8627 39.2487 63.4747 39.6462 63.4852C43.5402 63.5887 47.4372 63.5932 51.3327 63.6165C55.1134 63.639 59.2077 63.72 63.0049 63.612C63.3754 63.6015 63.4092 62.9505 63.0252 62.9497C59.2084 62.9415 55.1382 62.847 51.3559 62.8335C47.4327 62.82 43.5072 62.7877 39.5839 62.8552ZM74.4124 63.5512C74.7027 63.5587 74.7972 63.039 74.4942 62.9512C73.7052 62.7315 66.8847 62.841 66.1909 62.9415C65.8317 62.9932 65.8024 63.585 66.1909 63.6037C68.5429 63.723 71.9134 63.4867 74.4124 63.5512ZM40.4592 67.5C42.2704 67.6005 44.0952 67.6065 45.9087 67.6275C47.4717 67.6455 49.6362 67.5945 51.2539 67.6357C51.6567 67.6455 51.6027 67.0132 51.2307 66.957C49.4162 66.8202 47.5953 66.7911 45.7774 66.87C44.0007 66.861 42.2149 66.8355 40.4389 66.9007C40.0954 66.9165 40.1209 67.4842 40.4592 67.5ZM73.8417 67.4145C74.1904 67.4145 74.1949 66.837 73.8274 66.7875C71.7327 66.5047 67.7277 66.7762 65.3667 66.7965C62.5387 66.821 59.7109 66.8435 56.8834 66.864C56.5084 66.864 56.4229 67.4235 56.8159 67.4587C59.6562 67.7137 62.5279 67.59 65.3779 67.593C67.2214 67.5975 71.6517 67.419 73.8417 67.4175V67.4145ZM73.9549 69.999C72.3889 70.02 70.8282 70.0432 69.2644 70.1257C68.9157 70.1437 68.9029 70.7355 69.2584 70.7445C70.7952 70.7872 72.3274 70.776 73.8657 70.7587C75.2554 70.743 77.0907 70.5525 78.5592 70.6612C78.9342 70.689 78.9582 70.0327 78.5659 69.9862C77.0299 69.9034 75.4904 69.9087 73.9549 70.002V69.999ZM66.0567 74.301C67.8502 74.4006 69.6482 74.388 71.4402 74.2635C72.9154 74.2282 75.5217 74.367 76.8769 74.0115C77.2827 73.9057 77.0869 73.3672 76.7382 73.35C75.2247 73.275 73.0242 73.4452 71.3847 73.5C69.6094 73.5585 67.8709 73.6605 66.0957 73.6762C65.7439 73.6777 65.6997 74.2642 66.0567 74.301ZM56.1327 77.5845C53.7132 77.2905 48.9394 77.4802 46.3459 77.4592C43.1209 77.433 40.0114 77.5035 36.7857 77.4112C36.3987 77.4 36.3297 77.9872 36.7242 78.0165C39.9717 78.2557 43.1134 78.1875 46.3692 78.2182C48.6432 78.24 53.9629 78.615 56.1537 78.2032C56.2268 78.1889 56.2925 78.149 56.3389 78.0907C56.3854 78.0324 56.4095 77.9594 56.4069 77.8849C56.4044 77.8104 56.3754 77.7392 56.3251 77.6842C56.2749 77.6291 56.2066 77.5938 56.1327 77.5845ZM76.9272 77.7105C74.5894 77.427 71.0772 77.7622 68.5602 77.751C66.0432 77.7397 62.7049 77.574 60.2974 77.658C59.9044 77.6715 60.0154 78.2257 60.3364 78.2887C62.5407 78.7215 66.3409 78.6217 68.7019 78.6292C71.0224 78.6375 74.6869 78.4087 76.9677 78.3555C77.3442 78.3465 77.2902 77.7547 76.9249 77.7105H76.9272ZM41.7087 70.7865C45.6229 70.8735 49.5394 70.8412 53.4537 70.8337C57.2307 70.827 61.3714 70.9927 65.0989 70.7527C65.4912 70.7272 65.4439 70.0537 65.0614 70.0672C61.2537 70.2067 57.1864 70.0477 53.4139 70.0672C49.5289 70.0837 45.6409 70.077 41.7574 70.1872C41.3749 70.1947 41.3142 70.7775 41.7087 70.7865ZM59.7762 73.5037C57.6252 73.2697 53.2512 73.4752 50.9262 73.4872C47.9449 73.503 44.9742 73.5945 41.9937 73.5622C41.6569 73.5622 41.6187 74.133 41.9599 74.1622C44.8962 74.3947 47.8384 74.247 50.7829 74.2552C52.7239 74.2612 57.7579 74.2605 59.7357 74.1847C60.0882 74.175 60.1999 73.5495 59.7762 73.5037ZM88.0084 92.0595C87.4825 92.9516 87.0026 93.87 86.5707 94.8112C85.5968 97.1074 84.819 99.4818 84.2457 101.909C84.1497 102.268 83.5962 102.134 83.6247 101.78C83.7414 100.481 83.9978 99.199 84.3897 97.9552C81.5247 96.9405 77.7897 96.9277 74.7094 97.0897C73.0054 97.8052 70.4727 102.357 71.4169 106.078C74.7109 108.908 82.2372 112.57 89.6682 112.644C90.6169 112.539 91.5539 112.347 92.4672 112.069C95.73 111.095 98.5733 109.057 100.545 106.281C102.475 103.483 103.488 100.155 103.444 96.756C103.444 96.6748 103.476 96.597 103.534 96.5396C103.591 96.4822 103.669 96.45 103.75 96.45C103.831 96.45 103.909 96.4822 103.967 96.5396C104.024 96.597 104.056 96.6748 104.056 96.756C104.216 98.7946 103.957 100.844 103.295 102.779C102.178 106.164 99.9374 109.064 96.9447 111C95.4406 111.973 93.7842 112.687 92.0442 113.113C91.623 115.24 91.3399 117.392 91.1967 119.556C93.0004 120.831 101.156 121.173 102.802 119.899C108.768 115.282 116.442 95.1892 116.442 79.71C101.286 79.1617 92.6119 85.2922 88.0084 92.0595ZM145.775 47.5642C144.364 52.0642 138.183 52.8615 134.431 48.9435C135.556 56.9047 121.219 55.461 122.581 49.485C118.15 53.6947 113.506 47.4427 118.306 44.775C113.556 44.9415 113.026 40.521 113.843 37.65C114.764 34.4115 120.012 31.356 123.264 35.025C123.347 28.7152 131.514 27.1897 137.936 30.3157C143.873 33.207 143.355 38.2777 141.062 40.4865C144.144 39.6262 147.186 43.0657 145.775 47.5642ZM125.465 39.3232C124.003 39.9316 122.63 40.7333 121.381 41.7067C120.894 42.1237 121.038 42.2242 121.435 42.753C122.29 43.8239 123.324 44.7387 124.491 45.4567C125.571 46.158 126.128 45.2745 125.19 44.616C124.168 43.9103 123.187 43.1479 122.25 42.3322C123.474 41.574 124.65 40.9822 125.871 40.2795C126.958 39.657 126.757 38.8762 125.466 39.3232H125.465ZM131.923 37.9042C130.989 39.2212 130.14 40.5967 129.381 42.0225C128.834 43.0492 127.492 45.3667 127.312 46.3807C127.237 46.8225 127.8 46.971 128.056 46.686C128.703 45.9675 129.787 43.5187 130.332 42.4995C131.082 41.0917 131.802 39.666 132.472 38.2177C132.498 38.1467 132.498 38.0687 132.472 37.9976C132.447 37.9265 132.396 37.8668 132.331 37.8293C132.265 37.7917 132.188 37.7786 132.114 37.7923C132.039 37.806 131.972 37.8457 131.924 37.9042H131.923ZM137.235 41.046C136.816 40.6841 136.361 40.3669 135.876 40.0995C135.257 39.744 134.585 39.4893 133.885 39.345C133.805 39.3209 133.72 39.3265 133.644 39.3609C133.568 39.3953 133.507 39.456 133.472 39.5319C133.438 39.6077 133.432 39.6935 133.456 39.7733C133.48 39.8532 133.532 39.9216 133.602 39.966C134.199 40.2466 134.78 40.5588 135.344 40.9012C135.772 41.1758 136.182 41.4763 136.573 41.8012C135.764 42.4942 134.457 43.5735 133.689 44.3115C132.879 45.0885 133.12 46.0365 134.348 45.0615C134.913 44.6115 137.096 42.789 137.388 42.4305C137.808 41.9122 137.882 41.595 137.235 41.046H137.235Z" fill="#115711"/>
</svg>
