<svg width="286" height="259" viewBox="0 0 286 259" fill="none" xmlns="http://www.w3.org/2000/svg">
<path d="M119.705 109.648C120.545 110.173 120.59 109.273 120.185 108.928C119.928 108.706 119.612 108.566 119.276 108.523C118.94 108.48 118.599 108.538 118.295 108.688C117.275 109.183 117.725 109.813 118.1 109.573C118.342 109.416 118.627 109.339 118.915 109.352C119.202 109.366 119.479 109.469 119.705 109.648ZM118.79 104.833C119.202 104.389 119.718 104.054 120.291 103.858C120.864 103.661 121.477 103.61 122.075 103.708C122.975 103.708 122.9 102.808 122.18 102.613C121.431 102.54 120.677 102.664 119.99 102.972C119.304 103.28 118.709 103.761 118.265 104.368C118.235 104.402 118.211 104.442 118.196 104.486C118.181 104.529 118.175 104.575 118.178 104.621C118.18 104.667 118.192 104.712 118.212 104.754C118.232 104.795 118.261 104.832 118.295 104.863C118.33 104.893 118.37 104.917 118.413 104.932C118.457 104.947 118.503 104.953 118.549 104.95C118.595 104.947 118.64 104.936 118.681 104.915C118.722 104.895 118.759 104.867 118.79 104.833ZM128.435 110.728C128.553 110.645 128.686 110.588 128.827 110.559C128.968 110.53 129.113 110.531 129.253 110.56C129.394 110.59 129.527 110.648 129.644 110.731C129.761 110.814 129.86 110.92 129.935 111.043C129.994 111.139 130.088 111.208 130.197 111.236C130.306 111.264 130.422 111.248 130.52 111.193C130.618 111.136 130.691 111.043 130.722 110.934C130.752 110.824 130.739 110.707 130.685 110.608C130.552 110.402 130.377 110.227 130.173 110.093C129.968 109.959 129.737 109.869 129.496 109.83C129.254 109.79 129.007 109.802 128.77 109.863C128.533 109.925 128.312 110.035 128.12 110.188C127.67 110.473 128 110.998 128.435 110.728ZM129.965 104.398C131.57 104.548 133.385 105.553 133.55 106.918C133.55 107.293 134.165 107.233 134.195 106.918C134.33 104.713 131.51 103.378 130.145 103.363C129.065 103.318 129.26 104.323 129.965 104.398ZM121.73 116.023C121.888 116.338 122.152 116.587 122.476 116.727C122.8 116.867 123.162 116.889 123.5 116.788C124.055 116.593 123.65 115.783 123.11 115.963C122.57 116.143 122.405 115.483 122.495 114.688C122.735 112.978 123.62 110.188 123.995 108.403C124.024 108.325 124.022 108.239 123.988 108.163C123.955 108.087 123.892 108.028 123.815 107.998C123.737 107.972 123.653 107.976 123.578 108.01C123.503 108.043 123.443 108.103 123.41 108.178C122.691 109.928 122.133 111.741 121.745 113.593C121.492 114.382 121.487 115.23 121.73 116.023ZM132.77 122.728C133.278 121.285 133.457 119.748 133.295 118.228C133.33 118.125 133.328 118.014 133.289 117.913C133.25 117.812 133.178 117.727 133.084 117.674C132.99 117.621 132.88 117.602 132.773 117.621C132.667 117.64 132.57 117.695 132.5 117.778C131.559 118.826 130.335 119.58 128.975 119.95C127.615 120.32 126.178 120.29 124.835 119.863C124.475 119.743 124.22 120.268 124.385 120.988C125.27 124.948 130.85 126.688 132.77 122.728ZM132.5 119.188C132.74 125.968 126.5 125.293 125.15 120.688C126.401 121.087 127.734 121.159 129.021 120.896C130.307 120.633 131.505 120.045 132.5 119.188ZM76.385 92.0677C75.77 92.0677 75.425 94.6777 76.19 94.6477C76.955 94.6177 77.42 91.9477 76.385 92.0677ZM90.41 100.483C90.41 99.6127 89.855 99.5527 89.495 99.9427C88.6851 100.824 87.6882 101.514 86.5774 101.96C85.4665 102.407 84.2698 102.599 83.075 102.523C82.175 102.358 82.01 102.523 82.265 103.678C83.39 108.283 90.5 109.243 90.41 100.483ZM89.48 101.173C89.18 109.033 83.15 106.048 82.955 103.273C85.025 103.873 87.92 102.538 89.48 101.188V101.173ZM86.3 95.1877C87.005 95.0677 87.125 92.7127 86.3 92.7127C85.475 92.7127 85.55 95.2777 86.3 95.1877ZM77.735 86.1877C77.0264 86.1946 76.3347 86.4046 75.7418 86.7927C75.1489 87.1809 74.6798 87.731 74.39 88.3777C74.3762 88.4645 74.391 88.5534 74.4322 88.631C74.4734 88.7087 74.5387 88.7708 74.6183 88.808C74.6979 88.8453 74.7875 88.8557 74.8735 88.8376C74.9594 88.8195 75.0372 88.7739 75.095 88.7077C75.376 88.2883 75.7463 87.9363 76.1794 87.6769C76.6125 87.4176 77.0977 87.2573 77.6 87.2077C78.845 87.1177 78.74 86.1877 77.735 86.1877ZM81.5 100.558C81.5998 100.512 81.68 100.432 81.7265 100.332C81.773 100.233 81.7827 100.12 81.7539 100.014C81.7252 99.9077 81.6598 99.8153 81.5694 99.7529C81.479 99.6904 81.3694 99.662 81.26 99.6727C81.0458 99.7582 80.8107 99.7768 80.5858 99.7259C80.3608 99.675 80.1566 99.5571 80 99.3877C79.22 98.3977 80.63 94.0327 81.05 92.9377C81.185 92.5927 80.645 92.3827 80.465 92.6827C79.58 94.1827 77.93 98.8477 79.55 100.183C79.8148 100.409 80.1337 100.562 80.4755 100.628C80.8173 100.694 81.1704 100.669 81.5 100.558ZM86.81 88.3777C87.3935 88.3253 87.9778 88.4696 88.4698 88.7876C88.9617 89.1057 89.3332 89.5791 89.525 90.1327C89.705 90.7177 90.755 90.3577 89.885 88.8427C89.5764 88.377 89.1636 87.9896 88.6794 87.711C88.1952 87.4324 87.6527 87.2704 87.095 87.2377C85.835 87.2377 86.18 88.4227 86.81 88.3777ZM163.43 57.5527C164.585 54.1477 166.82 54.5527 166.265 53.5627C165.71 52.5727 162.995 54.8827 162.77 57.4627C162.74 57.8677 163.31 57.8977 163.43 57.5527ZM178.55 61.8727L177.5 62.5927C176.99 62.9377 177.5 63.7627 178.025 63.3877C179.78 62.1577 180.005 62.2777 178.55 60.1927C177.771 59.108 176.887 58.1031 175.91 57.1927C175.625 56.9377 175.295 57.3577 175.52 57.6277C176.667 58.9394 177.682 60.3613 178.55 61.8727ZM175.7 51.5377C176.525 51.9127 176.045 50.5777 178.79 49.5577C179.495 49.3027 178.7 48.2377 176.84 49.4377C176.345 49.7377 174.8 51.1327 175.7 51.5377Z" fill="#2A2928"/>
<path d="M250.325 87.5377C247.115 85.0477 240.53 82.9477 237.41 82.2427C241.31 77.3827 238.565 75.1177 236.735 76.7077C229.67 82.8277 229.13 80.1277 223.685 83.3977C221.21 84.8977 216.365 89.2027 215.675 91.6477C215.653 91.5906 215.621 91.5382 215.579 91.4937C215.537 91.4492 215.487 91.4134 215.431 91.3884C215.375 91.3633 215.315 91.3494 215.254 91.3476C215.193 91.3458 215.132 91.356 215.075 91.3777C214.999 91.4045 214.932 91.4511 214.88 91.5127C212.623 94.3932 210.53 97.3979 208.61 100.513C202.745 92.0227 192.11 89.3377 186.11 89.6227C186.024 88.1021 185.783 86.5942 185.39 85.1227C190.67 82.9627 194.285 81.4327 193.85 75.1327C193.489 71.6804 192.192 68.3922 190.1 65.6227C186.935 61.1227 186.83 62.5327 184.1 56.6227C184.595 56.3527 185.84 55.9027 185.825 55.2427C185.81 54.5827 185.21 50.5927 183.875 50.0077C183.35 49.7827 181.97 50.3527 181.46 50.5627C180.68 48.6866 179.672 46.9134 178.46 45.2827C182.66 43.9627 181.16 33.9277 178.34 31.4827C170.045 24.2977 151.34 46.4827 148.34 52.9627C146.3 51.7777 140.375 53.3827 140.84 57.9877C141.47 63.5377 150.845 71.8327 152.495 71.3077C153.065 72.8077 154.955 74.3077 156.2 75.3877C159.2 78.1477 160.055 78.6277 161.015 82.7377C161.59 85.203 161.961 87.7115 162.125 90.2377C159.389 90.7332 156.844 91.9796 154.775 93.8377C149.165 84.8377 136.295 82.6927 127.175 87.0577C115.715 92.6077 114.365 107.188 108.32 116.938C105.798 116.229 103.153 116.071 100.565 116.473C99.83 111.973 99.065 107.038 100.82 102.598C101.99 99.5077 106.19 95.9677 103.715 92.8177C105.592 89.0415 106.616 84.8987 106.715 80.6827C112.55 80.7727 111.65 73.6177 104.465 74.6827C106.805 70.5877 101.795 66.4177 98.75 69.4327C98.54 66.5677 97.37 65.9227 94.55 65.4427C92.255 65.0527 89.435 65.6827 88.805 68.2177C87.9757 66.4122 86.474 65.002 84.62 64.2877C88.3794 60.2534 91.034 55.3172 92.3268 49.9565C93.6197 44.5958 93.5071 38.9921 92 33.6877C85.52 12.1027 62.105 8.98271 42.935 12.2827C24.845 15.3877 3.64999 25.0177 0.754988 45.3727C-0.925012 57.1777 5.91499 68.8927 15.755 75.0727C23.0227 79.4336 31.4061 81.5764 39.875 81.2377C41.8696 85.1347 44.9311 88.3842 48.7024 90.6072C52.4738 92.8302 56.7995 93.935 61.175 93.7927C61.565 93.7927 61.565 93.2677 61.385 93.0277C60.725 92.1577 54.35 89.0977 52.97 79.5277C58.8087 78.5404 64.5157 76.8897 69.98 74.6077L70.895 76.0327C67.895 77.5327 69.035 81.1177 72.8 82.5277C71.51 86.3527 70.595 94.9777 70.34 98.8477C70.04 103.603 70.07 109.033 73.625 112.678C74.3787 113.487 75.2848 114.139 76.2913 114.598C77.2977 115.056 78.3848 115.311 79.49 115.348C79.1577 116.701 78.9518 118.082 78.875 119.473C69.68 121.153 58.7 126.448 52.115 133.378C46.9503 126.668 42.4729 119.457 38.75 111.853C37.5546 107.82 36.8791 103.651 36.74 99.4477C36.7093 96.8946 36.9812 94.3468 37.55 91.8577C38.12 89.5927 37.985 87.7327 35.15 89.3827C32.315 91.0327 31.445 93.8827 30.26 96.8827C25.85 92.5927 21.89 94.7827 22.07 98.2777C19.94 98.2777 19.31 101.053 19.4 102.883C18.545 102.883 17.69 104.383 17.555 105.343C17.285 107.653 19.805 113.818 21.56 115.378C21.065 115.753 21.95 123.733 22.07 124.798C23.5392 137.117 26.2582 149.254 30.185 161.023C35.465 177.148 41.33 182.023 58.685 183.523C49.685 189.913 41.645 198.208 40.04 209.668C37.46 228.193 50.225 243.748 66.29 251.323C78.425 257.068 92.165 258.508 105.455 258.523C118.745 258.538 132.11 256.828 144.17 251.233C160.145 243.838 174.17 228.733 173.69 210.193C185.9 210.553 194.015 207.358 197.255 205.693C203.06 202.783 208.175 197.728 209.87 191.323C212.09 182.998 206.795 170.233 203.555 162.043C213.8 161.818 221.015 160.183 224.735 149.578C228.875 137.803 231.38 111.688 230.735 98.7277C230.735 98.7277 231.245 95.4727 231.29 93.7927C235.43 95.4577 235.61 98.8177 237.08 99.7927C237.89 100.333 239.075 99.9427 239.225 99.2527C239.75 96.7477 238.13 93.1027 236.525 91.0927C239.525 92.3677 242.15 95.0377 244.025 96.3127C246.29 97.8127 247.475 96.7777 246.41 94.2277C245.682 92.5093 244.667 90.9268 243.41 89.5477C245.345 89.9677 250.235 92.3677 251.645 90.8377C252.575 89.6827 251.3 88.3027 250.325 87.5377ZM238.1 77.1877C239.765 77.6227 236.93 81.2227 236.315 82.0327C234.601 81.7001 232.856 81.5542 231.11 81.5977C233.585 80.9077 237.32 77.0077 238.1 77.1877ZM183.005 50.9377C184.13 50.3077 184.82 53.9377 184.88 55.0927C184.525 55.3914 184.143 55.6575 183.74 55.8877L181.835 51.3877C182.233 51.2665 182.624 51.1213 183.005 50.9527V50.9377ZM182.87 56.2777L178.64 58.1227C178.025 57.9127 177.14 57.5827 176.54 54.8377C176.54 54.5527 176.54 54.2677 178.235 53.1727C179.09 54.5227 179.825 53.7877 179.42 52.4977C179.915 52.2277 180.425 51.9877 180.92 51.7627C181.625 53.3077 182.255 54.7927 182.87 56.2927V56.2777ZM177.65 45.5677C177.995 46.1827 178.415 46.7977 178.79 47.4127L180.575 50.9527C180.05 51.1927 179.54 51.4477 179.075 51.7177C178.37 50.8477 177.845 51.5377 177.98 52.3327C177.477 52.5607 177.025 52.8863 176.649 53.2906C176.273 53.6949 175.981 54.1697 175.79 54.6877C175.049 54.5124 174.272 54.5615 173.559 54.8286C172.846 55.0957 172.229 55.5687 171.785 56.1877C170.75 55.3627 168.935 56.2927 167.885 56.7127C167.21 55.7377 166.385 55.6477 166.685 57.2227C165.185 58.0177 162.635 58.8727 162.665 60.7777L158.975 61.8277C158.632 59.7796 157.893 57.8181 156.8 56.0527C162.92 50.1877 168.92 46.5277 177.65 45.5827V45.5677ZM168.245 57.5677C169.085 57.2377 170.63 56.5327 171.395 56.7877C171.875 57.8657 172.217 58.9995 172.415 60.1627C172.13 61.6627 166.865 64.1377 165.14 63.8977C164.66 63.5677 163.94 62.9827 163.415 60.5227C164.383 59.4234 165.618 58.5918 167 58.1077C167.39 59.0227 167.825 59.1277 168.08 58.8427C168.2 58.6557 168.277 58.4443 168.306 58.2238C168.335 58.0033 168.314 57.7792 168.245 57.5677ZM162.035 82.9627C160.715 77.2327 158.525 76.4677 154.535 72.7927C152.615 71.0227 152.24 65.6227 155.93 67.3627C156.62 67.6927 157.175 68.4277 157.97 68.2777C159.89 67.8877 159.305 64.2127 159.11 62.7727L162.83 61.7377C163.445 63.8677 164.45 65.3377 167.15 64.5127C168.38 64.1377 173.54 61.8727 173.315 60.2377C173.184 59.0818 172.832 57.9616 172.28 56.9377C174.05 54.9427 175.1 55.7827 175.85 55.7077C176.135 56.8327 177.44 59.2027 179.045 58.8727C180.498 58.4163 181.904 57.8237 183.245 57.1027C183.963 58.7239 184.785 60.2972 185.705 61.8127C179.045 63.8377 172.115 67.2577 168.245 73.2877C165.138 72.8422 162.198 71.6022 159.71 69.6877C159.26 69.3427 157.79 68.6677 158.21 69.6877C160.235 74.8177 166.76 87.3127 172.265 88.3927C175.49 89.0077 181.385 86.8027 184.37 85.6327C184.847 87.9289 185.118 90.2632 185.18 92.6077C182.355 94.7773 178.964 96.0844 175.414 96.3718C171.864 96.6592 168.307 95.9146 165.17 94.2277C164.495 93.8677 163.85 93.4477 163.205 93.0427C163.655 92.0677 162.365 84.3877 162.035 82.9627ZM179.615 70.6177C175.7 74.5027 177.92 76.7827 176.045 77.0077C172.61 77.3827 173.135 71.3977 178.115 68.8627C180.32 67.6927 181.325 68.8627 179.615 70.5877V70.6177ZM158.9 130.078C160.175 120.448 160.205 103.528 155.21 94.6177C157.217 92.9452 159.592 91.773 162.14 91.1977C162.073 91.954 162.108 92.7159 162.245 93.4627C168.125 98.8177 179.18 98.6827 185.84 93.3277C186.063 92.3851 186.139 91.4136 186.065 90.4477C201.515 91.0027 207.365 101.338 208.25 101.158C202.581 110.334 198.561 120.431 196.37 130.993C192.032 128.815 187.93 126.197 184.13 123.178C185.525 120.598 188.135 114.508 186.725 109.843C186.02 107.503 184.49 108.658 183.815 110.503C183.063 112.183 182.133 113.777 181.04 115.258C181.555 112.128 181.35 108.922 180.44 105.883C179.465 102.673 176.75 103.423 176.72 106.468C176.68 108.513 176.459 110.551 176.06 112.558C175.582 111.79 174.907 111.165 174.105 110.748C173.302 110.331 172.403 110.137 171.5 110.188C170.315 108.688 169.16 107.008 168.11 105.343C167.9 104.998 167.3 105.343 167.495 105.703C168.44 107.293 169.46 108.793 170.495 110.308C169.61 110.417 168.763 110.735 168.025 111.236C167.287 111.736 166.679 112.405 166.25 113.188C165.65 114.493 166.13 115.618 167.42 115.183C168.245 114.847 169.114 114.63 170 114.538C170.72 114.538 171.335 114.808 171.5 116.188C172.175 122.533 166.625 122.668 166.775 119.308C166.775 117.808 167.885 115.528 166.16 115.333C164.66 115.183 162.38 118.048 162.605 121.498C162.724 123.071 163.274 124.581 164.194 125.861C165.115 127.142 166.372 128.144 167.825 128.758C167.345 129.808 170.075 148.258 170.48 150.628C163.033 145.246 154.446 141.653 145.385 140.128V136.438C148.13 136.123 158.51 133.138 158.9 130.078ZM179.9 116.578C178.777 115.98 177.55 115.603 176.285 115.468C178.28 109.708 177.095 104.623 178.625 104.848C181.01 105.178 180.395 114.463 179.87 116.593L179.9 116.578ZM104.66 154.723C105.795 150.892 107.676 147.324 110.195 144.223C110.39 143.998 116.45 142.723 117.185 142.603C116.045 150.103 117.65 159.103 125.195 162.583C136.07 167.683 147.695 150.583 151.835 142.513C155.05 143.487 158.18 144.721 161.195 146.203C160.475 146.953 159.26 152.728 158.99 154.063C156.888 164.574 157.666 175.457 161.24 185.563C155.198 180.323 148.276 176.195 140.795 173.368C129.659 169.185 117.787 167.317 105.905 167.878C105.905 160.303 107.03 160.123 109.835 153.973C110.36 152.713 104.975 154.603 104.66 154.723ZM103.76 155.038C98.405 157.153 89.945 164.038 88.895 170.038C81.1525 171.837 73.6931 174.688 66.725 178.513C74.225 160.513 90.02 149.803 108.65 144.568C106.685 147.088 104.075 151.753 103.76 155.038ZM115.565 116.308C115.94 110.098 117.35 106.033 118.64 100.258C129.35 98.6527 135.83 100.573 140.21 103.528C139.471 105.921 139.121 108.418 139.175 110.923C139.685 113.308 142.97 112.423 143.945 110.713C144.245 110.188 146.42 109.948 147.065 112.348C148.715 118.348 140.15 131.008 136.4 135.193C134.72 137.053 143.735 136.468 144.44 136.438V139.978C144.44 140.443 144.32 140.728 145.145 140.998C146.48 141.448 150.14 141.958 150.83 142.138C147.2 149.083 136.505 165.313 126.83 162.118C115.52 158.428 118.28 143.113 117.83 142.408C119.57 142.063 121.325 141.793 123.08 141.493C124.025 141.343 124.475 132.208 124.04 132.118C121.61 131.668 120.485 131.608 118.625 129.703C115.22 126.223 115.295 120.838 115.565 116.308ZM71.345 69.9127C70.8261 70.3278 70.4119 70.859 70.1357 71.4634C69.8595 72.0679 69.7291 72.7287 69.755 73.3927C60.755 77.5027 52.175 78.5377 52.19 78.8377C52.3522 81.587 53.1064 84.2689 54.4008 86.6998C55.6952 89.1307 57.4994 91.2534 59.69 92.9227C45.485 92.3977 40.775 80.3977 40.19 80.2477C33.8611 80.4567 27.5579 79.3483 21.68 76.9927C8.79499 71.6677 -0.145012 58.9027 1.75999 45.4927C4.54999 25.5727 25.565 16.4227 43.055 13.2877C71.285 8.26271 86.555 19.5577 90.845 33.7327C92.3573 38.9514 92.4859 44.4737 91.2183 49.7571C89.9507 55.0405 87.3305 59.9033 83.615 63.8677C79.835 62.9227 74.93 64.3477 75.665 68.9827C74.9214 68.8016 74.1465 68.7912 73.3983 68.9523C72.6502 69.1133 71.9482 69.4417 71.345 69.9127ZM74.585 112.078C71.105 108.703 71.06 103.528 71.315 99.0277C71.66 93.1927 72.815 88.1677 73.43 82.5277C79.115 84.2827 90.065 85.0477 96.155 83.7577C95.615 85.8577 94.835 94.7227 97.385 95.3077C99.08 95.6977 99.905 92.2177 101.885 92.5927C102.19 92.6547 102.477 92.7875 102.722 92.9802C102.967 93.173 103.163 93.4204 103.295 93.7027C104.48 96.1177 101.195 99.1927 100.145 101.668C98.12 106.408 98.885 111.718 99.71 116.668C98.81 116.668 90.26 128.848 82.37 124.768C81.2017 124.164 80.2521 123.209 79.655 122.038C79.94 121.723 80.15 115.948 80.45 114.913C80.93 113.188 78.065 115.438 74.585 112.078ZM21.89 114.688C21.02 112.438 16.745 106.258 19.505 103.768C19.895 106.048 21.485 105.808 21.005 105.178C19.865 103.528 19.775 99.7777 22.16 99.1777C22.64 101.638 23.225 100.828 23.18 100.543C21.95 94.5427 26.18 94.0777 29.825 97.7377C29.15 99.4927 27.695 98.0827 27.05 97.0327C26.63 96.5527 25.775 97.4077 27.14 98.5327C28.94 100.033 30.14 99.5827 30.92 97.6627C31.94 95.0977 32.81 91.6627 35.42 90.1627C37.685 88.9327 36.995 90.4927 36.65 91.7527C36.0692 94.0547 35.7472 96.4143 35.69 98.7877C35.69 102.043 36.305 108.598 37.835 111.583C35.5893 113.281 32.9854 114.443 30.222 114.981C27.4585 115.519 24.6087 115.419 21.89 114.688ZM31.565 161.983C27.6723 150.576 24.9091 138.815 23.315 126.868L22.145 115.453C26.975 117.538 34.25 115.573 38.24 112.453C44.2293 125.399 52.6874 137.051 63.14 146.758C64.205 147.763 64.49 147.898 65.705 147.568C74.705 145.183 89.12 137.563 94.88 130.768C95.09 130.513 94.715 130.153 94.475 130.363C85.475 137.863 78.965 142.123 64.595 146.863C61.205 143.383 53.87 135.373 52.595 133.783C60.875 126.733 67.79 122.593 78.77 120.283L78.68 121.633C79.295 124.633 82.43 126.433 85.37 126.568C89.87 126.703 96.005 122.368 100.115 117.328C101.24 117.478 104.165 116.713 107.735 117.733C105.918 120.508 103.517 122.852 100.7 124.603C100.205 124.903 100.7 125.248 101.015 125.413C104.45 127.543 113.015 130.348 116.915 129.298C118.295 131.143 120.98 133.183 123.425 133.003C123.003 135.486 122.708 137.989 122.54 140.503C103.805 143.248 84.665 150.493 72.755 165.898C69.6775 169.817 67.2978 174.236 65.72 178.963L59.84 182.668C43.82 181.258 37.1 178.288 31.565 161.998V161.983ZM171.305 220.123C168.305 231.313 160.22 240.448 150.56 246.553C134.33 256.768 113.72 258.553 94.955 257.128C76.955 255.838 57.785 249.943 47.135 234.388C40.55 224.773 38.42 211.693 43.715 201.028C51.215 185.938 72.215 175.363 88.415 171.118C89.915 170.713 89.54 170.323 90.08 169.243C93.89 161.623 99.935 156.163 108.53 154.453C106.028 158.096 104.752 162.441 104.885 166.858C104.885 168.163 104.645 169.108 106.655 169.033C115.105 168.448 123.593 169.228 131.795 171.343C154.265 177.313 178.34 194.188 171.305 220.138V220.123ZM209.36 188.083C208.85 194.758 204.335 200.293 198.86 203.713C189.185 209.713 174.14 209.008 173.675 209.473C173.24 200.278 168.785 192.598 162.245 186.373C159.804 178.509 158.744 170.283 159.11 162.058C159.309 156.766 160.274 151.532 161.975 146.518C165.084 148.061 168.038 149.899 170.795 152.008C172.57 162.729 175.086 173.314 178.325 183.688C178.43 184.063 178.97 183.838 178.865 183.478C173.869 165.623 170.495 147.354 168.785 128.893C168.785 128.713 168.56 128.023 168.35 127.948C167.014 127.41 165.851 126.516 164.989 125.363C164.127 124.209 163.598 122.841 163.46 121.408C163.265 119.128 165.59 115.573 166.25 116.353C166.565 117.328 165.2 119.593 166.4 121.273C168.065 123.673 172.985 122.473 172.4 116.263C172.205 113.863 171.05 113.458 169.82 113.638C169.308 113.724 168.806 113.86 168.32 114.043C166.745 114.583 166.46 114.163 167.345 112.963C167.85 112.399 168.467 111.947 169.157 111.634C169.846 111.322 170.593 111.156 171.35 111.148C172.343 110.965 173.368 111.176 174.208 111.736C175.048 112.296 175.637 113.161 175.85 114.148C175.745 114.613 175.625 115.093 175.505 115.558C173.24 115.558 174.155 116.308 174.35 116.308C176.285 116.308 179.39 116.833 180.755 118.453C181.19 118.978 182.03 118.018 180.755 117.223C183.62 114.613 184.07 111.223 185.33 109.828C186.245 108.808 186.455 112.828 186.2 114.418C185.702 118.321 184.237 122.038 181.94 125.233C181.58 125.728 180.785 126.433 181.55 126.838C190.297 137.301 197.279 149.121 202.22 161.833C205.13 168.913 209.93 180.688 209.36 188.098V188.083ZM224.36 147.073C221 159.073 214.535 160.783 203 161.083C197.9 148.543 191.3 136.333 182.255 126.178L183.65 124.078C187.525 127.154 191.713 129.814 196.145 132.013C196.296 132.048 196.455 132.029 196.594 131.961C196.733 131.893 196.845 131.779 196.91 131.638C200.84 116.728 205.91 104.638 215.315 92.3377C219.114 96.3426 224.307 98.7327 229.82 99.0127C229.595 114.793 228.92 131.008 224.42 147.088L224.36 147.073ZM250.655 90.2977C249.575 91.2277 244.13 88.4977 242.18 88.6627C241.565 88.0927 240.95 87.5677 240.335 87.0577C240.05 86.8177 239.72 87.2527 239.96 87.4927C242.045 89.5627 244.46 91.7677 245.3 94.5877C245.675 95.7127 245.915 96.7027 244.415 95.6227C243.575 95.0077 236.405 89.2027 235.73 90.4927C233.885 88.7077 233.48 89.5777 233.885 89.8777C236.18 91.2727 238.1 95.6527 238.1 98.6077C238.1 99.3577 237.935 99.6877 237.185 98.9077C236.135 97.8277 235.34 94.6927 231.545 92.9077C228.545 91.5877 227.225 92.7877 228.23 92.9977C229.007 93.1337 229.77 93.3395 230.51 93.6127C230.36 94.7527 229.955 96.6127 229.76 98.0077C227.224 97.9552 224.724 97.3975 222.406 96.3673C220.088 95.3371 217.998 93.855 216.26 92.0077C219.035 88.2127 221.36 85.4527 225.77 83.2927C231.11 80.6977 244.88 84.5827 249.695 88.3777C250.13 88.6627 251.255 89.8777 250.715 90.3127L250.655 90.2977Z" fill="#2A2928"/>
<path d="M76.85 57.3577C81.59 59.0377 80.285 50.0977 76.07 54.2527C75.669 52.1688 76.1114 50.0108 77.3 48.2527C77.3285 48.1901 77.3356 48.1198 77.3204 48.0527C77.3051 47.9856 77.2683 47.9254 77.2156 47.8811C77.1629 47.8369 77.0971 47.8112 77.0284 47.8079C76.9597 47.8045 76.8917 47.8238 76.835 47.8627C75.759 48.9572 75.1054 50.3973 74.99 51.9277C74.795 53.7877 75.2 56.7727 76.85 57.3577ZM35.27 27.6877C35.1827 28.4197 35.1327 29.1557 35.12 29.8927C35.12 31.4827 37.535 29.0827 37.775 28.8277L39.62 29.6527C41.54 30.4777 39.47 27.2677 39.29 27.0277C39.59 26.6077 40.61 25.5277 39.965 25.0027C39.56 24.7027 38.465 25.1227 38.015 25.2277C37.76 24.8827 36.26 22.3477 35.915 23.9227C35.78 24.5377 35.645 25.1527 35.54 25.7227C34.88 25.8277 33.53 25.7227 33.725 26.6677C33.77 27.0577 34.88 27.4477 35.27 27.6877ZM44.54 26.5177C44.54 27.2977 44.12 28.6927 44.66 29.0677C45.2 29.4427 46.265 27.9727 46.655 27.4777C47.465 27.8527 48.635 28.6477 49.025 27.9427C49.25 27.5377 48.305 26.4427 47.975 25.8727C48.305 25.4677 49.235 24.5977 49.055 24.1177C48.77 23.3827 47.45 23.8477 46.94 23.9527L45.965 22.1527C45.11 20.4877 44.735 24.2827 44.735 24.4627C43.505 24.7777 42.89 24.9127 42.935 25.2427C43.01 25.9777 44 26.2627 44.54 26.5177ZM11.75 44.0227C9.74 42.9877 8.51 46.1977 9.44 47.6377C9.60422 47.8467 9.81376 48.0157 10.0528 48.1319C10.2919 48.2481 10.5542 48.3085 10.82 48.3085C11.0858 48.3085 11.3481 48.2481 11.5872 48.1319C11.8262 48.0157 12.0358 47.8467 12.2 47.6377C12.4013 49.6498 11.9826 51.6754 11 53.4427C10.805 53.7127 11.21 54.0577 11.435 53.8327C13.13 51.9427 14.27 45.3427 11.75 44.0227ZM16.88 44.1877C17.2206 44.5527 17.6864 44.7756 18.1843 44.8117C18.6821 44.8479 19.1753 44.6947 19.565 44.3827C19.9858 46.2622 19.7584 48.2288 18.92 49.9627C18.8 50.2327 19.175 50.5777 19.37 50.2927C20.2452 49.0165 20.7136 47.5052 20.7136 45.9577C20.7136 44.4102 20.2452 42.899 19.37 41.6227C17.615 39.1777 15.5 42.4627 16.88 44.1877ZM52.295 23.9377L53.615 24.5977C53.3575 25.3477 53.152 26.1145 53 26.8927C52.685 28.9627 55.715 25.9177 55.895 25.7377L58.25 26.8777C60.335 27.8977 58.25 24.2827 58.025 24.0127C58.415 23.6977 59.525 22.9927 59.03 22.4077C58.535 21.8227 57.335 22.4077 56.795 22.4077C54.995 20.0677 54.905 20.3977 54.2 22.6627C53.765 22.6627 50.87 23.1877 52.295 23.9377ZM60.74 46.9027C50.2606 47.723 39.8568 49.3224 29.615 51.6877C29.542 51.7053 29.4733 51.7371 29.4126 51.7814C29.352 51.8256 29.3007 51.8814 29.2617 51.9455C29.2227 52.0096 29.1967 52.0808 29.1852 52.155C29.1738 52.2291 29.1771 52.3048 29.195 52.3777C29.2206 52.5131 29.2971 52.6335 29.4086 52.7144C29.5201 52.7953 29.6584 52.8304 29.795 52.8127C40.295 50.9677 50.33 49.6327 60.965 48.3127C62 48.2527 61.655 46.8427 60.74 46.9027ZM69.005 56.5477C67.73 53.9077 69.485 51.6277 69.875 50.1127C70.025 49.5427 69.14 49.5727 68.18 51.9577C65.915 57.5077 70.97 60.8377 72.68 58.4677C74.39 56.0977 70.25 53.6677 69.005 56.5477ZM30.575 31.0027C32.375 31.7827 30.455 28.4377 30.305 28.2127C30.755 27.8377 31.805 27.2227 31.64 26.5327C31.475 25.8427 29.72 26.5327 29.18 26.5327C28.7626 25.9807 28.3117 25.4547 27.83 24.9577C26.93 24.0577 26.6 26.4577 26.54 26.9227L24.725 27.2677C23.225 27.5677 25.955 28.9177 26.225 29.0377C26.0805 29.8392 26.0401 30.6559 26.105 31.4677C26.3 32.9677 28.4 30.3577 28.61 30.1177L30.575 31.0027ZM60.305 57.5827C51.92 57.8527 39.845 59.8477 31.49 61.1677C31.3269 61.1896 31.1792 61.2754 31.0793 61.4062C30.9794 61.537 30.9356 61.7021 30.9575 61.8652C30.9794 62.0283 31.0652 62.1761 31.196 62.2759C31.3268 62.3758 31.4919 62.4196 31.655 62.3977C40.07 61.6927 52.28 60.7627 60.485 59.0077C60.6737 58.9852 60.8458 58.8889 60.9638 58.74C61.0818 58.5911 61.1361 58.4016 61.115 58.2127C61.0888 58.0228 60.9895 57.8507 60.8381 57.733C60.6868 57.6153 60.4955 57.5614 60.305 57.5827ZM59 37.2277C48.7722 37.8306 38.6176 39.3365 28.655 41.7277C27.875 41.9227 28.04 43.2277 28.835 42.9577C39.41 40.9027 48.635 39.8377 59.21 38.7127C60.2 38.5777 59.945 37.1977 59 37.2277ZM209.555 21.8527C209.643 22.1237 209.791 22.3712 209.988 22.5769C210.185 22.7827 210.426 22.9412 210.692 23.0407C210.959 23.1403 211.245 23.1782 211.529 23.1517C211.812 23.1252 212.086 23.035 212.33 22.8877C212.105 24.5977 211.13 27.1927 209.645 28.0627C209.315 28.2577 209.645 28.7677 209.945 28.6777C212.135 28.0627 213.635 23.5027 213.35 21.1777C212.87 17.0527 208.625 18.2827 209.555 21.8527ZM241.535 16.0777C241.16 16.7035 240.819 17.3495 240.515 18.0127C239.9 19.4227 243.05 18.2227 243.32 18.1027L244.685 19.6027C246.08 21.1027 245.495 17.3677 245.435 17.0977C246.095 16.7077 247.37 16.3477 247.025 15.7177C246.68 15.0877 245.375 15.0277 245 14.9677C244.91 14.5477 244.565 11.6677 243.62 12.9427C243.26 13.4227 242.915 13.9177 242.57 14.4427C241.535 14.1577 240.545 13.7677 240.38 14.5777C240.29 15.0127 240.98 15.4327 241.535 16.0777ZM250.025 20.6527C249.56 22.1527 252.53 20.5477 252.8 20.4277C253.88 21.5977 254.675 22.9477 255.26 21.5977C255.321 20.8487 255.265 20.0948 255.095 19.3627C255.785 19.1527 256.475 19.1977 256.595 18.5077C256.715 17.8177 255.62 17.6677 254.705 17.4127C254.552 16.7425 254.347 16.0854 254.09 15.4477C253.655 14.2777 252.35 16.3927 252.155 16.6777L250.4 16.2877C248.9 15.9277 250.835 18.2377 251.015 18.4627C250.598 19.1502 250.266 19.8855 250.025 20.6527ZM219.11 20.1877C217.7 19.5727 216.65 21.2227 216.77 22.6477C216.89 24.0727 218 24.4927 219.29 24.1477C219.05 25.9477 217.925 28.8427 216.11 29.5177C215.765 29.6377 215.945 30.2227 216.305 30.1327C219.935 29.1877 221.825 21.3577 219.11 20.1877ZM266.42 56.1877C266.012 55.9521 265.549 55.828 265.077 55.828C264.606 55.828 264.143 55.9521 263.735 56.1877C263.792 55.2472 264.048 54.3294 264.485 53.4944C264.922 52.6595 265.53 51.9262 266.27 51.3427C266.645 51.0577 266.27 50.4577 265.865 50.7277C263.54 52.2277 261.98 55.6627 263.075 57.9877C264.8 61.6627 269.21 57.8077 266.42 56.1877ZM258.5 55.6927C258.266 55.525 258.001 55.4075 257.719 55.3474C257.438 55.2874 257.147 55.2863 256.865 55.344C256.584 55.4018 256.317 55.5172 256.082 55.6831C255.847 55.8489 255.649 56.0616 255.5 56.3077C255.617 53.7345 256.686 51.2965 258.5 49.4677C258.77 49.2127 258.395 48.7777 258.11 49.0177C255.935 50.7577 254.135 54.2827 254.645 56.9077C255.5 61.4977 260.915 57.7777 258.5 55.6927ZM248.78 49.6477C240.742 46.0562 232.323 43.3842 223.685 41.6827C222.935 41.5327 222.83 42.6577 223.535 42.8377C231.941 44.9381 240.175 47.676 248.165 51.0277C248.348 51.1093 248.556 51.1148 248.743 51.0431C248.93 50.9713 249.081 50.8282 249.162 50.6452C249.244 50.4622 249.25 50.2543 249.178 50.0673C249.106 49.8802 248.963 49.7293 248.78 49.6477ZM252.41 41.1877C247.31 38.5177 232.25 34.6477 226.025 33.2827C225.275 33.1327 225.08 34.2577 225.8 34.4527C234.395 36.6427 244.145 40.7977 251.975 42.5227C252.067 42.5377 252.16 42.5344 252.251 42.5131C252.341 42.4918 252.426 42.4529 252.502 42.3985C252.577 42.3441 252.641 42.2755 252.689 42.1964C252.738 42.1173 252.77 42.0294 252.785 41.9377C252.809 41.7892 252.785 41.637 252.718 41.5025C252.651 41.368 252.543 41.2579 252.41 41.1877ZM258.95 32.9977C251.12 29.1277 237.695 25.4977 228.95 23.9077C228.215 23.7727 227.825 24.8827 228.59 25.0477C239.675 27.5077 247.97 30.8077 258.35 34.2877C259.1 34.5427 259.7 33.3727 258.95 32.9977Z" fill="#2A2928"/>
<path d="M283.76 28.7677C275.615 5.56272 243.26 -4.39729 221.255 3.46271C206.33 8.81771 195.755 24.0577 201.35 39.6577C204.35 48.0577 211.205 54.7627 218.165 60.1327C216.549 62.5723 214.37 64.5872 211.811 66.0074C209.253 67.4277 206.39 68.2115 203.465 68.2927C203.165 68.2927 202.88 69.0877 203.225 69.3127C207.237 71.7561 211.934 72.8326 216.61 72.381C221.286 71.9293 225.689 69.9738 229.16 66.8077C240.95 72.0727 254.48 73.0627 266.405 67.4227C281.255 60.4777 289.265 44.4277 283.76 28.7677ZM270.965 63.5527C258.965 71.9077 243.515 71.7427 230.465 66.1927C228.29 65.2777 228.965 65.8327 227.81 66.7027C224.567 69.4195 220.58 71.0936 216.37 71.5058C212.16 71.918 207.923 71.049 204.215 69.0127C207.092 68.9494 209.912 68.1972 212.439 66.8192C214.965 65.4411 217.124 63.4774 218.735 61.0927C219.47 59.9977 219.29 59.6977 218.375 58.9627C214.16 55.5427 195.53 41.6227 202.265 22.9627C204.865 16.0425 209.878 10.2946 216.38 6.77771C236 -4.02229 269 3.43271 280.355 23.8027C288.26 37.9627 284.225 54.3277 270.965 63.5527ZM93.23 186.448C93.05 187.213 92.555 188.563 93.05 189.013C93.545 189.463 94.76 188.098 95.225 187.678C95.99 188.143 97.07 189.073 97.52 188.413C97.805 188.023 96.98 186.913 96.725 186.223C97.13 185.743 98.435 184.723 98.105 184.378C97.775 184.033 96.74 184.138 95.915 184.228C95.915 184.018 94.61 180.583 94.16 182.368L93.665 184.468C92.405 184.633 91.61 184.723 91.61 185.038C91.61 185.353 92.915 186.253 93.23 186.448ZM102.005 185.473C101.855 185.923 101.105 187.813 101.345 188.188C101.84 188.983 103.895 187.138 104.48 186.688L106.34 187.738C108.05 188.878 106.61 185.623 106.43 185.278C106.82 184.993 108.86 183.283 107.105 183.328H105.335C105.125 182.968 103.7 180.328 103.235 181.828L102.665 183.448C101.93 183.448 101.165 183.448 100.46 183.538C98.54 183.688 101.885 185.413 102.005 185.473ZM111.5 185.473C111.272 186.259 111.141 187.07 111.11 187.888C111.11 189.388 113.525 187.048 113.75 186.838C115.13 187.648 116.345 188.743 116.525 187.258C116.369 186.507 116.091 185.787 115.7 185.128C116.195 184.813 117.005 184.588 116.93 183.868C116.855 183.148 115.325 183.343 114.77 183.343C114.416 182.747 114.031 182.171 113.615 181.618C112.82 180.613 112.115 183.028 112.115 183.403L110.27 183.538C108.65 183.688 111.35 185.338 111.5 185.473ZM120.86 185.188C120.515 185.843 120.224 186.525 119.99 187.228C119.435 189.253 122.81 186.613 122.99 186.433L125.195 187.843C127.16 189.073 125.48 185.443 125.33 185.143C125.72 184.873 126.83 183.853 126.56 183.493C126.29 183.133 124.895 183.223 124.34 183.193C122.84 180.643 122.69 180.958 121.715 183.193C120.961 183.148 120.204 183.148 119.45 183.193C118.43 183.403 120.635 185.023 120.86 185.188ZM83.855 186.448C83.679 187.16 83.5388 187.881 83.435 188.608C83.24 190.198 85.94 188.098 86.21 187.888L87.98 188.923C89.78 189.988 88.115 186.538 87.98 186.268C88.325 185.878 89.48 184.888 88.895 184.348C88.31 183.808 87.395 184.273 86.93 184.348C86.615 183.793 86.315 183.223 86.015 182.668C85.295 181.258 84.515 184.168 84.395 184.513C83.735 184.513 82.25 184.318 82.295 185.233C82.31 185.698 83.48 186.208 83.855 186.448ZM63.275 201.148C63.4145 201.542 63.6304 201.905 63.9103 202.216C64.1901 202.526 64.5286 202.779 64.9062 202.958C65.2837 203.138 65.6931 203.242 66.1107 203.263C66.5283 203.284 66.9461 203.223 67.34 203.083C67.2612 205.351 66.4861 207.54 65.12 209.353C64.685 209.938 65.495 210.748 65.96 210.163C67.0852 208.786 67.8931 207.179 68.3261 205.455C68.7591 203.731 68.8065 201.932 68.465 200.188C67.205 195.988 62.27 197.998 63.275 201.148ZM130.715 214.588C113.12 215.353 95.945 216.088 78.215 216.313C77.24 216.313 77.135 217.813 78.125 217.813C95.21 218.023 113.72 217.813 130.79 216.313C130.984 216.26 131.154 216.143 131.273 215.981C131.391 215.819 131.451 215.621 131.442 215.42C131.433 215.22 131.357 215.028 131.225 214.876C131.092 214.725 130.913 214.623 130.715 214.588ZM132.305 200.098C114.17 200.293 94.58 200.458 76.535 201.598C75.71 201.598 75.8 203.098 76.61 203.098C94.61 203.398 114.11 202.588 132.11 201.913C133.31 201.868 133.49 200.083 132.305 200.098ZM153.95 222.598C153.309 222.213 152.549 222.082 151.816 222.229C151.084 222.376 150.433 222.791 149.99 223.393C149.8 222.315 149.926 221.205 150.352 220.196C150.777 219.188 151.485 218.324 152.39 217.708C152.96 217.348 152.48 216.418 151.88 216.778C150.427 217.611 149.35 218.972 148.873 220.577C148.395 222.183 148.554 223.911 149.315 225.403C152 229.813 157.37 224.833 153.95 222.598ZM54.5 202.753C54.8991 203.363 55.5227 203.792 56.2358 203.947C56.9488 204.101 57.694 203.969 58.31 203.578C57.9971 206.069 57.2881 208.495 56.21 210.763C55.91 211.378 56.825 212.008 57.155 211.348C58.445 208.798 60.485 203.188 59.36 200.383C57.8 196.723 52.34 199.423 54.5 202.753ZM129.965 228.928C112.865 228.657 95.7617 229.273 78.725 230.773C77.765 230.863 78.05 232.273 78.98 232.273C96.02 231.268 112.79 230.773 129.83 230.773C131 230.728 131.12 228.943 129.965 228.928ZM141.185 225.328C140.751 223.925 140.724 222.428 141.107 221.01C141.489 219.593 142.265 218.312 143.345 217.318C143.87 216.868 143.12 216.088 142.58 216.553C137.51 220.798 139.58 229.243 143.435 229.423C143.871 229.428 144.3 229.319 144.681 229.107C145.061 228.895 145.38 228.588 145.606 228.216C145.831 227.843 145.956 227.418 145.967 226.983C145.979 226.547 145.876 226.116 145.67 225.733C145.292 225.1 144.68 224.642 143.966 224.46C143.252 224.277 142.495 224.384 141.86 224.758C141.606 224.91 141.378 225.102 141.185 225.328Z" fill="#2A2928"/>
</svg>
