<svg width="250" height="29" viewBox="0 0 250 29" fill="none" xmlns="http://www.w3.org/2000/svg">
<path opacity="0.6" d="M229.731 20.2842C230.517 20.2065 230.537 20.1748 230.177 19.7315C230.097 19.6336 229.964 19.5387 230.104 19.4178C230.217 19.317 230.37 19.3515 230.5 19.3976C230.916 19.5473 231.276 19.8093 231.762 19.8323C232.092 19.8496 232.398 19.9129 232.565 19.5761C232.588 19.53 232.668 19.5041 232.725 19.4696C233.034 19.838 233.331 19.6135 233.634 19.4581C233.677 19.435 233.814 19.4638 233.827 19.4926C234.04 19.9618 234.513 19.7833 234.9 19.8294C235.069 19.8496 235.276 19.8726 235.299 20.0655C235.319 20.2267 235.113 20.2123 235.016 20.2814C234.39 20.7304 233.704 20.3907 233.048 20.4109C232.735 20.4195 232.418 20.3677 232.102 20.3533C231.962 20.3476 231.819 20.3504 231.742 20.4886C231.596 20.7678 231.472 20.6585 231.369 20.4627C231.313 20.3562 231.236 20.2813 231.099 20.2727C230.97 20.2641 230.84 20.2756 230.796 20.4022C230.743 20.5548 230.866 20.6181 231.006 20.67C231.169 20.7304 231.429 20.7131 231.396 20.9578C231.383 21.0615 231.249 21.0874 231.143 21.0845C230.906 21.0787 230.57 21.1651 230.503 20.9031C230.423 20.5778 230.187 20.526 229.9 20.5088C229.481 20.4857 229.198 20.1662 228.771 20.1547C228.388 20.1461 228.009 20.0338 227.632 20.2036C227.519 20.2554 227.386 20.2238 227.276 20.1691C227.083 20.0712 227.01 20.0539 226.803 20.2497C226.523 20.5116 226.034 20.3332 225.668 20.2497C225.461 20.2008 225.351 20.2123 225.158 20.2727C224.502 20.48 223.839 20.2612 223.176 20.2353C222.467 20.2065 221.944 19.7056 221.215 19.7114C220.645 19.7171 220.066 19.5991 219.543 19.8899C219.466 19.933 219.333 19.9848 219.306 19.9301C219.083 19.5127 218.5 19.7085 218.111 19.2738C218.207 19.8553 217.911 19.8726 217.525 19.8265C215.763 19.6106 213.984 19.6221 212.216 19.5761C210.524 19.5329 208.835 19.3458 207.144 19.3746C206.278 19.389 205.422 19.2565 204.572 19.2997C203.024 19.3774 201.488 19.1212 199.946 19.2479C199.567 19.2796 199.174 19.1731 198.791 19.1875C197.062 19.245 195.344 19.0752 193.615 19.0723C193.192 19.0723 192.773 19.1011 192.353 19.1357C191.714 19.1875 191.074 19.3199 190.421 19.1155C190.078 19.009 189.675 19.0407 189.322 19.1328C188.556 19.3285 187.794 19.3343 187.024 19.1932C185.792 18.9716 184.583 19.2882 183.357 19.2911C182.532 19.2911 181.706 19.2594 180.883 19.2335C180.313 19.2162 179.761 19.2422 179.204 19.3141C178.758 19.3717 178.329 19.3084 177.889 19.2796C176.523 19.1875 175.151 19.3084 173.782 19.1299C173.396 19.0781 172.96 19.245 172.56 19.3544C172.161 19.4638 171.761 19.4753 171.361 19.4235C170.485 19.3141 169.619 19.3717 168.743 19.5128C169.156 19.5905 169.543 19.7546 169.976 19.743C170.765 19.72 171.581 19.7977 172.334 19.6452C173.076 19.4955 173.742 19.7891 174.452 19.7056C174.802 19.6653 175.141 19.674 175.464 19.5099C175.754 19.3631 176.09 19.3918 176.374 19.5387C176.647 19.6797 176.933 19.7286 177.233 19.7027C178.758 19.5732 180.283 19.7286 181.812 19.6682C183.044 19.6193 184.303 19.5674 185.546 19.7027C185.732 19.7229 185.985 19.697 185.965 19.9417C185.945 20.1864 185.722 20.2468 185.469 20.2497C183.91 20.2727 182.345 20.2238 180.793 20.29C179.511 20.3418 178.225 20.29 176.953 20.4109C176.42 20.4627 175.944 20.5807 175.478 20.2324C175.324 20.1173 175.068 20.2324 174.862 20.267C173.832 20.4397 172.803 20.5692 171.764 20.3188C171.408 20.2324 171.061 20.3418 170.722 20.3936C169.972 20.5088 169.206 20.4713 168.464 20.5548C167.105 20.7074 165.776 20.5462 164.431 20.503C163.561 20.4742 162.682 20.5922 161.813 20.6872C161.436 20.7275 161.06 20.5318 160.667 20.716C160.88 20.9003 161.433 20.6354 161.343 21.1306C161.48 21.1421 161.62 21.1622 161.756 21.1651C163.008 21.1996 164.254 21.119 165.516 21.2198C166.139 21.2687 166.858 21.4011 167.518 21.1968C167.551 21.1881 167.594 21.1709 167.621 21.1824C168.274 21.4271 168.93 21.1018 169.596 21.2025C169.992 21.263 170.439 21.214 170.832 21.1248C171.205 21.0413 171.554 21.0097 171.921 21.0787C172.803 21.2486 173.669 21.0902 174.545 21.0298C175.268 20.9809 176.004 21.1305 176.733 21.1075C178.042 21.0672 179.344 21.2946 180.646 21.168C182.218 21.0154 183.777 20.9204 185.346 21.1968C185.862 21.286 186.392 21.1104 186.914 21.0528C187.427 20.9953 187.924 21.0672 188.426 21.0902C189.216 21.1248 190.025 21.3177 190.818 21.0701C191.164 20.9607 191.53 20.9521 191.85 21.0902C192.32 21.2918 192.779 21.3177 193.266 21.1824C194.145 20.9406 194.984 21.4127 195.863 21.286C196.17 21.2428 196.496 21.3177 196.789 21.168C196.856 21.1334 196.989 21.1162 197.036 21.1478C197.472 21.4472 197.988 21.2658 198.461 21.3378C198.801 21.3896 199.15 21.3839 199.427 21.1075C199.59 20.9463 199.893 20.9377 200.05 21.0989C200.443 21.4904 200.949 21.4645 201.458 21.4558C203.373 21.4184 205.282 21.5595 207.194 21.5796C207.96 21.5883 208.706 21.5998 209.462 21.712C209.718 21.7494 210.001 21.6458 210.277 21.6055C210.234 21.381 209.838 21.5105 209.914 21.2572C209.944 21.1478 210.058 21.0845 210.184 21.0557C210.414 21.0039 210.484 21.1651 210.584 21.2889C210.887 21.6631 211.247 21.7754 211.823 21.7552C212.978 21.7178 214.137 21.8589 215.3 21.9078C217.148 21.9826 219 22.0431 220.848 22.1093C220.955 22.1122 221.061 22.1208 221.161 22.141C221.351 22.1813 221.571 22.2359 221.548 22.449C221.524 22.6821 221.281 22.639 221.095 22.6591C219.666 22.8059 218.257 22.4806 216.838 22.5325C215.396 22.5843 213.981 22.3108 212.532 22.3425C211.506 22.3655 210.471 22.0805 209.452 22.1266C208.642 22.1611 207.85 21.8387 207.03 22.1266C206.501 22.3108 205.915 22.1697 205.358 22.1007C204.692 22.0172 204.023 22.0316 203.357 22.0114C201.885 21.9654 200.406 21.9423 198.934 21.9567C197.858 21.9682 196.793 21.8416 195.73 21.8675C194.841 21.8876 193.945 21.8876 193.056 21.9193C192.952 21.9222 192.776 21.9308 192.786 22.0143C192.843 22.4806 192.406 22.3684 192.147 22.4173C191.271 22.5843 190.398 22.4259 189.522 22.354C189.312 22.3367 189.103 22.3137 188.893 22.2906C188.743 22.2734 188.52 22.3079 188.533 22.115C188.546 21.9078 188.776 21.9222 188.946 21.9366C189.279 21.9654 189.609 22.0143 189.938 22.0546C190.022 22.0661 190.108 22.1035 190.242 22.0028C189.709 21.8358 189.166 21.712 188.673 21.7869C187.907 21.9049 187.158 21.9769 186.385 21.9222C186.148 21.9049 185.885 21.8704 185.829 22.1899C185.795 22.3799 185.572 22.3741 185.396 22.3741C184.573 22.3799 183.754 22.4576 182.928 22.4087C182.518 22.3828 182.099 22.5267 181.682 22.5526C181.449 22.567 181.059 22.6706 181.046 22.3453C181.036 22.0747 181.393 22.115 181.636 22.1007C181.686 22.0978 181.736 22.0805 181.786 22.0143C180.273 22.0805 178.768 21.9682 177.216 21.9682C177.326 22.0863 177.599 22.1237 177.496 22.3281C177.396 22.5267 177.179 22.5468 176.963 22.5612C175.721 22.639 174.478 22.6562 173.236 22.6562C172.907 22.6562 172.57 22.6102 172.244 22.7627C172.6 22.8923 172.993 22.8002 173.366 22.8808C173.806 22.9758 174.309 22.9383 174.768 22.8808C176.11 22.708 177.443 22.6476 178.795 22.7915C179.87 22.9067 180.97 22.9959 182.035 22.8146C182.958 22.6591 183.717 22.9211 184.493 23.2463C184.65 23.3126 184.823 23.4306 184.979 23.3097C185.193 23.1456 184.903 23.0995 184.843 22.9988C184.783 22.898 184.806 22.8174 184.926 22.7771C185.066 22.7282 185.236 22.7167 185.306 22.8405C185.702 23.5313 186.458 23.5112 187.174 23.563C187.444 23.5803 187.694 23.5572 187.83 23.2895C187.947 23.0564 188.207 23.111 188.433 23.1341C188.899 23.1859 189.362 23.301 189.835 23.1456C189.985 23.0967 190.152 23.1398 190.262 23.2607C190.335 23.3413 190.338 23.4306 190.271 23.5141C190.162 23.6494 190.002 23.6321 189.842 23.6148C189.689 23.5976 189.535 23.5371 189.352 23.6263C189.515 23.7703 189.719 23.7213 189.895 23.7501C190.022 23.7703 190.152 23.799 190.165 23.9286C190.182 24.0754 190.038 24.0898 189.918 24.1099C189.799 24.1301 189.652 24.1819 189.555 24.1474C188.993 23.9401 188.386 24.3345 187.83 24.0409C187.747 23.9977 187.58 24.0265 187.474 24.0696C187.327 24.1272 187.071 24.1474 187.104 24.3316C187.131 24.4784 187.367 24.4323 187.514 24.4698C188.34 24.6885 189.199 24.5964 189.998 24.4957C190.824 24.3921 191.584 24.5417 192.37 24.6022C192.386 24.6022 192.403 24.6108 192.423 24.6108C192.949 24.5936 193.422 24.3892 194.008 24.6684C194.448 24.8785 195.117 24.6885 195.667 24.7691C196.489 24.8872 197.329 24.8814 198.128 24.8267C199.304 24.7461 200.453 24.9879 201.628 24.8728C202.451 24.7922 203.304 24.916 204.143 24.9707C204.343 24.9822 204.522 24.9937 204.712 24.9246C204.689 24.9016 204.676 24.8728 204.652 24.867C204.419 24.8095 203.996 24.9534 203.99 24.6626C203.983 24.3546 204.413 24.5216 204.639 24.4611C205.085 24.3431 205.545 24.4957 206.001 24.4928C206.354 24.4928 206.358 24.323 206.454 24.1359C206.594 23.871 206.321 23.9228 206.204 23.8653C206.061 23.7962 205.901 23.7415 205.958 23.5659C206.011 23.4018 206.184 23.373 206.344 23.396C207.267 23.5227 208.206 23.5141 209.128 23.5918C209.908 23.658 210.687 23.6062 211.463 23.6436C212.945 23.7127 214.414 23.8739 215.896 23.9459C216.149 23.9574 216.392 24.0322 216.429 24.3028C216.452 24.4726 216.575 24.5274 216.739 24.5677C216.935 24.6166 217.155 24.7058 217.002 24.9102C216.872 25.0801 216.652 25.2297 216.376 25.0657C216.289 25.0138 216.162 24.9476 216.156 24.8785C216.082 24.2769 215.523 24.4007 215.1 24.3431C214.827 24.3057 214.544 24.3143 214.254 24.3431C214.757 24.418 215.223 24.5475 215.616 24.8325C215.706 24.8987 215.873 24.9448 215.809 25.0685C215.733 25.2153 215.506 25.2556 215.403 25.1722C215.113 24.9332 214.837 25.0801 214.534 25.106C213.798 25.1693 213.055 25.1203 212.322 25.0253C211.973 24.9793 211.946 24.6914 211.829 24.4842C211.67 24.2021 211.493 24.0581 211.243 24.3978C211.097 24.5936 210.897 24.5705 210.687 24.5792C209.984 24.6079 209.278 24.5245 208.582 24.6626C208.446 24.6885 208.293 24.7001 208.183 24.7663C207.9 24.9361 207.673 24.9304 207.453 24.6857C207.35 24.5705 207.177 24.5705 207.02 24.5446C206.977 24.6828 207.213 24.6713 207.167 24.7548C206.827 25.3708 207.507 25.1203 207.633 25.0973C208.669 24.8987 209.658 25.1117 210.674 25.2211C211.267 25.2844 211.906 25.1491 212.536 25.2153C213.058 25.27 213.588 25.2787 214.114 25.3132C214.314 25.3276 214.6 25.2873 214.597 25.5464C214.59 25.7939 214.327 25.7047 214.144 25.7191C212.732 25.817 211.337 25.6529 209.934 25.5867C209.085 25.5464 208.223 25.4082 207.36 25.5723C207.04 25.6327 206.691 25.6097 206.358 25.5924C203.284 25.4284 200.203 25.5521 197.129 25.4888C196.373 25.4744 195.624 25.3794 194.868 25.365C194.238 25.3535 193.605 25.3967 192.976 25.4255C191.63 25.4859 190.285 25.5205 188.936 25.437C188.663 25.4197 188.383 25.4773 188.023 25.509C188.22 25.6788 188.373 25.6184 188.51 25.5896C188.736 25.5435 188.969 25.5003 189.179 25.604C189.416 25.722 189.629 25.6817 189.882 25.6356C190.461 25.532 191.008 25.8314 191.59 25.8083C191.694 25.8055 191.78 25.8976 191.77 26.0041C191.757 26.1538 191.627 26.2114 191.477 26.2171C191.091 26.2257 190.698 26.2574 190.315 26.2142C189.575 26.1279 188.839 26.1365 188.1 26.1567C187.514 26.1739 186.944 26.0703 186.365 26.0501C186.198 26.0444 185.952 26.0386 185.999 25.8227C186.045 25.6068 186.272 25.5665 186.501 25.6126C186.568 25.6241 186.625 25.6673 186.685 25.699C186.758 25.7393 186.824 25.8112 186.918 25.7537C186.954 25.7335 186.984 25.6759 186.978 25.6385C186.961 25.5176 186.834 25.5061 186.735 25.5118C186.208 25.5349 185.689 25.3996 185.156 25.4715C184.353 25.578 183.544 25.509 182.738 25.5061C182.628 25.5061 182.495 25.4341 182.402 25.5521C182.455 25.6932 182.558 25.6961 182.695 25.6471C182.825 25.5982 182.951 25.5982 182.955 25.7565C182.958 25.889 182.888 26.0271 182.721 26.0099C182.395 25.9753 182.015 26.0329 181.772 25.8055C181.522 25.5752 181.209 25.5003 180.913 25.5349C180.3 25.6068 179.684 25.5665 179.051 25.6097C179.384 25.84 179.744 25.8055 180.11 25.7911C180.293 25.7824 180.563 25.7911 180.55 26.0127C180.533 26.2401 180.277 26.2085 180.087 26.1826C179.754 26.1365 179.428 26.125 179.088 26.1451C178.831 26.1595 178.512 26.1797 178.612 25.7968C178.642 25.6788 178.535 25.6241 178.425 25.6241C177.672 25.6241 176.933 25.4255 176.057 25.5435C176.39 25.7076 176.66 25.7335 176.926 25.7738C177.053 25.794 177.179 25.8199 177.193 25.9523C177.209 26.1048 177.083 26.1854 176.94 26.197C176.683 26.2171 176.423 26.2027 176.16 26.2545C176.53 26.4359 176.95 26.4388 177.336 26.3841C178.302 26.2488 179.271 26.3409 180.237 26.3265C181.256 26.3121 182.282 26.3726 183.294 26.3639C184.347 26.3553 185.402 26.315 186.458 26.3265C188.143 26.3438 189.829 26.4071 191.51 26.3841C192.14 26.3754 192.816 26.456 193.409 26.1394C193.542 26.0674 193.685 26.1192 193.812 26.1711C194.158 26.3092 194.534 26.3754 194.894 26.3179C195.624 26.2027 196.316 26.4042 197.029 26.433C197.096 26.433 197.182 26.4445 197.229 26.4129C197.902 25.9983 198.608 26.2142 199.29 26.3582C199.627 26.4272 199.913 26.3121 200.23 26.3092C200.769 26.3063 201.312 26.4244 201.855 26.2747C202.081 26.2114 202.488 26.4042 202.361 25.935C202.341 25.8602 202.488 25.7939 202.607 25.8141C202.764 25.84 202.901 25.9235 202.821 26.0645C202.691 26.2977 202.827 26.3121 203.034 26.3351C203.513 26.3898 203.983 26.5481 204.479 26.3524C204.659 26.2833 204.822 26.3063 204.802 26.0559C204.789 25.863 205.045 25.8659 205.215 25.8717C206.707 25.8976 208.203 25.8803 209.688 26.0012C209.984 26.0271 210.287 26.0559 210.584 26.0444C210.91 26.0329 211.183 26.053 211.24 26.4272C211.5 26.0847 212.715 25.8803 213.002 26.1192C213.302 26.3697 212.842 26.4071 212.789 26.5568C212.812 26.5885 212.822 26.6259 212.849 26.6374C213.035 26.7295 213.418 26.6719 213.378 26.9166C213.328 27.1987 212.965 27.0692 212.752 27.0606C210.767 26.9771 208.779 27.0174 206.794 27.0836C205.525 27.1239 204.263 26.954 203.004 27.0692C202.314 27.1325 201.625 27.1383 200.956 27.049C199.753 26.8907 198.544 27.098 197.349 26.908C196.976 26.8504 196.569 26.859 196.196 26.9195C195.201 27.0807 194.211 26.8821 193.226 26.9022C189.229 26.9915 185.236 26.9656 181.239 26.9627C179.254 26.9627 177.269 26.8821 175.281 26.8821C172.537 26.885 169.796 26.98 167.052 26.9742C165.283 26.9713 163.515 27.0289 161.746 27.0951C160.717 27.1325 159.681 27.1037 158.649 27.144C156.524 27.2275 154.396 27.2822 152.268 27.3311C150.09 27.383 147.908 27.4089 145.73 27.4549C143.412 27.5039 141.091 27.5298 138.776 27.6277C137.501 27.6823 136.222 27.7198 134.946 27.7831C134.909 27.7831 134.873 27.7917 134.84 27.7831C133.341 27.5269 131.829 27.7687 130.327 27.7629C128.435 27.7572 126.53 27.7486 124.632 27.8263C123.646 27.8666 122.633 27.8464 121.634 27.8263C120.618 27.8061 119.599 27.8032 118.58 27.832C117.654 27.8579 116.722 27.8234 115.793 27.8263C114.917 27.8263 114.041 27.8234 113.165 27.8493C112.865 27.8579 112.565 27.8723 112.269 27.8666C107.43 27.7399 102.591 27.7975 97.7516 27.7889C96.2929 27.7889 94.8375 27.7226 93.3821 27.7198C91.7502 27.7198 90.1183 27.6449 88.4863 27.6852C86.3149 27.737 84.1434 27.7054 81.9686 27.6708C80.2068 27.642 78.4417 27.809 76.6832 27.7687C74.7682 27.7226 72.8532 27.7745 70.9415 27.7601C68.8167 27.7428 66.6852 27.7226 64.5571 27.8004C62.279 27.881 59.9977 27.7831 57.7197 27.8004C55.2585 27.8205 52.8072 27.619 50.3494 27.5787C48.9606 27.5557 47.5784 27.5096 46.193 27.4463C45.2971 27.406 44.4012 27.2908 43.512 27.2822C41.6469 27.2678 39.8085 26.98 37.9534 26.9771C35.8586 26.9742 33.7704 26.8504 31.6822 26.7669C29.3842 26.6748 27.0829 26.6834 24.7815 26.551C23.1762 26.4589 21.551 26.5136 19.9324 26.4992C19.3629 26.4935 18.8 26.5885 18.4503 26.9339C18.2072 27.1757 18.0607 27.5442 17.9008 27.8694C17.741 28.1947 17.1748 28.5344 16.7418 28.474C16.3355 28.4193 16.2389 28.1285 16.1323 27.8148C16.0191 27.4808 15.8792 27.2246 16.2656 26.9253C16.4721 26.7669 16.2589 26.5597 15.9958 26.5107C15.5096 26.4215 15.0166 26.3927 14.5237 26.4359C13.4214 26.5309 12.319 26.4244 11.2166 26.4215C9.49809 26.4215 7.81954 26.5395 6.2942 27.3196C5.82794 27.5586 5.33503 27.7255 4.82548 27.3801C4.74221 27.3254 4.62898 27.2764 4.59567 27.2016C4.36254 26.7007 4.07612 26.2401 3.4933 25.9782C3.47997 25.9724 3.47331 25.9551 3.46332 25.9408C3.22353 25.6299 3.67314 25.4917 3.68979 25.2585C3.70311 25.0513 3.36008 24.7692 4.02284 24.749C3.65316 24.513 3.49995 24.2683 3.45333 23.9545C3.41003 23.6494 3.47997 23.4104 3.78637 23.2435C4.06613 23.0909 4.0628 22.9182 3.84965 22.7224C3.42335 22.3367 3.23352 21.9193 3.5599 21.404C3.64317 21.2716 3.57322 21.1018 3.50662 20.9607C3.40004 20.7218 3.42335 20.4915 3.50662 20.2468C3.68646 19.72 3.23685 19.3199 2.61406 19.4379C2.12448 19.53 1.72816 19.3861 1.56496 18.9543C1.22526 18.0562 1.04874 17.1436 1.76812 16.3002C2.00125 16.0296 2.02457 15.8367 1.65822 15.6323C1.01877 15.2725 0.918857 14.6939 0.9455 14.098C0.962152 13.7065 0.895547 13.3611 0.652424 13.0157C0.126213 12.2701 0.246106 11.5015 0.982135 10.9114C1.30852 10.6494 1.2952 10.5314 0.915527 10.327C0.316047 10.0046 -0.0702831 9.55552 0.0695957 8.8848C0.1029 8.72647 0.0429509 8.55376 0.0163074 8.38968C-0.0169971 8.18529 -0.0103397 7.98378 0.142861 7.82258C0.795629 7.13458 1.38845 6.42356 2.28101 5.89964C3.36674 5.26346 4.48577 4.71653 5.67807 4.26458C6.55398 3.93066 7.45653 3.68886 8.41903 3.66007C8.68546 3.65143 8.91193 3.63991 8.90194 3.32902C8.90194 3.22827 9.04182 3.15054 9.13174 3.21963C9.71124 3.66294 10.364 3.3866 10.9801 3.35782C11.9227 3.31176 12.8685 3.18797 13.7944 3.05843C15.1432 2.86844 16.5087 2.80799 17.8575 2.61512C19.0931 2.43665 20.3653 2.3762 21.6342 2.34741C22.287 2.33302 22.9498 2.37331 23.6192 2.24665C24.222 2.1315 24.8748 2.22074 25.5042 2.22649C27.629 2.24664 29.7539 2.21786 31.8787 2.22649C33.7238 2.23513 35.5755 2.20634 37.4206 2.20922C39.7186 2.21498 42.0166 2.2265 44.3079 2.3071C45.9432 2.36468 47.5718 2.37619 49.207 2.3071C49.993 2.27256 50.789 2.40211 51.5716 2.35029C52.9238 2.26105 54.2726 2.33877 55.6248 2.28983C56.534 2.25817 57.4499 2.24377 58.3558 2.19771C59.4348 2.14302 60.5139 2.23802 61.5996 2.09697C62.2024 2.01925 62.8519 2.01637 63.4847 2.025C64.9434 2.04803 66.3955 1.94728 67.8475 1.8638C68.8833 1.80335 69.9191 1.8235 70.9549 1.75441C73.8257 1.56154 76.7132 1.56442 79.584 1.31973C80.037 1.28231 80.4899 1.42912 80.9462 1.30246C81.0861 1.26216 81.2359 1.32837 81.2426 1.4867C81.2493 1.63063 81.1394 1.72561 80.9828 1.72273C80.4633 1.7141 79.9804 1.92425 79.4375 1.84365C78.7714 1.74577 78.1087 1.92424 77.4459 1.98182C76.9863 2.02212 76.53 2.05666 76.0771 1.98182C75.4676 1.88394 74.8948 1.96454 74.2587 2.16029C75.1845 2.27832 76.0338 2.10559 76.8831 2.09983C78.7081 2.0912 80.5399 2.07969 82.3616 1.9847C83.877 1.9041 85.3957 1.92425 86.9144 1.80911C88.0068 1.72562 89.1424 1.68532 90.2548 1.91849C90.9575 2.06531 91.6869 1.87819 92.4029 1.88107C93.3987 1.88683 94.3945 1.84076 95.3903 1.81485C95.5302 1.81197 95.7401 1.84076 95.7967 1.77743C96.2696 1.25064 96.889 1.53851 97.4486 1.53851C97.8016 1.53851 98.1513 1.55865 98.501 1.50972C98.8707 1.4579 99.207 1.50971 99.5767 1.61622C100.086 1.76016 100.649 1.64502 101.185 1.6076C102.005 1.55002 102.814 1.44928 103.65 1.55866C104.296 1.64502 104.962 1.49533 105.628 1.49533C106.754 1.49533 107.876 1.44926 109.002 1.50972C109.938 1.55865 110.86 1.38594 111.796 1.37731C112.499 1.37155 113.208 1.31685 113.884 1.55002C113.931 1.56729 113.988 1.58169 114.038 1.57594C115.696 1.32837 117.365 1.39745 119.037 1.4176C119.516 1.42335 120.006 1.36866 120.492 1.34851C122.264 1.27079 124.036 1.28518 125.807 1.23912C127.03 1.20746 128.252 1.08944 129.484 1.16141C130.493 1.22186 131.516 1.14125 132.532 1.09807C133.704 1.04626 134.879 1.10095 136.055 1.00883C138.37 0.824601 140.698 0.974285 143.016 0.841868C144.921 0.735358 146.829 0.695061 148.741 0.666275C150.879 0.631731 153.017 0.545368 155.155 0.536732C157.626 0.525218 160.098 0.45038 162.569 0.364021C163.551 0.329477 164.534 0.378409 165.513 0.358258C166.935 0.33235 168.354 0.26326 169.776 0.211444C171.355 0.153872 172.937 0.188425 174.518 0.185546C176.453 0.179789 178.392 0.222958 180.323 0.15675C181.582 0.11357 182.845 0.0905435 184.103 0.0156988C184.756 -0.0246022 185.409 0.0041913 186.032 0.202818C186.212 0.26039 186.438 0.323728 186.395 0.533869C186.348 0.767039 186.105 0.726734 185.922 0.69219C185.086 0.528108 184.29 0.853397 183.474 0.839004C182.688 0.827489 181.899 0.899456 181.119 0.767038C180.647 0.686436 180.184 0.715222 179.707 0.767038C178.808 0.870669 177.909 0.99445 176.996 0.784309C176.593 0.689314 176.194 0.913843 175.761 0.905207C174.618 0.882178 173.476 1.14414 172.324 0.887936C172.031 0.821727 171.674 0.965663 171.348 1.01748C170.425 1.17005 169.506 0.977169 168.584 1.00883C167.564 1.04338 166.549 1.18155 165.536 1.19019C164.297 1.2017 163.048 1.41472 161.813 1.1355C161.713 1.11247 161.6 1.08368 161.506 1.10383C160.69 1.29382 159.868 1.31109 159.035 1.22761C158.879 1.21322 158.709 1.19019 158.562 1.22761C157.956 1.37442 157.347 1.37443 156.737 1.28519C155.958 1.17004 155.199 1.31397 154.433 1.38305C153.01 1.50971 151.588 1.33699 150.17 1.4176C149.397 1.46078 148.618 1.59032 147.858 1.53563C146.34 1.42336 144.861 1.76879 143.342 1.68819C141.7 1.60471 140.048 1.75728 138.4 1.80334C137.264 1.83501 136.122 1.83214 134.983 1.84653C132.155 1.88395 129.328 1.8638 126.503 1.95016C125.504 1.97894 124.498 1.9703 123.506 1.96455C122.5 1.95879 121.531 1.92712 120.552 2.17468C120.206 2.26104 119.786 2.15166 119.403 2.11424C118.507 2.02788 117.618 2.1459 116.729 2.2006C116.156 2.23514 115.636 2.01635 115.06 2.08256C114.074 2.19483 113.058 1.97893 112.086 2.28407C112.009 2.3071 111.909 2.29559 111.823 2.28695C110.444 2.15453 109.052 2.21211 107.68 2.12863C106.424 2.05379 105.205 2.24954 103.966 2.20348C103.313 2.18045 102.664 2.20347 102.025 2.34165C101.841 2.38195 101.638 2.40211 101.448 2.38483C99.8232 2.22075 98.1713 2.25817 96.566 2.35029C95.0107 2.43953 93.452 2.39635 91.9 2.50861C90.8176 2.58634 89.6986 2.60649 88.6362 2.45392C87.1475 2.2409 85.742 2.56619 84.3033 2.69285C83.1909 2.79072 82.0785 2.90011 80.9562 2.85405C80.2901 2.82527 79.6207 2.85405 78.9513 2.87133C78.7548 2.87708 78.5416 2.8857 78.3085 3.03539C78.6349 3.13902 78.9146 3.11888 79.1844 3.10161C80.793 2.98935 82.4116 3.14767 84.0169 3.00661C85.8253 2.85117 87.6371 2.94617 89.4488 2.8886C91.0541 2.83678 92.6694 2.82238 94.2813 2.83102C95.1539 2.83678 96.0265 2.74466 96.889 2.92314C97.2887 3.00662 97.6517 2.83101 98.0147 2.77056C98.8673 2.62663 99.6866 2.71587 100.519 2.81375C100.919 2.85981 101.309 2.90585 101.715 2.78495C102.061 2.68132 102.428 2.67557 102.807 2.71587C103.593 2.80223 104.383 2.67845 105.165 2.63239C105.458 2.61512 105.711 2.71011 105.995 2.69571C107.88 2.60072 109.768 2.62663 111.656 2.59209C113.571 2.55754 115.49 2.57769 117.405 2.51436C119.047 2.46254 120.702 2.51437 122.35 2.56331C122.587 2.56907 122.867 2.59785 122.99 2.74178C123.379 3.20237 123.959 3.15918 124.468 3.14478C125.185 3.12463 125.907 3.1304 126.757 3.10449C126.28 2.89435 125.907 2.84254 125.511 2.92602C125.061 3.02102 124.608 3.05267 124.149 3.021C123.926 3.00373 123.693 2.92601 123.683 2.71875C123.673 2.50285 123.942 2.55467 124.095 2.54027C124.758 2.47694 125.421 2.39345 126.087 2.3877C127.882 2.36755 129.684 2.44529 131.476 2.36756C134.123 2.25242 136.778 2.37907 139.422 2.15741C139.925 2.11423 140.441 2.17757 140.948 2.21787C141.251 2.24378 141.554 2.25241 141.84 2.18333C142.4 2.04803 142.946 2.07394 143.505 2.16894C143.745 2.20924 143.995 2.21211 144.228 2.10848C144.425 2.02212 144.638 2.01348 144.848 2.03651C145.773 2.14302 146.699 2.0912 147.622 2.0106C148.185 1.96166 148.737 2.07106 149.304 2.01924C151.329 1.83501 153.367 1.76592 155.398 1.82061C157.643 1.88106 159.884 1.8494 162.126 1.80622C163.175 1.78607 164.227 1.81773 165.28 1.76304C165.52 1.75152 165.766 1.82348 166.006 1.86666C166.136 1.89257 166.229 1.96743 166.209 2.09697C166.189 2.22363 166.079 2.28119 165.949 2.28407C165.633 2.29559 165.316 2.28984 165 2.29271C162.769 2.32438 160.531 2.29847 158.306 2.41361C157.01 2.47982 155.705 2.35028 154.416 2.55178C153.836 2.64102 153.26 2.47695 152.677 2.49422C152.081 2.51437 151.485 2.53164 150.889 2.56043C149.42 2.62951 147.948 2.6439 146.479 2.66117C145.46 2.67269 144.425 2.66117 143.429 2.74753C141.687 2.89146 139.952 2.75329 138.22 2.8598C135.765 3.01237 133.304 2.98071 130.846 3.06131C129.877 3.09297 128.931 2.95191 127.975 2.98358C127.786 2.98934 127.596 3.01813 127.309 3.04404C127.852 3.23691 128.318 3.2916 128.805 3.30024C130.207 3.32327 131.609 3.4125 133.011 3.38371C135.096 3.34053 137.181 3.28872 139.266 3.29736C139.409 3.29736 139.559 3.29159 139.662 3.19948C139.922 2.97206 140.258 2.96631 140.551 3.04116C141.6 3.31175 142.649 3.07858 143.698 3.08434C144.624 3.08722 145.56 3.04691 146.479 2.98934C147.905 2.89723 149.32 3.01524 150.742 2.94616C152.657 2.85404 154.582 2.76193 156.491 2.8598C157.533 2.91449 158.552 2.67845 159.581 2.82814C160.221 2.92313 160.79 2.58058 161.446 2.61512C164.051 2.75618 166.652 2.49997 169.26 2.523C169.769 2.52588 170.275 2.61224 170.785 2.50573C170.888 2.4827 171.008 2.51725 171.045 2.618C171.095 2.75618 170.968 2.80223 170.855 2.84829C170.595 2.94904 170.332 3.0354 170.042 3.02388C168.95 2.97783 167.878 3.16205 166.799 3.25129C166.196 3.30023 165.61 3.18508 165.007 3.21675C163.641 3.28871 162.272 3.2254 160.907 3.2657C160.108 3.28873 159.298 3.31462 158.502 3.3981C157.62 3.49022 156.747 3.3722 155.868 3.3981C153.956 3.4528 152.045 3.45856 150.133 3.54204C149.147 3.58522 148.138 3.5881 147.139 3.51326C146.173 3.44129 145.214 3.62553 144.248 3.64568C142.936 3.67447 141.624 3.71765 140.321 3.82416C139.349 3.90476 138.396 3.85293 137.434 3.78097C137.031 3.75218 136.638 3.77808 136.242 3.90187C135.749 4.05443 135.216 3.94218 134.723 3.89324C133.887 3.80688 133.078 3.96807 132.252 3.95368C129.884 3.90762 127.509 4.06883 125.151 3.76082C124.422 3.66582 123.702 3.56508 122.96 3.71477C122.657 3.77522 122.37 3.59673 122.124 3.47295C121.181 3.00373 120.242 3.29735 119.31 3.44992C119.043 3.4931 118.82 3.61113 118.587 3.40675C118.49 3.32327 118.36 3.3578 118.234 3.36068C117.584 3.37795 116.932 3.38659 116.282 3.3981C115.943 3.40386 115.576 3.32038 115.353 3.67158C115.27 3.80112 115.067 3.75794 114.91 3.73204C114.654 3.69174 114.401 3.65144 114.117 3.60826C114.151 3.66871 114.157 3.70613 114.181 3.71477C114.371 3.79249 114.727 3.72916 114.694 4.00263C114.657 4.29625 114.347 4.25883 114.068 4.25595C113.558 4.25019 113.048 4.29625 112.539 4.31065C112.406 4.31353 112.219 4.3279 112.199 4.16958C112.182 4.0314 112.369 4.04868 112.469 3.99687C112.812 3.81551 113.205 3.83279 113.588 3.74643C113.065 3.5075 112.502 3.55643 111.963 3.65143C111.643 3.709 111.386 3.73203 111.13 3.54204C110.807 3.30311 110.454 3.52189 110.118 3.53053C110.068 3.53053 110.001 3.63703 109.978 3.70612C109.944 3.80975 110.048 3.83854 110.138 3.83278C110.451 3.81263 110.73 4.02277 111.067 3.90475C111.247 3.84142 111.51 3.88748 111.53 4.0861C111.55 4.28185 111.287 4.2761 111.123 4.28473C109.878 4.36245 108.646 4.23867 107.413 4.08899C107.097 4.04868 107.077 3.99111 107.137 3.73204C107.147 3.69461 107.147 3.63703 107.124 3.61688C107.057 3.55931 106.974 3.55644 106.88 3.58522C105.761 3.91915 104.659 3.73203 103.56 3.49599C103.407 3.46432 103.287 3.44129 103.184 3.5478C103.144 3.5881 103.1 3.6687 103.124 3.70612C103.187 3.81263 103.327 3.81552 103.447 3.82416C104.06 3.87597 104.676 3.85581 105.292 3.89036C105.608 3.90763 105.888 4.0458 106.218 4.01414C106.001 4.21276 105.741 4.24731 105.438 4.29049C104.02 4.492 102.601 4.24156 101.182 4.36246C100.226 4.44306 99.257 4.41715 98.2912 4.42578C97.4119 4.43442 96.5294 4.42579 95.6501 4.48624C96.0731 4.59563 96.4927 4.65032 96.9257 4.60714C97.0989 4.58987 97.2754 4.57548 97.4519 4.57548C98.6608 4.58411 99.8665 4.54956 101.072 4.52941C101.871 4.51789 102.684 4.52942 103.49 4.55821C104.296 4.58411 105.099 4.50639 105.911 4.53517C107.014 4.57259 108.119 4.56396 109.225 4.55244C110.837 4.53517 112.452 4.48624 114.064 4.50639C115.873 4.52942 117.681 4.48336 119.493 4.53517C120.605 4.56684 121.734 4.6129 122.857 4.50927C123.519 4.44882 124.195 4.47183 124.835 4.69061C125.138 4.79424 125.461 4.77698 125.774 4.75107C127.246 4.62729 128.721 4.71077 130.194 4.66183C131.126 4.63017 132.055 4.58699 132.988 4.57836C133.491 4.57548 134.034 4.84319 134.496 4.44593C134.56 4.39124 134.693 4.43154 134.73 4.50063C134.953 4.9353 135.422 4.8144 135.789 4.82304C136.611 4.83743 137.444 4.8547 138.253 4.75395C139.386 4.6129 140.515 4.56684 141.65 4.55821C142.176 4.55533 142.699 4.52366 143.226 4.53805C144.841 4.58123 146.453 4.46321 148.065 4.44593C149.187 4.43442 150.309 4.40563 151.432 4.38548C153.363 4.35381 155.295 4.32216 157.223 4.25595C158.056 4.22717 158.915 4.26458 159.745 4.24443C160.817 4.21564 161.883 4.28762 162.952 4.27322C164.557 4.25307 166.169 4.08034 167.784 4.31351C168.304 4.38836 168.883 4.40275 169.453 4.29624C170.026 4.18973 170.642 4.17535 171.228 4.22141C171.997 4.27898 172.767 4.2214 173.533 4.25019C175.594 4.32503 177.662 4.36245 179.727 4.31351C180.47 4.29624 181.203 4.39701 181.942 4.39988C183.101 4.40564 184.26 4.40275 185.419 4.33366C186.505 4.26745 187.587 4.4373 188.666 4.50639C189.985 4.59275 191.334 4.69638 192.663 4.50639C193.162 4.43443 193.649 4.48048 194.135 4.51502C195.697 4.62441 197.269 4.48912 198.824 4.63305C200.859 4.81729 202.907 4.67046 204.939 4.87197C205.385 4.91515 205.811 4.92091 206.228 4.64744C206.474 4.48336 206.894 4.52077 207.19 4.67334C207.94 5.06196 208.722 5.00728 209.511 4.85183C209.755 4.8029 209.924 4.84031 210.084 4.97273C210.201 5.06773 210.321 5.17423 210.274 5.3268C210.221 5.49664 210.038 5.50528 209.885 5.49376C209.019 5.42468 208.126 5.53406 207.3 5.18287C207.04 5.07348 206.734 4.98136 206.497 5.2721C206.447 5.33543 206.308 5.39589 206.224 5.38437C205.628 5.30089 205.029 5.39301 204.443 5.36134C203.237 5.29225 202.035 5.24619 200.829 5.23468C199.28 5.21741 197.732 5.27786 196.186 5.1109C195.773 5.06772 195.334 5.08788 194.924 5.15697C194.148 5.28939 193.389 5.05045 192.629 5.11378C191.933 5.17423 191.251 5.22893 190.545 5.17136C189.116 5.05333 187.687 5.25483 186.255 5.25483C185.309 5.25483 184.363 5.22317 183.417 5.24332C182.688 5.25772 181.972 5.46498 181.226 5.36998C180.014 5.21454 178.795 5.43906 177.579 5.34407C177.306 5.32392 177.013 5.35847 176.743 5.41892C175.894 5.61179 175.048 5.40164 174.205 5.41892C173.906 5.42467 173.606 5.41892 173.316 5.49665C172.9 5.61179 172.487 5.62042 172.071 5.50239C171.661 5.38725 171.245 5.57148 170.825 5.46785C170.672 5.43043 170.349 5.45058 170.372 5.72405C170.392 5.95722 170.645 5.97162 170.855 5.99753C171.031 6.01768 171.145 5.90252 171.285 5.84495C171.781 5.63769 172.3 5.74997 172.47 6.16449C172.567 6.39766 172.707 6.4178 172.927 6.43795C174.049 6.54446 175.175 6.49841 176.3 6.48114C177.283 6.46674 178.269 6.50129 179.254 6.52432C180.853 6.56462 182.448 6.74309 184.044 6.74309C185.566 6.74309 187.094 6.63946 188.623 6.60203C189.589 6.57901 190.558 6.5675 191.52 6.61068C192.127 6.63947 192.726 6.87551 193.342 6.75461C194.698 6.48978 196.07 6.6337 197.435 6.60203C198.751 6.57037 200.073 6.56462 201.389 6.6078C202.984 6.66249 204.586 6.72007 206.174 6.7028C207.453 6.6884 208.702 6.82945 209.948 6.95036C211.486 7.09717 213.035 7.10004 214.567 7.26412C216.092 7.4282 217.624 7.49442 219.15 7.62109C220.509 7.73335 221.857 7.93773 223.213 8.09605C223.509 8.13059 223.809 8.12772 224.109 8.15075C224.275 8.16226 224.519 8.1306 224.522 8.33786C224.522 8.55088 224.282 8.51634 224.116 8.5221C223.18 8.56816 222.254 8.47604 221.321 8.40983C219.549 8.28605 217.778 8.17378 216.006 8.06727C215.41 8.02985 214.81 8.01258 214.241 7.8341C213.888 7.72183 213.548 7.90031 213.195 7.88303C211.773 7.80819 210.351 7.74199 208.932 7.65851C207.916 7.59806 206.904 7.51744 205.878 7.52032C205.378 7.52032 204.866 7.55198 204.373 7.49729C203.27 7.37063 202.161 7.53471 201.059 7.42532C200.729 7.39366 200.389 7.44548 200.073 7.30731C200.013 7.2814 199.926 7.26125 199.87 7.27853C198.787 7.58366 197.708 7.29292 196.629 7.25837C196.066 7.2411 195.504 7.30443 194.947 7.31019C193.748 7.32746 192.546 7.267 191.347 7.20942C190.994 7.19215 190.651 7.19504 190.298 7.22095C188.853 7.32458 187.404 7.43972 185.955 7.46851C185.036 7.48578 184.13 7.51745 183.214 7.6182C182.348 7.7132 181.459 7.60956 180.58 7.62395C178.648 7.65561 176.717 7.71607 174.785 7.75061C173.949 7.765 173.113 7.75061 172.274 7.82258C172.56 8.00393 172.863 8.15363 173.183 8.08742C174.678 7.76789 176.197 7.92334 177.706 7.86864C178.199 7.85137 178.692 7.88303 179.181 7.81107C179.787 7.71895 180.347 7.96939 180.943 8.00393C182.442 8.09605 183.93 8.02408 185.422 7.98666C186.901 7.94924 188.38 7.97227 189.862 7.96651C192.163 7.95787 194.468 7.95212 196.769 7.94061C196.969 7.94061 197.196 7.92333 197.212 8.15075C197.229 8.37528 197.026 8.38104 196.812 8.40695C195.953 8.51058 195.087 8.40983 194.228 8.46453C194.191 8.46453 194.138 8.45588 194.125 8.47315C193.758 8.8848 193.372 8.58543 193.036 8.46453C192.486 8.2659 191.957 8.44724 191.421 8.453C191.357 8.453 191.267 8.4818 191.237 8.5221C191.144 8.65164 191.177 8.89057 190.891 8.84451C190.571 8.79269 190.198 8.8848 189.948 8.63436C189.802 8.49042 189.775 8.53936 189.662 8.6689C189.486 8.86465 189.232 8.88192 189.049 8.65739C188.933 8.51634 188.789 8.51633 188.633 8.52785C188.207 8.55951 187.8 8.81283 187.354 8.61997C186.874 9.1007 186.225 8.71209 185.665 8.86178C185.256 8.97117 184.816 8.93086 184.413 8.67466C184.097 8.47028 183.714 8.55088 183.311 8.61708C182.581 8.73511 181.869 9.09494 181.069 8.78405C180.696 8.63724 180.247 8.7236 179.841 8.7092C179.025 8.67754 178.232 9.07479 177.416 8.76678C177.136 8.66315 176.873 8.84738 176.597 8.83298C176.547 9.0057 176.836 9.17266 176.57 9.29932C176.32 9.41735 176.184 9.27918 176.06 9.11222C175.987 9.01147 175.844 8.98268 175.731 9.00571C175.075 9.14101 174.429 8.94813 173.782 8.93949C173.086 8.93086 172.39 8.90783 171.691 8.93949C171.291 8.95676 170.855 8.83875 170.602 9.27342C170.515 9.42311 170.226 9.39721 170.059 9.331C169.713 9.19858 169.34 9.18995 168.99 9.09783C168.773 9.04026 168.6 8.98268 168.45 9.20146C168.327 9.37705 168.177 9.28206 168.067 9.1698C167.798 8.89633 167.415 8.84737 167.055 8.86752C166.812 8.88192 166.352 8.81571 166.469 9.28205C166.499 9.40007 166.425 9.49219 166.279 9.51522C166.126 9.54113 165.999 9.49507 165.923 9.37417C165.836 9.23599 165.843 9.01722 165.583 9.01434C165.097 9.00858 164.61 8.84451 164.121 9.00571C163.911 9.0748 163.948 9.14964 164.054 9.27342C164.167 9.40296 164.584 9.44901 164.381 9.639C164.191 9.81747 163.881 10.0104 163.495 9.91536C162.812 9.74839 162.782 9.65627 163.318 9.02873C162.889 9.04888 162.492 9.09783 162.099 9.07768C161.16 9.03162 160.231 9.19858 159.275 9.02298C158.189 8.82436 157.07 9.04601 155.968 9.09207C154.306 9.16403 152.644 9.2763 150.986 9.3972C149.52 9.50371 148.055 9.73113 146.569 9.65052C146.39 9.64189 146.19 9.63036 146.16 9.83763C146.133 10.0276 146.183 10.1946 146.436 10.2752C146.879 10.4134 147.329 10.3356 147.785 10.3068C147.692 10.2781 147.595 10.255 147.502 10.2234C147.339 10.1687 147.222 10.0737 147.292 9.90959C147.355 9.75702 147.505 9.7081 147.678 9.74552C147.895 9.79158 148.141 9.79445 148.288 9.98156C148.471 10.2147 148.598 10.1543 148.744 9.94127C148.971 9.61598 149.377 9.71672 149.64 9.80308C150.016 9.92399 149.583 10.0247 149.53 10.1687C149.84 10.2349 150.136 10.3299 150.14 9.89808C150.14 9.79733 150.18 9.71386 150.299 9.68795C150.423 9.66204 150.496 9.72824 150.539 9.82324C150.659 10.0852 150.762 10.0593 150.889 9.81749C150.959 9.68219 151.152 9.63037 151.199 9.79158C151.339 10.2752 151.772 10.0363 152.078 10.1399C152.091 10.0017 152.008 9.97292 151.925 9.94702C151.785 9.90096 151.492 10.0046 151.562 9.75127C151.612 9.57279 151.875 9.60735 152.025 9.65341C152.581 9.82037 153.194 9.61021 153.736 9.8549C153.8 9.88368 153.933 9.87505 153.986 9.83763C154.499 9.44613 155.115 9.75415 155.665 9.64764C155.725 9.63613 155.845 9.66491 155.855 9.69369C156.061 10.2608 156.291 9.87218 156.567 9.73688C156.85 9.59583 157.223 9.75704 157.533 9.61886C157.55 9.61023 157.643 9.68794 157.66 9.73688C157.69 9.82324 157.603 9.86642 157.537 9.91824C157.154 10.2205 156.714 10.3587 156.168 10.2291C156.171 10.2694 156.178 10.3097 156.184 10.35C156.524 10.3817 156.864 10.4479 157.203 10.445C158.832 10.4249 160.467 10.3846 162.093 10.4047C163.724 10.4249 165.356 10.2637 166.988 10.4249C167.331 10.4594 167.688 10.3846 168.037 10.3702C169.44 10.3126 170.842 10.422 172.25 10.3903C173.256 10.3673 174.239 10.7242 175.268 10.6839C175.391 10.6782 175.574 10.753 175.634 10.8394C176.137 11.5706 176.9 11.2079 177.579 11.2367C177.622 11.6051 177.546 11.726 177.136 11.7347C176.344 11.7519 175.551 11.7375 174.758 11.7347C174.548 11.7347 174.379 11.6713 174.305 11.4813C174.252 11.3374 174.132 11.2914 173.976 11.346C173.709 11.4324 173.989 11.4928 173.996 11.5648C174.009 11.7922 173.802 11.7433 173.666 11.7462C173.103 11.7548 172.537 11.7577 171.974 11.7462C169.656 11.6944 167.345 11.7951 165.03 11.8325C162.675 11.87 160.321 11.9045 157.966 11.9419C157.766 11.9448 157.553 11.916 157.243 12.0772C158.522 12.1204 159.665 12.0945 160.807 12.1118C161.846 12.1262 162.869 11.8959 163.924 12.0657C164.357 12.1348 164.903 12.0398 165.343 12.0743C166.099 12.1348 166.825 12.0052 167.564 12.0196C168.697 12.0398 169.823 12.0571 170.952 12.1578C171.568 12.2125 172.217 12.1405 172.843 12.1981C174.052 12.3104 175.261 12.2183 176.47 12.2442C177.906 12.2758 179.348 12.3507 180.78 12.2787C182.165 12.2068 183.547 12.2557 184.933 12.2125C186.861 12.1521 188.799 12.2355 190.728 12.1693C192.023 12.1262 193.326 12.2586 194.614 12.0427C194.681 12.0312 194.778 12.0139 194.821 12.0427C195.407 12.4284 196.07 12.1492 196.693 12.2068C196.902 12.2269 197.099 12.2442 197.112 12.4601C197.129 12.6933 196.946 12.7192 196.719 12.7048C196.143 12.6645 195.614 12.9034 195.024 12.912C194.568 12.9178 194.092 12.9811 193.629 12.9638C192.786 12.9293 191.947 12.8026 191.104 12.794C190.538 12.7882 189.988 13.0272 189.409 13.0272C189.219 13.0272 189.239 13.1913 189.159 13.2805C189.006 13.4532 188.773 13.5194 188.55 13.4244C188.31 13.3208 188.53 13.1625 188.55 13.056C187.374 12.7479 186.188 12.9782 185.009 12.9897C184.763 12.9897 184.516 12.9782 184.273 12.9811C183.854 12.984 183.447 12.9725 183.104 13.2747C182.835 13.5137 182.618 13.4417 182.522 13.1366C182.465 12.961 182.292 13.0272 182.172 13.0272C181.486 13.0185 180.813 13.1826 180.124 13.1078C180.087 13.2978 180.413 13.3553 180.264 13.5309C180.117 13.7008 179.894 13.6662 179.731 13.5943C179.111 13.3237 178.585 13.6777 178.019 13.7555C177.812 13.7843 177.612 13.9023 177.413 13.8994C176.437 13.885 175.454 14.0894 174.482 13.8361C174.086 13.7324 173.709 13.7871 173.3 13.8764C172.71 14.003 172.071 14.0203 171.468 13.885C170.499 13.6662 169.556 13.8102 168.604 13.9685C168.107 14.052 167.611 14.1498 167.088 14.075C166.392 13.9742 165.693 14.0376 164.993 14.0951C165.007 14.2362 165.113 14.216 165.187 14.2132C166.432 14.1585 167.674 14.2621 168.927 14.1585C169.912 14.075 170.928 14.2736 171.924 14.1844C173.366 14.0577 174.805 14.265 176.24 14.1815C176.853 14.147 177.456 14.0232 178.065 13.9627C178.348 13.9339 178.861 13.8533 178.871 14.0491C178.888 14.3485 178.432 14.1613 178.185 14.2103C177.909 14.265 177.652 14.3485 177.246 14.5269C177.619 14.6018 177.822 14.786 178.085 14.5298C178.139 14.478 178.249 14.4118 178.302 14.4262C178.901 14.5989 179.474 14.3341 180.074 14.3629C181.592 14.4291 183.118 14.383 184.643 14.3427C185.359 14.3226 186.078 14.3744 186.798 14.3974C186.964 14.4032 187.108 14.4636 187.204 14.5816C187.307 14.7083 187.564 14.7975 187.427 14.9962C187.301 15.1804 187.084 15.0624 186.898 15.0653C186.322 15.071 185.792 14.9472 185.319 14.6881C185.199 14.7688 185.263 14.8407 185.286 14.9098C185.316 14.9962 185.389 15.094 185.272 15.1574C185.153 15.2236 185.036 15.1574 184.933 15.094C184.313 14.7083 183.541 14.6853 182.891 15.048C182.715 15.1459 182.588 15.0796 182.468 14.9875C182.258 14.8292 182.012 14.8493 181.766 14.858C181.586 14.8637 181.389 14.8724 181.466 15.1142C181.489 15.1833 181.456 15.2725 181.386 15.2466C180.816 15.0307 180.31 15.8943 179.667 15.1257C179.9 15.8194 180.533 15.9404 181.063 15.6986C181.702 15.4049 182.448 15.3473 183.171 15.4337C183.597 15.4826 183.974 15.6064 184.433 15.4395C184.816 15.2984 185.239 15.4308 185.399 15.854C185.432 15.9404 185.462 16.0843 185.556 16.0699C186.075 15.9979 186.601 16.185 187.114 16.0325C187.257 15.9893 187.284 15.9231 187.201 15.7878C187.041 15.5345 187.221 15.4711 187.481 15.4625C188.346 15.428 189.216 15.3848 190.082 15.3502C190.591 15.3301 191.101 15.3186 191.61 15.3157C191.79 15.3157 191.99 15.3474 191.997 15.546C192.003 15.7216 191.817 15.7417 191.66 15.7791C191.317 15.8598 190.968 15.8713 190.615 15.8684C190.415 15.8684 190.195 15.8051 189.952 16.0037C190.761 16.0958 191.49 15.972 192.216 15.8799C192.936 15.0566 193.942 15.379 194.871 15.379C195.307 15.379 195.747 15.3301 196.183 15.2927C196.336 15.2811 196.456 15.2149 196.443 15.0595C196.43 14.904 196.306 14.858 196.15 14.8609C195.907 14.8666 195.657 14.8263 195.437 14.9674C195.244 15.0912 195.041 15.2092 194.921 14.8868C194.891 14.8033 194.768 14.7975 194.711 14.8753C194.338 15.3819 193.848 15.1286 193.412 15.0019C193.176 14.9328 193.026 14.9674 192.796 15.0192C191.977 15.2092 191.131 15.2322 190.305 15.0249C190.052 14.9616 189.829 14.8119 189.582 15.0249C189.549 15.0537 189.462 15.0796 189.439 15.0624C188.973 14.7428 188.373 14.9386 187.874 14.7601C187.747 14.7141 187.581 14.6824 187.597 14.5269C187.61 14.4003 187.76 14.3657 187.877 14.3542C188.773 14.2621 189.662 14.3427 190.548 14.4636C190.638 14.4751 190.731 14.6219 190.818 14.5241C191.091 14.216 191.327 14.2564 191.57 14.5442C191.587 14.5615 191.644 14.5759 191.664 14.5644C192.436 14.1671 193.272 14.3744 194.088 14.3657C194.914 14.3571 195.733 14.3197 196.563 14.3571C197.452 14.3974 198.351 14.3341 199.244 14.3859C199.464 14.3974 199.76 14.3341 199.813 14.596C199.867 14.8522 199.557 14.904 199.364 14.9731C199.047 15.0883 198.704 15.0854 198.388 14.9559C198.081 14.8321 197.772 14.8378 197.459 14.8839C197.342 14.9012 197.179 14.9357 197.179 15.0537C197.179 15.2034 197.365 15.238 197.492 15.2437C197.825 15.2524 198.158 15.2178 198.491 15.2236C199.84 15.2495 201.189 15.3042 202.534 15.3099C203.793 15.3128 205.045 15.3992 206.311 15.3099C207.956 15.1948 209.608 15.4078 211.257 15.5028C212.872 15.5949 214.487 15.6496 216.099 15.7734C218.694 15.972 221.291 16.0843 223.886 16.2743C225.794 16.4153 227.696 16.614 229.611 16.6946C230.483 16.732 231.353 16.8846 232.222 16.9767C233.897 17.1523 235.572 17.3135 237.244 17.4977C237.714 17.5495 238.173 17.6589 238.643 17.7194C238.966 17.7597 239.292 17.7625 239.635 17.6848C239.406 17.6359 239.169 17.5351 238.943 17.5466C238.227 17.5869 237.571 17.2876 236.861 17.2991C236.671 17.2991 236.471 17.2645 236.292 17.207C235.019 16.7953 233.667 16.8241 232.355 16.6427C231.626 16.542 230.77 16.6427 230.204 16.0526C230.174 16.021 230.157 15.9807 230.12 15.9202C230.51 15.782 230.88 15.9001 231.216 15.9663C232.315 16.185 233.451 16.1476 234.55 16.3664C235.715 16.5967 236.894 16.7665 238.067 16.9536C238.48 17.0198 238.899 17.0832 239.316 17.112C240.751 17.2098 242.16 17.4718 243.569 17.7021C245.147 17.9612 246.759 18.0648 248.308 18.4764C248.454 18.5167 248.621 18.4966 248.781 18.5024C249.434 18.5283 249.553 18.7125 249.23 19.199C249.407 19.294 249.557 19.1069 249.733 19.1644C249.873 19.2105 250.006 19.2652 250 19.4091C249.99 19.5703 249.823 19.6164 249.69 19.5818C249.154 19.4494 248.554 19.5502 248.061 19.2681C247.835 19.1385 247.589 19.1759 247.345 19.1587C247.196 19.1472 246.976 19.1702 246.986 18.9802C246.999 18.7729 247.235 18.7729 247.395 18.8017C247.802 18.8766 248.195 19.009 248.621 19.0119C248.688 19.0119 248.754 19.0205 248.867 19.0291C248.518 18.6952 248.051 18.7758 247.665 18.6837C247.179 18.5657 246.649 18.5772 246.14 18.5369C246.09 18.534 246.017 18.5283 245.987 18.5542C245.31 19.1328 244.531 18.7384 243.802 18.7125C242.14 18.6549 240.498 18.3987 238.846 18.2318C236.948 18.0389 235.053 17.8201 233.151 17.633C232.665 17.5841 232.165 17.6042 231.672 17.5927C231.366 17.5869 231.336 17.7107 231.492 17.8978C231.699 18.1425 231.955 18.3527 232.145 18.6117C232.295 18.8132 232.398 18.6808 232.448 18.5225C232.655 17.8691 232.911 17.7338 233.684 17.8518C234.064 17.9093 234.423 18.0533 234.816 18.0619C234.939 18.0619 235.069 18.1051 235.103 18.2289C235.139 18.3757 235.003 18.4016 234.88 18.4275C234.796 18.4477 234.683 18.4477 234.673 18.5398C234.656 18.6549 234.786 18.6722 234.873 18.7182C235.053 18.8132 235.213 18.96 235.406 18.9975C235.546 19.0263 236.009 19.3084 235.825 18.7787C235.782 18.6492 235.932 18.6031 236.019 18.6722C236.415 18.9831 236.938 19.0378 237.401 19.2076C237.577 19.271 237.807 19.3688 237.734 19.5617C237.657 19.769 237.397 19.7229 237.234 19.6509C236.805 19.4638 236.365 19.6337 235.932 19.5847C234.556 19.435 233.171 19.3515 231.802 19.1616C230.906 19.0378 230.01 18.9284 229.115 18.8132C228.598 18.7442 228.105 18.9111 227.596 18.9198C227.493 18.9198 227.379 18.9745 227.286 18.9543C225.528 18.583 223.703 18.9025 221.934 18.5513C221.291 18.4246 220.605 18.4649 219.939 18.4275C219.646 18.4102 219.33 18.4678 219.136 18.1886C219.09 18.1224 218.97 18.0677 218.91 18.1252C218.52 18.4851 218.231 18.226 217.904 18.0389C217.784 17.9698 217.601 17.9756 217.445 17.9669C215.989 17.8834 214.534 17.7625 213.075 17.7424C212.206 17.728 211.337 17.7568 210.471 17.6474C210.461 17.6934 210.454 17.7395 210.444 17.7856C210.917 17.8691 211.39 17.9784 211.869 18.0302C213.012 18.154 214.164 18.2001 215.303 18.2922C216.262 18.3699 217.228 18.4016 218.187 18.4736C219.679 18.5829 221.175 18.7154 222.673 18.7758C223.103 18.7931 223.493 18.9543 223.919 18.9629C225.071 18.986 226.224 19.0637 227.373 19.1472C228.042 19.1961 228.665 19.3947 229.308 19.5271C229.764 19.6193 230 19.8898 229.731 20.3619V20.2842ZM152.624 20.2583C153.377 20.2123 154.126 20.4023 154.879 20.267C155.062 20.2353 155.312 20.2554 155.322 20.48C155.332 20.7074 155.092 20.7131 154.899 20.7275C154.582 20.7477 154.249 20.693 153.836 20.9377C155.248 20.8859 156.511 20.7391 157.82 20.7995C157.69 20.6671 157.44 20.7103 157.43 20.5145C157.42 20.3101 157.676 20.3188 157.83 20.195C157.543 20.1835 157.327 20.1489 157.187 20.3879C157.074 20.5836 156.84 20.5663 156.714 20.408C156.481 20.1144 156.131 20.1202 155.818 20.1432C155.169 20.1892 154.519 20.1374 153.87 20.1691C153.453 20.1892 153.024 20.1144 152.621 20.2612C152.514 20.2554 152.408 20.2583 152.304 20.2439C152.131 20.218 151.915 20.1921 151.925 19.9992C151.935 19.769 152.158 19.838 152.328 19.8438C152.454 19.8495 152.607 19.9215 152.684 19.7574C152.278 19.5934 151.475 19.5818 150.939 19.7315C151.462 20.4166 151.955 20.5721 152.617 20.2583H152.624ZM189.489 17.1638C189.209 17.1638 189.033 17.158 188.856 17.1638C188.003 17.2012 187.144 17.302 186.298 17.2617C185.452 17.2242 184.613 17.325 183.77 17.2789C183.684 17.2732 183.577 17.2847 183.577 17.3854C183.577 17.4747 183.677 17.5006 183.767 17.5092C183.854 17.5179 183.944 17.515 184.03 17.5207C184.22 17.5351 184.467 17.515 184.483 17.7366C184.5 17.9612 184.25 17.9899 184.064 17.9928C183.431 17.9986 182.798 17.9928 182.169 17.9727C181.925 17.964 181.556 18.0878 181.486 17.8C181.422 17.5466 181.829 17.5524 181.999 17.4142C182.032 17.3883 182.052 17.348 182.095 17.2933C176.04 17.4027 170.012 17.4085 163.994 17.7481C164.474 17.7971 164.953 17.8 165.433 17.7971C165.826 17.7971 166.242 17.6762 166.549 18.0331C166.669 18.1742 166.818 18.1022 166.952 17.9928C167.335 17.6733 167.834 17.7597 168.297 17.7251C168.454 17.7136 168.62 17.8 168.614 17.9727C168.604 18.1425 168.43 18.1771 168.274 18.2116C168.001 18.2721 167.784 18.0965 167.435 18.0187C167.651 18.2893 167.878 18.4764 168.121 18.4074C168.61 18.2721 169.09 18.4189 169.573 18.3584C170.875 18.1915 172.2 18.1339 173.506 18.1857C174.928 18.2404 176.344 18.1137 177.759 18.1771C178.672 18.2174 179.564 18.0159 180.49 18.1224C181.562 18.2461 182.681 18.3901 183.734 18.2548C185.033 18.085 186.312 18.2605 187.594 18.1598C187.75 18.1483 187.907 18.1799 188.067 18.1915C189.039 18.2663 190.008 18.4966 191.047 18.1684C190.182 18.1252 189.372 18.1224 188.59 17.8748C189.113 17.8575 189.119 17.4027 189.499 17.1609L189.489 17.1638ZM198.827 16.6802C208.139 16.7118 217.425 17.2098 226.693 17.9842C226.46 17.8547 226.254 17.7194 225.977 17.705C224.782 17.6445 223.603 17.4862 222.414 17.3739C220.828 17.2214 219.22 17.2501 217.628 17.1264C214.687 16.9018 211.74 16.7579 208.792 16.7291C207.04 16.7118 205.295 16.6485 203.55 16.5737C201.968 16.5046 200.399 16.5074 198.824 16.6802H198.827ZM130.387 7.06837C134.443 7.07701 138.496 7.08565 142.55 6.87551C141.361 6.90142 140.178 6.65386 138.996 6.77476C138.187 6.85824 137.424 6.81506 136.688 6.49841C136.388 6.37175 136.072 6.26524 135.722 6.37751C135.612 6.41205 135.442 6.42644 135.539 6.58188C135.702 6.8496 135.456 6.81505 135.299 6.8352C135.143 6.85535 134.966 6.82081 134.83 6.87263C134.423 7.02232 134.123 7.03096 133.85 6.65098C133.661 6.38615 133.384 6.46675 133.278 6.77188C133.224 6.92733 133.071 6.92444 132.935 6.92444C132.565 6.91868 132.195 6.91294 131.829 6.88127C131.333 6.83521 130.866 6.93596 130.39 7.07125L130.387 7.06837ZM199.93 17.2617C199.93 17.3135 199.93 17.3624 199.93 17.4142C201.132 17.3192 202.274 17.6704 203.48 17.656C205.472 17.6359 207.473 17.6647 209.455 17.9324C209.685 17.964 209.914 17.9669 210.174 17.7165C209.761 17.7107 209.442 17.8374 209.182 17.6733C208.496 17.2386 207.703 17.3394 206.944 17.3509C205.612 17.3682 204.283 17.3365 202.951 17.2732C201.945 17.2242 200.932 17.2645 199.923 17.2645L199.93 17.2617ZM160.887 6.56749H167.132C167.048 6.37462 166.762 6.366 166.845 6.16449C166.915 5.99753 167.095 5.9601 167.268 5.93419C167.551 5.89101 167.824 5.83056 168.061 5.66936C167.481 5.74996 166.905 5.72117 166.329 5.73844C166.106 5.7442 165.916 5.81329 165.849 6.02631C165.756 6.32281 165.54 6.41493 165.21 6.30266C165.11 6.26812 165.007 6.20766 164.91 6.25948C164.567 6.44083 164.487 6.22494 164.404 6.01768C164.354 5.8939 164.367 5.74132 164.134 5.74132C163.162 5.74708 162.186 5.74132 161.213 5.74132C161.746 5.83632 162.299 5.76436 162.812 5.96587C162.889 5.99753 163.025 5.96298 163.112 5.9198C163.511 5.73556 163.721 5.91405 163.928 6.19904C162.905 6.40054 161.893 6.37174 160.887 6.56461V6.56749ZM144.937 6.06949C144.701 6.90142 143.785 6.60779 143.149 7.01656C145.807 6.75748 148.334 6.95324 150.846 6.73446C150.286 6.53295 149.72 6.40341 149.117 6.51568C148.864 6.56174 148.608 6.54447 148.428 6.37751C148.121 6.09252 147.758 6.04646 147.462 6.34009C147.239 6.56174 146.986 6.65385 146.676 6.60492C146.31 6.54734 145.943 6.55887 145.574 6.55887C145.237 6.55887 144.864 6.60204 144.937 6.06949ZM231.013 17.538C225.764 16.9651 220.509 16.5161 215.117 16.3175C216.222 16.6399 217.258 16.5046 218.277 16.5852C219.027 16.6456 219.776 16.732 220.529 16.7492C222.427 16.7896 224.312 16.9306 226.167 17.2933C226.437 17.3451 226.713 17.3854 227.003 17.3624C227.969 17.2847 228.911 17.3077 229.854 17.5812C230.184 17.6762 230.62 17.6272 231.01 17.538H231.013ZM160.391 6.50705C159.988 6.42645 159.588 6.34584 159.185 6.26524C159.059 6.23933 158.935 6.20479 158.929 6.07526C158.922 5.96587 159.029 5.93132 159.125 5.88814C159.208 5.85071 159.342 5.88525 159.378 5.75283C158.659 5.68662 157.966 5.83343 157.137 5.86222C157.53 6.06085 157.806 5.95146 158.076 5.93995C158.303 5.93131 158.449 6.04358 158.479 6.2307C158.512 6.45523 158.303 6.46098 158.129 6.47537C157.64 6.51567 157.157 6.56461 156.657 6.52719C156.008 6.47825 155.342 6.45811 154.709 6.67976C156.597 6.73158 158.479 6.63947 160.391 6.50705ZM168.507 22.1208C168.887 22.2244 169.356 22.0546 169.589 22.4634C169.699 22.6591 169.426 22.685 169.316 22.7915C170.172 22.8779 171.008 22.9527 171.864 22.7311C171.651 22.5325 171.448 22.5094 171.205 22.5728C171.065 22.6102 170.888 22.5814 170.882 22.4259C170.872 22.2475 171.061 22.259 171.195 22.282C171.514 22.3425 171.788 22.2503 172.141 22.1266C170.872 21.9625 169.689 22.2072 168.51 22.1179L168.507 22.1208ZM129.028 6.47825C128.392 7.08277 128.179 7.16913 127.519 7.05398C127.296 7.01656 127.086 6.96474 126.85 6.99929C126.597 7.03383 126.317 7.07989 126.214 6.76036C126.174 6.6337 125.977 6.62219 125.904 6.69415C125.641 6.95323 125.311 6.94171 124.961 6.96186C124.752 6.97338 124.532 7.08565 124.389 7.28427C126.107 7.15473 127.822 7.29579 129.651 7.16625C129.321 6.93884 129.021 6.82082 129.028 6.48114V6.47825ZM156.804 17.8259C156.804 17.8806 156.8 17.9352 156.797 17.9871C157.203 17.9871 157.613 17.9813 158.019 17.9899C158.189 17.9928 158.432 17.99 158.439 18.1771C158.446 18.3987 158.189 18.3296 158.033 18.3469C157.593 18.3958 157.14 18.2692 156.654 18.4246C157.47 18.6635 158.512 18.6434 159.934 18.3757C159.768 18.1684 159.745 18.2145 158.945 17.9151C158.209 17.6387 157.513 17.823 156.8 17.8259H156.804ZM161.137 8.07015C163.615 7.92046 166.102 8.20543 168.574 7.83985C166.096 7.90606 163.611 7.75062 161.137 8.07015ZM167.654 6.37751C167.651 6.41493 167.648 6.44948 167.641 6.4869C169.087 6.57614 170.532 6.56749 172.097 6.4178C171.704 6.23644 171.405 6.28539 171.125 6.31993C170.722 6.36887 170.322 6.38903 169.916 6.38039C169.756 6.37751 169.583 6.37751 169.499 6.23358C169.403 6.07237 169.553 5.98602 169.666 5.8939C169.806 5.77875 169.929 5.65208 169.843 5.488C169.373 5.75284 168.684 5.75859 168.47 6.33144C168.457 6.36886 168.277 6.36887 168.171 6.37175C167.997 6.3775 167.824 6.37175 167.651 6.37175L167.654 6.37751ZM149.68 12.2212H144.854L144.861 12.3824C146.476 12.4313 148.085 12.3305 149.683 12.2212H149.68ZM139.466 12.8314C140.248 12.8458 140.988 12.8285 141.72 12.6875C141.877 12.6587 142.15 12.7422 142.153 12.5464C142.153 12.3478 141.883 12.4227 141.724 12.4054C141.144 12.3421 140.578 12.6126 139.978 12.4313C139.695 12.3449 139.589 12.6069 139.466 12.8314Z" fill="#90EE90"/>
</svg>
