<svg width="150" height="150" viewBox="0 0 150 150" fill="none" xmlns="http://www.w3.org/2000/svg">
<path d="M66.7417 12.2085V13.1408C66.9646 13.1335 67.1877 13.1483 67.4077 13.185C67.4077 10.7273 67.5735 8.47427 67.3635 7.63502C67.2742 7.41002 67.1857 7.27952 66.9195 7.27952C65.295 7.12952 40.5517 7.76852 34.5945 7.76852C24.8775 7.65227 23.1367 7.27952 21.9397 7.27952C21.859 7.28498 21.7831 7.31955 21.726 7.3768C21.6689 7.43404 21.6345 7.51008 21.6292 7.59077C21.5032 9.03827 21.6735 11.1653 21.6735 13.0515H22.251C22.3095 11.9933 22.1872 9.23327 22.251 7.90127C36.5707 9.00302 49.1062 7.85702 66.7845 7.85702C66.7425 7.98752 66.744 8.81852 66.7417 12.2085Z" fill="#115711"/>
<path d="M131.925 3.90522C131.926 3.85837 131.917 3.81186 131.899 3.76845C131.882 3.72504 131.856 3.68561 131.822 3.65252C131.789 3.61943 131.75 3.59334 131.706 3.57581C131.663 3.55827 131.616 3.54966 131.569 3.55047C115.632 4.54572 103.522 4.73997 87.8767 4.30497C87.8357 4.30415 87.7949 4.31162 87.7569 4.32693C87.7188 4.34224 87.6842 4.36507 87.6551 4.39405C87.6261 4.42304 87.6031 4.45759 87.5877 4.49563C87.5723 4.53367 87.5648 4.57443 87.5655 4.61547C87.5595 4.92672 87.5557 6.25497 87.5655 8.13297C86.7997 8.10522 86.0302 8.05347 85.2555 8.03472C85.2144 8.03335 85.1734 8.04046 85.1352 8.05559C85.0969 8.07072 85.0622 8.09356 85.0332 8.12268C85.0041 8.1518 84.9814 8.18658 84.9663 8.22486C84.9513 8.26314 84.9443 8.30411 84.9457 8.34522C84.9007 11.676 84.99 15.006 85.0342 18.336V19.05C84.1905 19.05 83.3467 19.05 82.4587 19.0942C82.4587 19.272 82.503 19.494 82.503 19.671C83.436 19.7152 84.4117 19.6935 85.3447 19.671C85.3857 19.6717 85.4265 19.6641 85.4645 19.6488C85.5025 19.6334 85.5371 19.6106 85.5661 19.5816C85.5952 19.5527 85.6181 19.5182 85.6335 19.4802C85.649 19.4422 85.6566 19.4015 85.656 19.3605C85.6117 16.5187 85.5225 8.70447 85.5225 8.70447C86.2175 8.74347 86.8997 8.77747 87.5692 8.80647C87.612 15.6082 87.7432 28.1647 87.7425 28.107C86.0557 28.107 84.4125 28.107 82.7257 28.152V28.7295C84.5017 28.7737 86.322 28.7737 88.098 28.7737C88.1391 28.7747 88.1801 28.7674 88.2183 28.7521C88.2565 28.7368 88.2913 28.714 88.3204 28.6848C88.3495 28.6557 88.3724 28.621 88.3876 28.5828C88.4029 28.5446 88.4103 28.5036 88.4092 28.4625L88.2225 8.83347C95.325 9.10724 102.438 8.84022 109.5 8.03472C109.618 9.77859 109.648 11.5273 109.588 13.2742H110.254C110.346 11.4487 110.254 9.44922 110.209 7.63497C110.21 7.58821 110.201 7.54182 110.184 7.49851C110.166 7.4552 110.14 7.41584 110.107 7.38274C110.074 7.34964 110.034 7.32346 109.991 7.30573C109.948 7.28799 109.902 7.27907 109.855 7.27947C102.675 8.12466 95.4415 8.41727 88.2172 8.15472L88.188 5.05947C103.324 5.54022 116.453 5.24922 131.211 4.39347C131.43 7.46808 131.43 10.5544 131.211 13.629C131.167 13.8067 131.389 13.9395 131.522 13.9395C131.563 13.941 131.605 13.9341 131.643 13.9191C131.681 13.904 131.716 13.8812 131.746 13.8521C131.775 13.8229 131.798 13.7881 131.813 13.7497C131.828 13.7113 131.835 13.6702 131.833 13.629C131.982 12.3768 132.042 11.1156 132.011 9.85497C132.095 7.87168 132.066 5.88524 131.925 3.90522Z" fill="#115711"/>
<path d="M38.2807 14.295C38.2807 14.22 38.2807 14.1555 38.2364 14.118C38.5027 14.073 38.4142 13.7182 38.1922 13.6732C37.3195 13.629 36.4451 13.629 35.5724 13.6732C34.5974 13.6732 33.6224 13.6732 32.6422 13.7182C22.1242 13.9327 7.62968 13.2472 6.35693 13.3627C6.30234 13.3644 6.25022 13.3859 6.21029 13.4231C6.17037 13.4604 6.14537 13.5109 6.13995 13.5653C6.13454 13.6196 6.14907 13.6741 6.18086 13.7185C6.21264 13.7629 6.25949 13.7943 6.31268 13.8067C9.98768 14.388 33.7154 14.6782 37.7144 14.2785C37.8914 41.3535 38.0534 65.1442 38.0992 66.1575C36.2564 66.3885 7.47818 66.1732 5.20643 65.9235C5.20643 65.058 4.92143 61.9357 4.96868 57.2527V14.4277C4.99343 14.0332 4.30493 14.0182 4.30493 14.4202C4.44968 16.4452 4.44743 66.4207 4.44743 66.3352C4.40318 66.468 4.49168 66.5602 4.67243 66.6015C8.16518 67.1265 35.2454 67.137 38.3729 66.69C38.4439 66.6785 38.5074 66.6394 38.5496 66.5812C38.5918 66.523 38.6092 66.4505 38.5979 66.3795C38.5919 58.575 38.2807 14.2125 38.2807 14.295Z" fill="#2A2928"/>
<path d="M81.9638 14.3145C81.9638 14.2395 81.9638 14.175 81.9195 14.1375C82.1858 14.0925 82.0973 13.7377 81.8753 13.6935C81.0026 13.6489 80.1282 13.6489 79.2555 13.6935C78.2805 13.6935 77.3018 13.6935 76.3253 13.7377C65.8073 13.9522 51.3128 13.2667 50.04 13.3822C49.9854 13.3839 49.9333 13.4054 49.8934 13.4427C49.8535 13.4799 49.8285 13.5305 49.8231 13.5848C49.8176 13.6392 49.8322 13.6936 49.864 13.738C49.8957 13.7825 49.9426 13.8138 49.9958 13.8262C53.6708 14.4075 77.3985 14.6977 81.3975 14.298C81.5745 41.373 81.7365 65.1637 81.7823 66.177C79.9395 66.408 51.1613 66.1927 48.8895 65.943C48.8895 65.0775 48.6045 61.9552 48.6518 57.2722V14.445C48.6765 14.0505 47.988 14.0355 47.988 14.4375C48.1328 16.4625 48.1305 66.438 48.1305 66.3525C48.0863 66.4852 48.1748 66.5775 48.3555 66.6187C51.8483 67.1437 78.9285 67.1542 82.056 66.7072C82.127 66.6958 82.1905 66.6567 82.2327 66.5985C82.2749 66.5403 82.2923 66.4677 82.281 66.3967C82.275 58.5937 81.9638 14.232 81.9638 14.3145Z" fill="#2A2928"/>
<path d="M38.2214 76.5143C38.2214 76.3463 38.3909 75.951 37.9724 75.867C37.1433 75.8268 36.3126 75.8308 35.4839 75.879C34.5089 75.879 33.5339 75.879 32.5529 75.9233C22.0529 76.1378 7.51115 75.4553 6.26765 75.5678C6.21306 75.5695 6.16094 75.591 6.12101 75.6282C6.08109 75.6655 6.05609 75.716 6.05067 75.7704C6.04525 75.8247 6.05979 75.8792 6.09157 75.9236C6.12336 75.968 6.17021 75.9994 6.2234 76.0118C9.35165 76.506 33.2166 76.9268 37.8149 76.467C37.8359 76.5083 37.7399 79.7423 37.7481 81.2955C37.8577 113.557 37.8231 114.98 37.8119 116.204C37.8119 116.382 38.5469 116.284 38.5027 116.106C38.5049 116.025 38.2214 76.4378 38.2214 76.5143Z" fill="#2A2928"/>
<path d="M32.154 128.316C31.3116 128.249 30.4652 128.249 29.6227 128.316C28.7347 128.316 27.891 128.36 27.003 128.36C13.035 128.701 6.51899 128.135 4.71374 128.227C4.71374 126.154 4.69199 127.435 4.69199 122.588V76.4572C4.69439 76.4115 4.68707 76.3657 4.67051 76.3231C4.65395 76.2804 4.62853 76.2417 4.59592 76.2095C4.56332 76.1774 4.52426 76.1525 4.48134 76.1365C4.43842 76.1206 4.3926 76.1139 4.34691 76.1169C4.30121 76.12 4.25669 76.1327 4.21626 76.1542C4.17583 76.1757 4.14042 76.2055 4.11236 76.2417C4.08431 76.2779 4.06424 76.3196 4.05349 76.3641C4.04274 76.4087 4.04155 76.4549 4.04999 76.4999C4.19474 78.5249 4.13924 128.49 4.13924 128.404C4.09499 128.537 4.18349 128.629 4.36424 128.671C7.25474 129.152 28.7902 129.241 32.1592 128.759C32.4645 128.671 32.376 128.316 32.154 128.316Z" fill="#2A2928"/>
<path d="M48.4499 90.4425C48.2924 79.4325 48.2407 77.598 48.1814 76.4925C48.1814 76.3148 47.781 76.212 47.784 76.4978C47.9175 77.9625 47.8732 79.428 47.8732 80.8478C47.8732 83.6453 47.9167 113.159 47.9167 113.159C47.9167 113.425 48.495 113.393 48.495 113.128C48.5392 111.662 48.5835 110.197 48.5835 108.731C48.582 108.735 48.4957 93.7275 48.4499 90.4425Z" fill="#2A2928"/>
<path d="M81.4424 75.8498C81.1139 75.825 76.8869 75.8963 76.2884 75.9248C66.0419 76.1318 51.1574 75.465 50.0032 75.57C49.9485 75.5715 49.8963 75.5929 49.8563 75.6301C49.8162 75.6673 49.7911 75.7178 49.7856 75.7722C49.7801 75.8266 49.7945 75.8812 49.8263 75.9257C49.8581 75.9702 49.9049 76.0016 49.9582 76.014C53.0714 76.5053 76.9154 76.929 81.4859 76.4738C81.6299 76.4738 81.5714 76.5488 81.5714 76.635C81.5272 77.8785 81.4769 79.122 81.4822 80.3648C81.5879 103.381 81.8572 106.122 81.8924 106.573C81.8924 106.75 82.2397 106.792 82.2374 106.562C82.1512 97.593 81.9464 79.0965 81.8917 76.6965C81.8797 76.1693 82.1032 75.9 81.4424 75.8498Z" fill="#2A2928"/>
<path d="M110.921 121.7C110.846 121.646 86.5793 108.193 86.5005 108.158C86.2755 108.069 85.9673 108.336 86.2335 108.513C88.4123 110.189 107.9 120.976 109.899 121.745C109.824 121.77 108.808 121.994 108.257 122.056C104.975 122.712 59.001 132.796 58.926 132.796C58.6568 132.646 33.7965 118.93 33.7208 118.891C34.5263 118.891 82.854 108.263 84.1433 107.926C84.3203 107.88 84.1913 107.492 84.0135 107.537C82.8038 107.882 36.6473 117.683 32.8853 118.534C32.4705 118.627 32.5275 118.885 32.6865 118.992C34.749 120.578 54.1245 131.027 56.2628 132.046C56.979 132.478 57.7187 132.871 58.4783 133.222C58.8132 133.377 59.194 133.4 59.5455 133.288C63.3458 132.43 109.604 122.392 110.787 122.1C111.009 122.189 111.143 121.834 110.921 121.7Z" fill="#2A2928"/>
<path d="M119.625 27.66C119.625 20.7022 119.58 22.6297 119.58 21.7102C119.625 21.621 119.58 21.4852 119.403 21.444C118.116 21.2295 112.632 21.219 111.321 21.219C102.206 21.219 99.2056 21.2362 98.2186 21.3397C97.8999 21.3735 97.6936 21.3877 97.6936 21.7072C97.7004 27.4005 97.8271 39.4507 97.8271 41.0655C97.7922 41.0868 97.7651 41.1187 97.7496 41.1565C97.734 41.1943 97.731 41.2361 97.7409 41.2757C97.7508 41.3154 97.773 41.3509 97.8045 41.377C97.8359 41.4031 97.8748 41.4185 97.9156 41.421C98.0566 41.463 112.143 41.4052 112.435 41.3325C112.483 41.3186 112.525 41.2895 112.556 41.2494C112.586 41.2094 112.602 41.1606 112.602 41.1105C112.602 41.0604 112.586 41.0116 112.556 40.9715C112.525 40.9315 112.483 40.9024 112.435 40.8885C111.461 40.7762 110.481 40.7178 109.5 40.7137C100.835 40.7137 99.0369 40.8915 98.8441 40.8915C99.5536 40.2255 118.184 23.1742 119.072 22.3312C118.904 25.2633 118.984 28.2043 119.312 31.1227C119.357 31.3005 119.624 31.212 119.579 31.0342C119.514 30.5182 119.625 30.027 119.625 27.66ZM98.3124 40.71C98.3124 40.6297 98.4069 23.415 98.0461 21.9727C99.0009 23.1412 101.577 25.335 104.439 27.789C104.514 27.8505 108.324 31.1107 108.48 31.2525C106.924 32.6377 99.7066 39.0982 98.3109 40.7137L98.3124 40.71ZM108.702 31.0305C108.499 30.7762 106.692 29.0055 106.437 28.8105C106.038 28.455 99.0226 22.3725 98.5786 21.9285C98.6536 21.9285 118.839 21.9352 118.914 21.9285C116.883 23.7075 117.593 22.9147 108.701 31.0342L108.702 31.0305Z" fill="#2A2928"/>
<path d="M114.872 43.9553C114.358 43.8788 113.838 43.8489 113.318 43.866C98.0182 43.866 98.6857 43.8158 98.0887 43.9995C98.0444 43.9995 97.9994 44.0438 97.9552 44.1323C97.9109 44.1773 97.8667 44.2215 97.9109 44.31C97.9109 50.6145 97.9994 49.008 97.9994 49.6823C97.9693 49.7064 97.9469 49.7387 97.9346 49.7753C97.9223 49.8119 97.9208 49.8512 97.9302 49.8886C97.9396 49.926 97.9595 49.96 97.9876 49.9864C98.0157 50.0128 98.0507 50.0307 98.0887 50.0378C98.5567 50.1265 99.0349 50.149 99.5092 50.1045C111.18 50.1045 110.759 50.1443 111.365 49.9935C111.413 49.9797 111.456 49.9505 111.486 49.9105C111.516 49.8704 111.532 49.8217 111.532 49.7715C111.532 49.7214 111.516 49.6726 111.486 49.6326C111.456 49.5925 111.413 49.5634 111.365 49.5495C110.896 49.4605 110.416 49.438 109.94 49.4828C98.9279 49.4828 99.4454 49.455 98.9737 49.5495H98.5297C98.6419 47.8444 98.5665 46.1321 98.3047 44.4435C98.7487 44.532 99.2369 44.4878 99.6809 44.532C115.381 44.532 114.432 44.5643 114.955 44.4435C115.094 44.3543 115.094 43.9973 114.872 43.9553Z" fill="#2A2928"/>
<path d="M32.2867 104.695C32.2237 79.6448 32.1532 87.6038 32.1532 85.5585C32.1982 85.4693 32.1532 85.3335 31.9762 85.2923C30.6952 85.0778 25.1925 85.0673 23.895 85.0673C10.1475 85.0673 10.3087 85.107 10.3087 85.422C10.2916 85.4394 10.2787 85.4605 10.2709 85.4836C10.2631 85.5067 10.2607 85.5313 10.2637 85.5555C10.2952 110.928 10.3972 102.842 10.3972 104.914C10.3627 104.94 10.3365 104.975 10.3215 105.016C10.3066 105.056 10.3036 105.1 10.3129 105.142C10.3223 105.184 10.3435 105.223 10.3741 105.253C10.4048 105.284 10.4435 105.305 10.4857 105.314C11.0461 105.374 11.6104 105.389 12.1732 105.358C29.7592 105.272 31.851 105.182 32.1982 105.133C32.376 105.139 32.4645 104.828 32.2867 104.695ZM31.8427 102.295C31.8427 102.872 31.9312 103.495 31.9312 104.071C31.9238 104.25 31.9389 104.429 31.9762 104.604C29.5245 102.152 24.5107 97.6733 21.675 95.1908C22.3845 94.5233 29.235 88.2218 31.7542 85.8225C31.7616 85.9866 31.7464 86.1508 31.7092 86.3108C31.533 88.2533 31.7827 100.004 31.8427 102.3V102.295ZM29.9782 85.8225C30.4222 85.8225 30.8662 85.8668 31.3102 85.8225C30.2602 86.7375 29.037 87.6608 21.231 94.7918C20.4765 94.1258 19.7212 93.4598 18.9667 92.7488C17.235 91.239 11.907 86.577 11.0167 85.7783C11.7802 85.875 28.875 85.7558 29.9782 85.8248V85.8225ZM10.7527 88.176C10.7527 87.5985 10.6635 86.976 10.6635 86.4C10.6707 86.2358 10.6558 86.0713 10.6192 85.911C12.9232 88.2158 18.5415 93.1553 20.8312 95.1465C20.1892 95.751 11.859 103.247 10.8855 104.382C10.8855 103.924 11.0955 101.207 10.7527 88.1783V88.176ZM30.5107 104.56C29.8447 104.56 29.223 104.515 28.5607 104.515H24.075C20.967 104.515 13.2 104.648 12.4417 104.693C12.0582 104.73 11.6727 104.745 11.2875 104.737C16.875 99.4988 20.4547 96.2123 21.2332 95.502C27.4867 101.097 30.1582 103.215 31.5787 104.56C31.2242 104.605 30.8654 104.606 30.5107 104.562V104.56Z" fill="#2A2928"/>
<path d="M32.2425 115.84C32.2425 110.333 32.1532 110.951 32.1532 110.515C32.1532 110.382 32.109 110.249 31.9762 110.249C31.417 110.174 30.8527 110.144 30.2887 110.16C14.6362 110.16 11.49 110.085 10.4415 110.293C10.4233 110.29 10.4048 110.292 10.3874 110.298C10.3701 110.304 10.3543 110.314 10.3414 110.327C10.3285 110.34 10.3189 110.356 10.3132 110.373C10.3075 110.39 10.306 110.409 10.3087 110.427C10.2637 110.471 10.2637 110.515 10.2637 110.604C10.2637 112.834 10.2532 114.197 10.3087 115.355C10.3087 115.58 10.353 115.799 10.353 115.977C10.3225 116.005 10.3 116.041 10.2876 116.08C10.2752 116.12 10.2734 116.162 10.2823 116.202C10.2913 116.242 10.3107 116.28 10.3386 116.31C10.3666 116.341 10.402 116.364 10.4415 116.376C11.0162 116.442 11.5951 116.465 12.1732 116.443C32.2462 116.443 31.4017 116.491 32.1982 116.332C32.4202 116.239 32.4202 115.884 32.2425 115.84ZM10.9297 115.84C11.0424 114.134 10.9669 112.422 10.7047 110.733C11.2057 110.793 11.7109 110.808 12.2145 110.778C12.2145 110.778 31.1737 110.778 31.7062 110.733C31.6473 111.279 31.6325 111.828 31.662 112.376C31.6547 113.356 31.7141 114.335 31.8397 115.307C31.8479 115.459 31.8777 115.608 31.9282 115.751C30.87 115.654 11.7112 115.769 10.9297 115.84Z" fill="#2A2928"/>
<path d="M75.9749 104.695C75.9434 92.1698 75.8414 86.5815 75.8414 85.5585C75.8864 85.4693 75.8414 85.3335 75.6644 85.2923C74.3834 85.0778 68.8807 85.0673 67.5832 85.0673C57.7057 85.0673 55.0079 85.0875 54.2722 85.2173C54.0929 85.2488 53.9519 85.2788 53.9519 85.557C53.9684 98.514 54.0854 103.901 54.0854 104.915C54.0509 104.941 54.0247 104.977 54.0097 105.017C53.9948 105.058 53.9918 105.101 54.0011 105.144C54.0105 105.186 54.0317 105.224 54.0623 105.255C54.093 105.285 54.1317 105.306 54.1739 105.315C54.7342 105.376 55.2986 105.391 55.8614 105.359C73.4474 105.273 75.5392 105.184 75.8864 105.134C75.9338 105.126 75.9776 105.103 76.0119 105.069C76.0463 105.035 76.0698 104.992 76.0793 104.944C76.0888 104.897 76.084 104.848 76.0654 104.804C76.0468 104.759 76.0153 104.721 75.9749 104.695ZM75.3532 92.2628C75.3374 95.5928 75.4424 98.9228 75.5309 102.297C75.5309 102.443 75.6284 104.464 75.6644 104.606C73.2179 102.16 68.2049 97.6808 65.3632 95.193C66.0727 94.5255 72.9232 88.224 75.4424 85.8248C75.4447 86.5853 75.3787 87.3705 75.3554 92.2628H75.3532ZM73.7107 85.8248C74.1539 85.8248 74.5979 85.869 75.0419 85.8248C73.9604 86.772 72.7537 87.6773 64.9634 94.794C53.2109 84.4238 54.9434 85.953 54.7514 85.7805C55.5149 85.875 72.6074 85.7558 73.7129 85.8248H73.7107ZM54.3517 85.9133C56.6587 88.2203 62.2807 93.1635 64.5637 95.1488C63.9217 95.7533 55.5914 103.249 54.6179 104.384C54.6202 104.308 54.6832 87.225 54.3539 85.9133H54.3517ZM54.9734 104.738C60.5609 99.5003 64.1407 96.2138 64.9192 95.5035C71.1269 101.057 73.8562 103.229 75.2639 104.561C75.1912 104.571 55.0544 104.739 54.9749 104.739L54.9734 104.738Z" fill="#2A2928"/>
<path d="M65.9423 110.245C65.4001 110.083 54.8123 110.095 54.2206 110.289C54.1456 110.289 53.9671 110.479 54.0436 110.556C54.0482 110.59 54.0638 110.621 54.0878 110.644C54.0878 112.974 54.0578 112.776 54.1763 113.131C54.1902 113.18 54.2193 113.222 54.2594 113.252C54.2994 113.282 54.3482 113.299 54.3983 113.299C54.4484 113.299 54.4972 113.282 54.5373 113.252C54.5773 113.222 54.6065 113.18 54.6203 113.131C54.671 113.004 54.7011 112.868 54.7096 112.731V111.756C54.6897 111.398 54.6451 111.042 54.5761 110.691C64.1288 110.691 65.3011 110.797 65.7511 110.717C66.2408 110.625 66.1636 110.334 65.9423 110.245Z" fill="#2A2928"/>
<path d="M52.9336 22.5982C52.9336 23.0445 52.9096 26.034 53.0221 26.3722C52.9916 26.4003 52.9691 26.4359 52.9567 26.4754C52.9444 26.515 52.9426 26.557 52.9515 26.5975C52.9605 26.6379 52.9799 26.6753 53.0078 26.7059C53.0357 26.7365 53.0711 26.7593 53.1106 26.772C53.7448 26.8384 54.3828 26.8607 55.0201 26.8387C77.9071 26.8387 76.7266 26.8665 77.5313 26.772C77.7563 26.7277 77.8861 26.3722 77.6198 26.328C77.6198 25.848 77.6423 23.0197 77.5313 22.6867V22.5982C77.5756 22.509 77.5313 22.3732 77.3536 22.332C76.7199 22.2577 76.0819 22.2279 75.4441 22.2427C52.3441 22.2427 53.1946 22.2037 52.9778 22.4205C52.8878 22.4205 52.8458 22.5105 52.9336 22.5982ZM76.9981 22.776C76.9759 23.1456 76.9759 23.5163 76.9981 23.886C76.9792 24.6787 77.0691 25.4703 77.2651 26.2387C76.0778 26.1397 53.7811 26.2657 53.5546 26.2837C53.5771 25.899 53.5771 25.5134 53.5546 25.1287C53.5701 24.4118 53.4945 23.6958 53.3296 22.998C53.3288 22.9146 53.2973 22.8345 53.2411 22.773C53.8628 22.875 76.6441 22.8 76.9981 22.776Z" fill="#2A2928"/>
<path d="M77.6197 34.4528C77.6197 33.9735 77.6422 31.1453 77.5312 30.8123V30.7238C77.5755 30.6345 77.5312 30.4988 77.3535 30.4568C76.72 30.3832 76.0822 30.3536 75.4447 30.3683C55.866 30.3683 54.054 30.339 53.1105 30.4568C53.0355 30.4568 52.857 30.6473 52.9335 30.7238C52.9335 31.3523 52.9095 34.2038 53.022 34.542C52.9915 34.5701 52.969 34.6057 52.9566 34.6453C52.9443 34.6848 52.9425 34.7269 52.9514 34.7673C52.9604 34.8078 52.9798 34.8451 53.0077 34.8758C53.0356 34.9064 53.071 34.9291 53.1105 34.9418C53.7447 35.0079 54.3827 35.03 55.02 35.0078C77.907 35.0078 76.7265 35.0363 77.5312 34.9418C77.7532 34.8525 77.8417 34.5 77.6197 34.4528ZM53.5545 34.4528C53.577 34.0684 53.577 33.6829 53.5545 33.2985C53.57 32.5816 53.4944 31.8656 53.3295 31.1678C53.3287 31.0844 53.2972 31.0043 53.241 30.9428C53.8162 31.0017 54.3952 31.0165 54.9727 30.987C54.9727 30.987 76.3297 30.987 76.9477 30.9428C76.9256 31.3124 76.9256 31.6831 76.9477 32.0528C76.9289 32.8455 77.0187 33.6371 77.2147 34.4055C76.1662 34.3125 53.8102 34.4333 53.5545 34.4528Z" fill="#2A2928"/>
<path d="M77.6197 42.5782C77.6197 42.0967 77.6422 39.2707 77.5312 38.9377V38.85C77.5755 38.7615 77.5312 38.625 77.3535 38.5837C76.72 38.5101 76.0822 38.4806 75.4447 38.4952C55.866 38.4952 54.054 38.466 53.1105 38.5837C53.0355 38.5837 52.857 38.7742 52.9335 38.85C52.9335 39.4792 52.9095 42.3307 53.022 42.669C52.9915 42.697 52.969 42.7325 52.9566 42.772C52.9442 42.8115 52.9423 42.8536 52.9513 42.894C52.9603 42.9344 52.9797 42.9717 53.0076 43.0022C53.0356 43.0328 53.071 43.0555 53.1105 43.068C53.7446 43.1348 54.3827 43.1571 55.02 43.1347C77.907 43.1347 76.7265 43.1632 77.5312 43.068C77.7532 43.0222 77.8417 42.6675 77.6197 42.5782ZM53.5545 42.5782C53.577 42.1938 53.577 41.8084 53.5545 41.424C53.57 40.7068 53.4944 39.9906 53.3295 39.2925C53.3285 39.2092 53.2971 39.1291 53.241 39.0675C53.8162 39.1268 54.3952 39.1416 54.9727 39.1117C54.9727 39.1117 76.3297 39.1117 76.9477 39.0675C76.9256 39.4371 76.9256 39.8078 76.9477 40.1775C76.9288 40.9705 77.0187 41.7623 77.2147 42.531C76.1662 42.438 53.8102 42.5587 53.5545 42.5782Z" fill="#2A2928"/>
<path d="M77.6197 50.7479C77.6197 50.2664 77.6422 47.4397 77.5312 47.1074V47.0182C77.5755 46.9297 77.5312 46.7932 77.3535 46.7519C76.72 46.6783 76.0822 46.6488 75.4447 46.6634C55.866 46.6634 54.054 46.6342 53.1105 46.7519C53.0355 46.7519 52.857 46.9424 52.9335 47.0182C52.9335 47.6474 52.9095 50.4989 53.022 50.8364C52.9915 50.8646 52.969 50.9001 52.9566 50.9397C52.9443 50.9792 52.9425 51.0213 52.9514 51.0617C52.9604 51.1022 52.9798 51.1396 53.0077 51.1702C53.0356 51.2008 53.071 51.2235 53.1105 51.2362C53.7446 51.303 54.3827 51.3253 55.02 51.3029C77.907 51.3029 76.7265 51.3307 77.5312 51.2362C77.7532 51.1919 77.8417 50.8364 77.6197 50.7479ZM53.5545 50.7479C53.577 50.3635 53.577 49.9781 53.5545 49.5937C53.57 48.8765 53.4944 48.1603 53.3295 47.4622C53.3285 47.3789 53.2971 47.2988 53.241 47.2372C53.8162 47.2965 54.3952 47.3113 54.9727 47.2814C54.9727 47.2814 76.3297 47.2814 76.9477 47.2372C76.9256 47.6069 76.9256 47.9775 76.9477 48.3472C76.9288 49.1402 77.0187 49.9321 77.2147 50.7007C76.1662 50.6077 53.8102 50.7284 53.5545 50.7479Z" fill="#2A2928"/>
<path d="M77.6197 58.9177C77.6197 58.4362 77.6422 55.6102 77.5312 55.2772V55.188C77.5755 55.0995 77.5312 54.963 77.3535 54.9217C76.72 54.8481 76.0822 54.8186 75.4447 54.8332C55.866 54.8332 54.054 54.804 53.1105 54.9217C53.0355 54.9217 52.857 55.1122 52.9335 55.188C52.9335 55.8172 52.9095 58.6687 53.022 59.007C52.9915 59.035 52.969 59.0706 52.9566 59.11C52.9442 59.1495 52.9423 59.1916 52.9513 59.232C52.9603 59.2724 52.9797 59.3097 53.0076 59.3403C53.0356 59.3708 53.071 59.3935 53.1105 59.406C53.7446 59.4728 54.3827 59.4951 55.02 59.4727C77.907 59.4727 76.7265 59.5012 77.5312 59.406C77.7532 59.3175 77.8417 58.962 77.6197 58.9177ZM53.5545 58.9177C53.577 58.5333 53.577 58.1479 53.5545 57.7635C53.57 57.0463 53.4944 56.3301 53.3295 55.632C53.3283 55.5487 53.2969 55.4687 53.241 55.407C53.8162 55.4666 54.3952 55.4816 54.9727 55.452C54.9727 55.452 76.3297 55.452 76.9477 55.407C76.9256 55.7767 76.9256 56.1473 76.9477 56.517C76.9288 57.31 77.0187 58.1019 77.2147 58.8705C76.1662 58.7775 53.8102 58.8982 53.5545 58.9177Z" fill="#2A2928"/>
<path d="M34.3291 52.2578C34.3291 45.5933 34.2406 47.934 34.2406 46.9328C34.2848 46.8443 34.2406 46.7078 34.0628 46.6665C33.3996 46.5923 32.7321 46.5625 32.0648 46.5773C8.85907 46.5773 8.85907 46.5173 8.57707 46.8023C8.53282 46.8473 8.48782 46.8915 8.53282 46.98C8.53282 53.244 8.62132 51.6713 8.62132 52.3523C8.48782 52.4415 8.48782 52.7078 8.66557 52.752C9.32933 52.8188 9.99683 52.8411 10.6636 52.8188C34.7558 52.8188 33.3991 52.8458 34.1963 52.752C34.4626 52.7018 34.5511 52.35 34.3291 52.2578ZM32.2868 52.1693C32.2868 52.1693 9.77557 52.2578 9.19882 52.302C9.26519 51.7417 9.26519 51.1756 9.19882 50.6153C9.19363 49.4687 9.08949 48.3247 8.88757 47.196C9.50932 47.2853 10.1311 47.2403 10.7078 47.2853C10.7078 47.2853 33.0421 47.2853 33.7081 47.2403C33.6409 47.786 33.6409 48.3378 33.7081 48.8835C33.7166 49.8643 33.7918 50.8433 33.9331 51.8138C33.9773 51.9473 33.9773 52.1243 34.0216 52.2578C33.4464 52.184 32.8665 52.1545 32.2868 52.1693Z" fill="#2A2928"/>
<path d="M34.3291 60.1163C34.3291 54.6106 34.2406 55.2286 34.2406 54.7913C34.2848 54.7028 34.2406 54.5663 34.0628 54.5251C33.3995 54.4514 32.732 54.4219 32.0648 54.4366C8.85907 54.4366 8.85907 54.3758 8.57707 54.6616C8.53282 54.7058 8.48782 54.7501 8.53282 54.8393C8.53282 60.6893 8.62132 59.7458 8.62132 60.2116C8.48782 60.3001 8.48782 60.5663 8.66557 60.6113C9.32937 60.6775 9.99684 60.6995 10.6636 60.6773C34.7558 60.6773 33.3991 60.7051 34.1963 60.6113C34.4626 60.5161 34.5511 60.1613 34.3291 60.1163ZM32.2868 60.0278C32.2868 60.0278 9.77557 60.1163 9.19882 60.1613C9.26519 59.6008 9.26519 59.0343 9.19882 58.4738C9.19368 57.3275 9.08955 56.1837 8.88757 55.0553C9.50932 55.1438 10.1311 55.0996 10.7078 55.1438C10.7078 55.1438 33.0421 55.1438 33.7081 55.0996C33.6409 55.645 33.6409 56.1966 33.7081 56.7421C33.7166 57.7228 33.7918 58.7018 33.9331 59.6723C33.9773 59.8058 33.9773 59.9836 34.0216 60.1163C33.4464 60.0426 32.8665 60.013 32.2868 60.0278Z" fill="#2A2928"/>
<path d="M12.129 37.4723C12.129 37.5165 12.1732 37.5165 12.2175 37.5608C14.571 40.1805 18.4335 41.202 21.8527 40.6245C28.9552 39.3203 32.319 30.9915 28.9125 25.7505C27.4741 23.6229 25.2858 22.1165 22.785 21.5325C22.7617 21.5208 22.7363 21.5138 22.7103 21.5119C22.6843 21.51 22.6582 21.5132 22.6335 21.5215C22.6087 21.5297 22.5858 21.5427 22.5662 21.5598C22.5465 21.5769 22.5303 21.5977 22.5187 21.621C22.1979 21.5409 21.8722 21.4815 21.5437 21.4433C19.9452 21.2691 18.3281 21.4672 16.8188 22.0218C15.3096 22.5765 13.9491 23.4727 12.8437 24.6405C9.73571 27.9263 8.93621 33.432 11.8222 37.1168C11.907 37.206 11.9955 37.3388 12.129 37.4723ZM12.8392 37.2473C13.3072 36.9353 19.6215 32.1623 20.3392 31.653C26.9055 37.0605 26.9107 36.9945 26.9107 37.0695C25.0676 38.9574 22.5506 40.0368 19.9124 40.0707C17.2741 40.1046 14.7302 39.0902 12.8392 37.2503V37.2473ZM27.1807 36.7148C26.5177 36.0518 21.1912 31.7115 20.6985 31.3418C24.7597 28.2668 25.8735 27.3068 27.1807 26.325C27.4514 26.1423 27.7041 25.9341 27.9352 25.7033C30.1267 28.374 30.252 33.1193 27.1807 36.7178V36.7148ZM22.5187 22.0148C22.563 22.059 22.563 22.059 22.6522 22.059C24.6809 22.5673 26.4889 23.7225 27.8025 25.35C27.3157 25.6425 21.0525 30.375 20.343 30.9C18.6555 29.5238 13.905 25.6613 13.239 25.0838C15.282 22.7753 18.5497 21.4538 22.5187 22.0208V22.0148ZM13.0612 25.3005C14.82 27.219 19.1362 30.636 19.899 31.2945C18.1672 32.6265 13.6387 36.1343 13.1055 36.534C12.9173 36.6687 12.7393 36.8171 12.573 36.978C9.72221 33.726 10.2382 28.5998 13.0612 25.3065V25.3005Z" fill="#2A2928"/>
<path d="M131.744 65.7113C130.721 61.2113 130.651 61.6613 130.457 60.5611C130.449 60.526 130.433 60.4931 130.412 60.4641C130.39 60.4351 130.363 60.4106 130.332 60.392C130.301 60.3734 130.267 60.361 130.231 60.3557C130.196 60.3503 130.159 60.3521 130.124 60.3608C130.089 60.3695 130.056 60.385 130.027 60.4065C129.998 60.428 129.974 60.4549 129.955 60.4858C129.937 60.5168 129.924 60.551 129.919 60.5867C129.914 60.6224 129.915 60.6588 129.924 60.6938C130.323 62.3438 131.228 65.9498 131.39 67.4873C131.509 68.0984 131.448 68.7312 131.212 69.3076C130.412 71.2171 128.414 72.3263 126.594 73.1266C119.122 76.3868 110.914 77.4975 109.988 77.9213C109.491 77.4195 108.224 78.396 107.457 78.5873C106.222 78.8831 104.952 79.0028 103.683 78.9428C102.795 78.8986 101.33 78.8986 100.975 77.8328C100.886 77.6543 100.619 77.6993 100.664 77.9213C101.019 79.7415 103.373 79.5646 104.749 79.5196C105.904 79.4913 107.051 79.3274 108.167 79.0313C108.752 78.938 109.311 78.7264 109.811 78.4095C109.893 78.3261 110.003 78.2755 110.12 78.2671C115.654 77.4339 121.076 75.9774 126.283 73.9253C128.237 73.1266 130.324 72.0608 131.434 70.1956C132.38 68.6191 132.067 67.65 131.744 65.7113Z" fill="#2A2928"/>
<path d="M145.908 80.5852C144.177 74.9025 142.667 69.1747 141.291 63.4027C141.113 62.6032 140.891 61.8037 140.713 61.0027C140.536 60.159 140.225 59.3595 140.047 58.5607C140.047 58.5157 139.959 58.5157 139.959 58.5607C140.121 60.0399 140.373 61.5079 140.713 62.9565C141.858 68.3505 143.167 73.6815 145.331 80.76C145.336 80.7938 145.351 80.8252 145.375 80.8492C144.228 81.3216 143.128 81.9015 142.09 82.581C141.912 82.7145 142.09 82.9365 142.267 82.8922C143.131 82.6455 145.092 81.5175 145.597 81.3487C145.734 81.2816 145.841 81.1667 145.898 81.026C145.955 80.8853 145.959 80.7284 145.908 80.5852Z" fill="#2A2928"/>
<path d="M119.001 91.2855C117.495 91.788 117.486 91.7108 113.274 93.8168C112.95 93.102 112.515 92.4427 111.986 91.863C111.853 91.6853 111.586 91.9073 111.675 92.088C112.075 92.8425 112.563 93.5535 112.918 94.3523C112.938 94.3854 112.964 94.4141 112.995 94.4367C113.026 94.4593 113.061 94.4752 113.099 94.4836C113.136 94.492 113.175 94.4926 113.213 94.4853C113.251 94.4781 113.286 94.4632 113.318 94.4415C117.919 92.139 117.233 92.574 119.179 91.5998C119.312 91.5525 119.179 91.2413 119.001 91.2855Z" fill="#2A2928"/>
<path d="M101.33 70.2397C99.9547 67.6094 98.9302 66.0329 97.5112 62.9137C97.3267 62.4517 96.9757 62.0189 97.5555 61.6702C98.4472 60.9569 99.6487 60.3059 100.353 59.6722C100.578 59.4472 100.309 59.0954 99.9975 59.2282C99.5567 59.4682 99.1404 59.7508 98.7547 60.0719C97.371 60.9944 96.9165 61.2532 96.7567 61.6259C96.6833 61.8126 96.6531 62.0136 96.6684 62.2136C96.6838 62.4136 96.7442 62.6076 96.8452 62.7809C98.0129 65.4318 99.4409 67.9603 101.108 70.3289C101.197 70.5059 101.419 70.3732 101.33 70.2397Z" fill="#2A2928"/>
<path d="M123 42.312C122.815 41.9255 122.574 41.5678 122.287 41.25C121.752 40.466 121.291 39.6336 120.911 38.7638C120.866 38.6303 120.644 38.7195 120.686 38.8523C120.87 39.5412 121.121 40.2105 121.436 40.8503C121.687 41.5303 122.099 42.1395 122.636 42.6263C122.775 42.756 123.042 42.534 123 42.312Z" fill="#2A2928"/>
<path d="M118.65 43.2C118.169 42.4828 117.586 41.8395 116.919 41.2905C117.102 41.097 117.211 40.8458 117.229 40.5803C117.229 40.3553 116.962 40.2255 116.83 40.4025C116.566 40.6665 116.418 41.3175 115.365 41.4683C115.084 41.4963 114.8 41.4494 114.542 41.3325C114.285 41.2155 114.063 41.0326 113.899 40.8023C114.267 40.6032 114.565 40.2972 114.756 39.9246C114.946 39.5521 115.019 39.1306 114.964 38.7158C114.964 38.601 114.699 38.5703 114.699 38.76C114.659 39.1303 114.521 39.4831 114.298 39.7815C114.255 39.87 113.589 40.4025 113.589 40.4475C113.011 39.648 112.522 38.6708 111.546 38.4045C111.546 36.8513 111.535 35.925 110.702 34.6748C110.658 34.5863 110.524 34.6305 110.569 34.7198C111.039 35.9498 111.221 37.271 111.102 38.5823C111.102 38.6708 111.19 38.8073 111.28 38.8073C112.57 39.0653 112.886 40.8 113.899 41.5605C114.159 41.7816 114.468 41.9372 114.8 42.0145C115.132 42.0917 115.478 42.0883 115.809 42.0045C116.125 41.9016 116.425 41.7519 116.697 41.5605C117.125 41.9653 117.511 42.4114 117.85 42.8925C118.029 43.1588 118.162 43.3808 118.339 43.647C118.455 43.9072 118.588 44.1593 118.738 44.4015C118.766 44.4312 118.802 44.452 118.842 44.4613C118.881 44.4706 118.922 44.4679 118.96 44.4537C118.998 44.4395 119.031 44.4144 119.055 44.3815C119.079 44.3486 119.092 44.3093 119.094 44.2688C119 43.8923 118.851 43.5321 118.65 43.2Z" fill="#2A2928"/>
<path d="M113.096 35.7405C113.07 35.6189 112.999 35.5118 112.897 35.4405C112.795 35.3691 112.67 35.3389 112.547 35.3558C112.424 35.3726 112.311 35.4354 112.233 35.5315C112.154 35.6275 112.114 35.7499 112.121 35.874C112.119 36.7717 113.277 36.5557 113.096 35.7405Z" fill="#2A2928"/>
<path d="M115.494 30.324C114.739 30.324 113.673 30.3683 113.229 29.613C113.096 29.436 112.741 29.436 112.696 29.7023C112.648 29.9609 112.659 30.227 112.729 30.4808C112.798 30.7345 112.924 30.9694 113.096 31.1678C112.708 31.2083 112.315 31.1701 111.941 31.0557C111.567 30.9413 111.221 30.7529 110.921 30.5018C110.878 30.4624 110.824 30.438 110.766 30.4321C110.708 30.4263 110.65 30.4393 110.6 30.4692C110.55 30.4991 110.511 30.5444 110.489 30.5983C110.467 30.6521 110.463 30.7117 110.477 30.768C110.54 31.0108 110.656 31.2365 110.818 31.4286C110.979 31.6207 111.181 31.7742 111.409 31.878C110.122 32.4548 109.855 32.7218 108.435 32.6768C108.124 32.6768 107.813 33.0323 108.257 33.3878C108.815 33.8509 109.533 34.0742 110.255 34.0088C112.483 33.8783 112.594 35.2343 114.651 34.32C114.961 34.8083 115.228 35.295 115.583 35.7848C115.624 35.851 115.684 35.9024 115.756 35.9313C115.828 35.9603 115.907 35.9651 115.982 35.9452C116.057 35.9253 116.124 35.8817 116.172 35.8209C116.22 35.76 116.247 35.6853 116.249 35.6078C116.284 35.0795 116.523 34.5856 116.916 34.2308V34.1865C117.625 33.3878 119.446 35.7848 117.715 36.3615C117.049 36.5865 118.203 37.6493 118.381 37.8713C118.647 38.1818 120.201 37.605 120.645 37.6935C120.694 37.7054 120.745 37.7044 120.794 37.6908C120.842 37.6771 120.887 37.6512 120.922 37.6155C120.958 37.5797 120.984 37.5355 120.997 37.4869C121.011 37.4383 121.012 37.387 121 37.338C120.426 34.0913 118.795 30.324 115.494 30.324Z" fill="#2A2928"/>
<path d="M132.632 120.9C132.804 121.451 132.845 122.035 132.752 122.605C132.66 123.175 132.437 123.716 132.1 124.185C131.062 125.484 129.134 126.232 127.837 127.205C127.089 127.706 126.528 128.439 126.239 129.292C125.972 130.624 127.748 130.579 128.592 130.446C129.718 130.202 130.807 129.814 131.833 129.292C132.92 128.762 134.093 128.432 135.296 128.317C136.51 128.297 137.7 127.977 138.76 127.385C139.262 127.099 139.662 126.662 139.901 126.136C140.14 125.609 140.207 125.021 140.092 124.454C139.813 123.247 139.154 122.504 138.848 121.079C138.804 120.769 138.271 120.813 138.271 121.169C138.271 122.642 139.833 124.176 139.471 125.387C139.363 125.86 139.097 126.283 138.717 126.587C137.467 127.706 135.477 127.487 133.789 127.874C131.609 128.419 129.889 129.872 127.705 129.872C126.994 129.872 126.769 129.746 127.084 129.118C128.238 126.878 131.55 126.418 132.811 124.145C133.119 123.647 133.29 123.076 133.305 122.492C133.321 121.907 133.181 121.328 132.901 120.815C132.721 120.724 132.588 120.812 132.632 120.9Z" fill="#2A2928"/>
<path d="M91.1626 45.3308C88.5691 45.3308 88.9494 45.2918 88.6756 45.3308C88.6296 45.3411 88.5867 45.3624 88.5508 45.393C88.5148 45.4236 88.4869 45.4625 88.4695 45.5064C88.452 45.5502 88.4456 45.5977 88.4506 45.6446C88.4557 45.6915 88.4722 45.7365 88.4986 45.7756C88.4536 46.1303 88.4536 46.4858 88.4094 46.8406C88.4094 47.5441 87.9174 69.5821 87.9654 70.0621C87.9654 70.0621 42.8544 69.7958 38.9026 69.6631C34.0629 69.4853 23.0521 68.9078 22.3411 68.9078C22.2761 68.903 22.2118 68.9239 22.1621 68.966C22.1123 69.008 22.081 69.0679 22.0749 69.1328C21.8454 69.8243 21.9421 75.0691 21.9421 74.9941C22.1191 74.9941 22.2969 75.0383 22.4746 75.0383V74.6386C22.5399 73.6546 22.5054 70.2518 22.6081 69.5326C46.2024 71.0206 66.5521 70.7761 66.4756 70.7761C66.4681 70.8511 66.2506 75.1411 66.2506 75.2161H66.7839C66.7839 74.7353 67.0089 71.7241 67.0089 70.7761H88.1874C88.2486 70.7745 88.3083 70.7563 88.3599 70.7234C88.4116 70.6905 88.4534 70.6442 88.4807 70.5894C88.5081 70.5346 88.52 70.4734 88.5152 70.4124C88.5105 70.3513 88.4892 70.2927 88.4536 70.2428C88.4536 68.2471 88.4986 67.8556 88.4986 67.2241C88.6126 64.8151 88.8354 48.4928 88.8976 47.4241C88.8976 46.9801 88.8976 46.5361 88.8534 46.0921H91.0734C91.1839 45.8544 91.2152 45.5876 91.1626 45.3308Z" fill="#115711"/>
<path d="M125.595 14.3393C125.594 14.2796 125.586 14.2203 125.572 14.1623C125.839 14.1173 125.75 13.7625 125.528 13.7183C124.656 13.6737 123.781 13.6737 122.908 13.7183C121.933 13.7183 120.958 13.7183 119.978 13.7625C109.478 13.977 94.9364 13.2945 93.6929 13.407C93.6383 13.4087 93.5862 13.4302 93.5463 13.4675C93.5064 13.5047 93.4814 13.5553 93.476 13.6096C93.4705 13.664 93.4851 13.7184 93.5169 13.7628C93.5486 13.8073 93.5955 13.8386 93.6487 13.851C97.3237 14.4323 121.203 14.709 125.202 14.3093C125.193 14.7593 125.154 15.6428 125.127 17.7143C124.99 29.0445 125.409 39.189 125.412 39.6968C125.412 39.8745 125.758 39.936 125.749 39.6923C125.748 39.6173 125.595 12.6623 125.595 14.3393Z" fill="#2A2928"/>
<path d="M93.0751 65.9776C92.7647 65.9554 92.4532 65.9554 92.1428 65.9776C92.1428 63.7561 92.1218 65.5441 92.1218 60.4276V14.3161C92.1218 13.8743 91.5038 14.0086 91.4768 14.3393C91.6216 16.3696 91.5661 66.3293 91.5661 66.2438C91.5661 66.4216 91.7911 66.4688 91.9208 66.4216C92.2444 66.4583 92.5702 66.4731 92.8958 66.4658C93.7538 66.4658 95.58 66.6451 96.2078 66.6533C96.6833 66.6593 96.6001 66.3211 96.2146 66.2251C95.1755 66.0661 94.1262 65.9834 93.0751 65.9776Z" fill="#2A2928"/>
<path d="M100.975 71.0835C100.817 71.481 100.812 71.9224 100.959 72.3237C101.107 72.7249 101.397 73.0577 101.774 73.2585C102.307 73.5698 104.216 73.9688 104.66 73.3913C104.703 73.3421 104.727 73.2791 104.727 73.2139C104.727 73.1487 104.703 73.0857 104.66 73.0365C104.039 72.5483 102.929 73.0365 102.218 72.7703C101.922 72.6331 101.679 72.4023 101.526 72.1133C101.374 71.8244 101.32 71.4934 101.375 71.1713C101.365 71.1291 101.344 71.0905 101.314 71.0599C101.284 71.0294 101.245 71.0083 101.203 70.999C101.161 70.9898 101.117 70.9928 101.076 71.0078C101.036 71.0228 101.001 71.0491 100.975 71.0835Z" fill="#2A2928"/>
<path d="M100.62 73.215C99.7681 73.8705 101.375 75.3465 102.041 75.435C102.218 75.4793 102.662 75.435 102.751 75.2573C102.929 74.8575 102.307 74.8133 102.085 74.769C101.781 74.6666 101.514 74.4775 101.317 74.225C101.12 73.9726 101.001 73.6678 100.975 73.3485C100.975 73.125 100.796 73.0793 100.62 73.215Z" fill="#2A2928"/>
<path d="M100.531 75.7013C100.042 76.1003 100.797 76.9013 101.152 77.1668C101.33 77.2995 101.685 77.5665 101.951 77.4323C102.573 77.1225 101.33 76.5443 101.152 76.2788C101.02 76.101 100.939 75.288 100.531 75.7013Z" fill="#2A2928"/>
<path d="M96.8459 122.012C96.5272 121.772 81.5047 112.787 79.8847 111.977C79.8847 111.862 79.6927 111.847 79.4909 111.863C79.0567 111.896 73.5914 112.818 72.6914 113.042C72.4664 113.087 72.5137 113.486 72.7357 113.486H72.8692C74.7922 114.86 87.7379 122.807 89.4952 123.509C89.7412 123.625 89.7502 123.623 90.2647 123.598C90.9688 123.552 91.6699 123.467 92.3647 123.344C93.924 123.163 95.4676 122.867 96.9824 122.456C97.0106 122.42 97.0297 122.377 97.038 122.333C97.0464 122.288 97.0437 122.241 97.0303 122.198C97.0169 122.154 96.9931 122.114 96.961 122.082C96.9289 122.05 96.8894 122.025 96.8459 122.012ZM89.7412 123.122C88.9702 122.57 87.7687 121.872 87.2549 121.568C73.8884 113.644 73.5674 113.468 73.3574 113.309C74.3182 113.188 78.6127 112.327 79.6184 112.122C81.5684 113.588 93.6809 120.829 96.1777 122.075C95.3249 122.29 89.8169 123.107 89.7412 123.122Z" fill="#2A2928"/>
<path d="M138.225 117.66C138.137 117.616 138.269 116.195 138.225 115.973C138.092 115.351 137.781 114.773 137.693 114.152C137.698 113.685 137.774 113.221 137.918 112.776C138.006 111.843 137.562 110.955 137.474 110.023C137.241 107.936 137.855 107 137.249 102.919C136.583 98.523 134.939 94.1715 135.339 89.5988C135.339 89.4653 126.104 90.2205 126.148 90.3533C126.533 94.509 127.282 100.049 127.573 101.853C127.883 103.851 128.282 105.894 128.461 107.892C128.464 108.889 128.629 109.878 128.948 110.822C130.338 114.176 129.818 116.586 131.39 118.237C131.242 118.366 131.134 118.536 131.079 118.725C131.024 118.914 131.024 119.114 131.08 119.303C131.524 120.768 133.966 120.503 135.076 120.368C136.231 120.235 138.761 120.013 138.628 118.37C138.617 118.229 138.576 118.093 138.506 117.97C138.437 117.847 138.341 117.741 138.225 117.66ZM134.451 116.905C135.028 116.772 135.872 116.372 136.449 116.506C136.583 116.506 136.583 116.683 136.493 116.772C135.948 117.161 135.298 117.378 134.628 117.394C134.268 117.493 133.891 117.513 133.523 117.451C133.155 117.39 132.805 117.249 132.497 117.038C132.408 116.994 132.497 116.905 132.586 116.905C133.199 117.061 133.841 117.061 134.453 116.905H134.451ZM133.119 112.154C133.511 112.434 133.971 112.602 134.451 112.643C134.54 112.643 135.694 112.687 135.426 112.909C134.672 113.531 133.562 112.865 133.026 112.287C132.943 112.2 133.032 112.11 133.125 112.154H133.119ZM129.279 99.45C129.729 100.03 130.913 101.393 130.723 101.545C130.355 101.876 129.135 100.257 128.979 99.4898C128.903 99.1133 128.972 99.0525 129.279 99.45ZM129.879 108.161C130.857 109.474 132.157 110.514 133.653 111.179C134.171 111.348 134.675 111.556 135.162 111.801C135.188 111.811 135.209 111.829 135.223 111.853C135.236 111.877 135.24 111.905 135.235 111.932C135.23 111.959 135.215 111.983 135.194 112C135.173 112.017 135.146 112.027 135.119 112.026C134.541 112.031 133.972 111.878 133.475 111.582C132.958 111.354 132.467 111.072 132.011 110.738C131.09 110.072 130.331 109.208 129.791 108.209C129.702 108.158 129.835 108.069 129.88 108.158L129.879 108.161Z" fill="#115711"/>
<path d="M124.907 90.2205C123.974 90.2205 122.154 90.2647 121.4 90.8422C119.934 91.9522 118.025 92.2185 116.471 93.195C114.517 94.395 114.917 96.1702 115.05 98.1682C115.183 100.077 115.005 101.986 115.05 103.896C115.094 105.716 115.627 107.625 115.449 109.446C115.405 110.156 115.183 110.866 115.183 111.621C115.183 112.375 115.538 112.997 115.583 113.707C115.671 114.817 114.872 116.149 115.893 117.037C116.204 117.348 116.118 117.659 116.293 118.012C117.048 119.788 120.643 120.454 122.109 119.389C122.367 119.212 122.576 118.972 122.716 118.693C122.856 118.413 122.922 118.102 122.909 117.79C122.873 117.57 122.858 117.347 122.864 117.124C123.005 116.392 123.035 115.644 122.954 114.904C122.82 114.061 123.308 113.35 123.398 112.504C123.53 111.394 123.219 110.239 123.308 109.129C123.441 107.664 123.797 106.243 123.885 104.779C123.974 103.18 124.196 101.537 124.329 99.939C124.596 96.789 124.862 93.6337 125.174 90.5257C125.262 90.3532 125.084 90.2205 124.907 90.2205ZM117.581 100.077C117.758 100.21 118.247 100.788 117.891 100.921C117.225 101.187 116.826 99.3667 117.581 100.077ZM120.422 117.26C120 117.405 119.548 117.444 119.107 117.374C118.666 117.305 118.248 117.128 117.891 116.86C117.758 116.772 117.891 116.55 118.025 116.635C119.097 117.192 119.921 116.752 120.91 116.59C121.547 116.489 121.283 117.045 120.422 117.26ZM120.751 111.514C120.313 111.964 119.357 111.682 118.913 111.4C118.824 111.31 118.868 111.133 119.001 111.175C119.563 111.375 120.16 111.069 120.695 111.235C120.92 111.309 120.871 111.391 120.75 111.514H120.751ZM118.602 112.021C119.214 112.308 119.876 112.474 120.552 112.51C121.218 112.51 121.13 112.954 120.597 113.131C120.164 113.219 119.715 113.173 119.309 112.998C118.502 112.732 117.771 112.275 117.178 111.666C116.875 111.326 116.635 110.935 116.468 110.512C116.456 110.482 116.456 110.449 116.469 110.419C116.482 110.39 116.506 110.366 116.535 110.355C116.565 110.343 116.599 110.343 116.628 110.356C116.657 110.369 116.681 110.393 116.693 110.422C117.181 111.111 117.839 111.661 118.602 112.021Z" fill="#115711"/>
<path d="M122.687 120.856C122.687 120.546 122.154 120.458 122.109 120.768C121.843 122.366 123.114 123.998 122.465 125.297C122.277 125.684 121.964 125.997 121.577 126.185C120.609 126.643 119.526 126.797 118.469 126.629C117.283 126.503 116.084 126.562 114.916 126.806C113.941 127.031 112.918 127.339 111.897 127.472C111.891 127.7 111.847 127.926 111.764 128.138C112.587 128.022 113.402 127.859 114.206 127.65C114.804 127.489 115.412 127.371 116.026 127.295C117.672 127.06 119.594 127.751 121.399 127.028C121.927 126.855 122.39 126.524 122.723 126.079C123.057 125.634 123.246 125.098 123.264 124.542C123.429 123.388 122.687 122.55 122.687 120.856Z" fill="#2A2928"/>
<path d="M111.364 125.297C112.825 124.567 114.985 124.186 116.248 122.633C116.618 122.199 116.867 121.674 116.968 121.112C117.07 120.551 117.021 119.972 116.826 119.436C116.781 119.347 116.601 119.347 116.648 119.48C116.717 120.024 116.665 120.576 116.497 121.098C116.328 121.62 116.047 122.098 115.673 122.499C114.514 123.661 112.499 124.085 110.878 124.853H110.923C111.081 124.99 111.229 125.138 111.364 125.297Z" fill="#2A2928"/>
<path d="M59.7 137.508C63.75 136.569 110.438 126.362 110.475 126.362C110.741 126.318 110.652 125.796 110.341 125.837C110.266 125.857 59.2733 137.042 59.2118 137.042C58.857 136.78 54.8333 134.614 54.5745 134.485C46.4325 130.118 33.4193 122.848 33.129 122.719C32.8628 122.586 32.5733 123.088 32.8395 123.266C34.2465 124.355 54.9323 135.893 58.5788 137.471C58.9377 137.609 59.3328 137.622 59.7 137.508Z" fill="#2A2928"/>
<path d="M59.7 141.939C63.75 141 110.438 130.793 110.475 130.793C110.741 130.749 110.652 130.227 110.341 130.268C110.266 130.288 59.2733 141.473 59.2118 141.473C58.857 141.211 54.8333 139.045 54.5745 138.916C46.4325 134.549 33.4193 127.279 33.129 127.15C32.8628 127.017 32.5733 127.519 32.8395 127.697C34.2465 128.786 54.9323 140.324 58.5788 141.902C58.9377 142.04 59.3328 142.053 59.7 141.939Z" fill="#2A2928"/>
<path d="M59.7 146.37C63.75 145.432 110.438 135.225 110.475 135.225C110.741 135.181 110.652 134.659 110.341 134.7C110.266 134.72 59.2733 145.905 59.2118 145.905C58.857 145.643 54.8333 143.477 54.5745 143.348C46.4325 138.981 33.4193 131.711 33.129 131.582C32.8628 131.449 32.5733 131.951 32.8395 132.129C34.2465 133.218 54.9323 144.756 58.5788 146.334C58.9378 146.472 59.3329 146.485 59.7 146.37Z" fill="#2A2928"/>
<path d="M123.397 68.064C122.791 66.396 122.546 65.7698 122.376 65.0895C122.065 64.068 121.798 63.0473 121.401 62.07C121.357 61.9373 121.09 61.9373 121.09 62.115C121.206 63.1848 121.429 64.2401 121.756 65.265C121.981 66.0195 122.178 66.7148 122.445 67.425C121.787 67.5248 119.707 68.1668 119.625 68.1953C116.953 69.0705 114.343 70.1228 111.811 71.3453C110.878 71.7893 109.99 72.2783 109.102 72.7703C108.856 71.6613 108.437 70.5982 107.859 69.6203C107.669 69.2225 107.413 68.8604 107.1 68.55C106.875 68.325 106.612 68.5943 106.7 68.8605C107.127 69.5473 107.513 70.2591 107.854 70.992C108.229 71.742 108.469 72.8438 108.698 73.3005C108.75 73.4565 109.177 73.455 109.276 73.3898C112.531 71.5658 115.95 70.0495 119.488 68.8605C120.376 68.5778 122.083 68.0355 122.591 67.8855C122.68 68.0625 122.684 68.154 122.773 68.3318C123 68.5973 123.486 68.3753 123.397 68.064Z" fill="#2A2928"/>
<path d="M140.98 87.825H140.891C138.89 85.425 130.3 78.8168 127.793 76.902C127.038 76.3253 126.239 75.792 125.528 75.2153C125.351 75.0818 125.129 75.3038 125.303 75.4403C125.378 75.507 140.272 87.7935 140.348 87.8543C140.273 87.8543 108.056 90.7793 106.2 90.84C109.819 86.3758 113.707 82.1373 117.844 78.1485C117.858 78.1375 117.87 78.1236 117.878 78.1077C117.887 78.0918 117.892 78.0743 117.893 78.0563C117.894 78.0383 117.891 78.0202 117.885 78.0034C117.879 77.9865 117.869 77.9712 117.856 77.9584C117.843 77.9457 117.828 77.9358 117.811 77.9295C117.794 77.9231 117.776 77.9204 117.758 77.9216C117.74 77.9227 117.723 77.9277 117.707 77.9362C117.691 77.9447 117.677 77.9565 117.666 77.9708C116.787 78.7171 115.928 79.4871 115.091 80.28C111.788 83.5003 108.674 86.91 105.767 90.492C105.628 89.517 105.148 87.5453 104.924 86.052C104.331 83.094 104.222 81.7215 103.858 80.3243C103.844 80.2788 103.814 80.2396 103.774 80.2135C103.735 80.1873 103.687 80.1759 103.64 80.1812C103.592 80.1864 103.548 80.208 103.515 80.2422C103.482 80.2764 103.462 80.321 103.458 80.3685C103.644 82.3088 103.941 84.2369 104.346 86.1435C104.591 87.3075 105.252 91.0718 105.321 91.4273C105.366 91.7385 105.854 91.6935 105.899 91.4273C107.924 91.596 134.604 88.8893 139.155 88.5855C139.814 88.5655 140.469 88.4763 141.109 88.3193C141.335 88.2225 141.247 87.867 140.98 87.825Z" fill="#2A2928"/>
<path d="M140.625 79.0313C139.447 70.4758 138.706 61.8659 138.405 53.235C138.405 53.16 138.588 53.0565 138.421 52.9103C138.255 52.764 138.163 52.9388 138.088 52.9755C137.469 52.998 137.332 53.001 131.892 53.2358C131.611 50.8701 130.883 48.5794 129.747 46.4858C129.17 45.5903 128.45 44.7953 127.616 44.1323C126.915 43.6073 125.47 43.1828 125.216 42.2678C125.093 41.8178 125.083 41.3798 124.991 40.98C124.948 40.755 124.645 40.23 124.414 40.713C123.853 41.8512 123.031 42.8404 122.014 43.5998C121.309 44.259 120.432 44.7052 119.484 44.8868C118.509 44.976 118.107 44.1765 117.841 43.3778C117.827 43.3294 117.8 43.2856 117.763 43.2504C117.727 43.2152 117.682 43.1898 117.634 43.1764C117.585 43.1631 117.533 43.1624 117.484 43.1742C117.435 43.1861 117.39 43.2102 117.352 43.2443C112.627 47.4608 110.09 53.73 109.904 54.225C106.454 54.4815 104.129 54.6383 101.013 55.0995C100.836 55.1438 100.84 55.3035 100.842 55.431C100.891 58.4153 102.1 68.3183 102.256 70.506C102.278 71.1207 102.367 71.7311 102.523 72.3263C102.567 72.504 102.878 72.5513 102.922 72.3263C102.973 71.7935 102.959 71.2564 102.878 70.7273C102.871 70.6455 101.839 59.3588 101.279 55.7205C101.889 56.3277 102.54 56.8914 103.229 57.4073C114.598 66.8813 113.599 65.9393 114.951 66.9983C115.273 67.3109 115.634 67.5804 116.025 67.8C116.245 67.893 116.38 67.6673 116.25 67.4895C115.829 66.9 103.284 56.6265 102.53 56.0783C102.252 55.846 101.955 55.638 101.642 55.4565C102.574 55.4123 116.516 54.3915 117.76 54.3023C117.92 54.3023 118.095 54.1943 117.976 53.9175C118.122 53.3633 118.609 51.0345 118.647 50.8388C119.282 48.807 120.55 46.7138 122.644 46.4438C122.689 46.4438 122.733 46.5323 122.689 46.5323C119.204 48.6668 118.825 51.7073 118.825 55.812C118.825 58.7903 118.858 58.9935 119.05 61.806C119.082 61.8689 119.136 61.9176 119.202 61.9423C119.268 61.9671 119.341 61.9661 119.406 61.9395C125.665 60.87 127.735 60.8025 129.973 59.808L130.018 59.7638C130.15 59.6303 129.573 57.8543 129.529 57.6323C129.412 57.1073 128.486 53.3393 128.374 52.8375C128.207 52.2837 128.072 51.7207 127.969 51.1515C127.905 50.448 128.233 50.7975 128.352 51.087C128.525 51.51 128.75 52.5623 129.007 53.487C128.981 53.5128 128.962 53.5458 128.954 53.5819C128.946 53.6181 128.949 53.6558 128.962 53.6905C128.974 53.7252 128.997 53.7554 129.027 53.7773C129.057 53.7992 129.093 53.812 129.13 53.814C132.003 53.9043 134.878 53.8292 137.743 53.589C137.077 54.3443 136.5 55.1873 135.878 55.9425C133.733 58.674 132.39 60.2093 131.926 61.137C131.837 61.2705 132.059 61.4483 132.193 61.3148C133.064 60.4141 133.866 59.4494 134.593 58.4288C136.575 55.9065 136.668 55.7835 138.004 54C137.554 62.0745 139.654 78 141.342 85.158C141.385 85.3358 141.697 85.2908 141.697 85.1138C141.246 83.0715 140.906 81.027 140.625 79.0313ZM115.132 53.8148L114.561 53.856C114.511 52.2029 114.894 50.5655 115.671 49.1055C115.716 49.0605 115.804 49.0605 115.804 49.1498C115.676 50.3843 115.03 52.9853 115.132 53.8148ZM126.017 55.5878C125.177 57.0705 124.196 58.4683 123.086 59.7615C123.042 59.8058 122.997 59.7615 122.997 59.7173C123.486 58.7423 124.063 57.8078 124.596 56.8755C125.006 56.0803 125.477 55.3178 126.004 54.5948C126.566 53.9378 126.477 54.7448 126.429 54.882C126.313 55.1293 126.176 55.3655 126.017 55.5878Z" fill="#2A2928"/>
</svg>
