<svg width="150" height="150" viewBox="0 0 150 150" fill="none" xmlns="http://www.w3.org/2000/svg">
<path d="M84.7874 88.014C84.4919 86.214 83.6204 84.9075 81.7949 84.6067C80.905 84.5068 80.0081 84.4853 79.1144 84.5422C77.3024 84.5662 63.5062 84.7327 63.5062 84.7327C63.0127 84.6915 45.5527 84.5625 44.7509 84.5422C43.1242 84.5025 41.6054 84.4965 40.5614 85.9237C39.5692 87.2797 39.6322 89.184 39.5864 90.7882C39.3389 98.7577 39.4964 106.804 39.8407 112.26C39.838 112.749 39.9573 113.232 40.1879 113.663C40.9379 114.863 42.7289 114.811 44.1667 114.841C46.1339 114.88 59.9407 114.965 61.2412 114.969C61.5074 115.005 80.8979 114.835 81.2722 114.823C82.3814 114.787 83.8222 114.7 84.4222 113.579C84.6273 113.128 84.7315 112.638 84.7274 112.142C85.2914 102.225 85.1159 90.0172 84.7874 88.014ZM83.9954 112.054C84.0417 112.338 84.0174 112.629 83.9246 112.902C83.8319 113.174 83.6735 113.42 83.4634 113.617C83.2533 113.814 82.998 113.956 82.72 114.031C82.442 114.106 82.1498 114.112 81.8692 114.047C80.0092 114.186 42.7012 114.056 42.6224 114.047C42.2831 114.065 41.9443 114.006 41.6308 113.875C41.3173 113.744 41.0372 113.544 40.8112 113.29C40.6129 112.877 40.5216 112.42 40.5457 111.961C40.1612 104.91 40.0799 97.8462 40.3019 90.7882C40.3904 87.855 40.4617 85.4685 43.3964 85.2705C43.4714 85.266 63.4432 85.377 63.5099 85.3882C63.5616 85.3986 63.6148 85.3983 63.6664 85.3875C63.7179 85.3767 63.7668 85.3555 63.8099 85.3252C63.8099 85.3252 79.0979 85.2952 79.6837 85.2832C80.9527 85.257 82.4272 85.1512 83.3219 86.253C84.2362 87.3825 84.1957 89.445 84.2384 90.8782C84.4709 98.418 84.3562 105.75 83.9954 112.054Z" fill="#2A2928"/>
<path d="M146.239 81.9937C146.203 76.6492 145.634 21.132 145.617 20.7937C145.612 20.6932 145.446 20.3632 145.242 20.3715C145.167 20.3715 68.892 20.9242 68.592 20.9482C68.5508 20.9245 68.5043 20.9115 68.4568 20.9105C68.4092 20.9095 68.3622 20.9204 68.32 20.9423C68.2778 20.9641 68.2418 20.9963 68.2153 21.0357C68.1887 21.0752 68.1726 21.1207 68.1682 21.168C68.1217 22.2105 68.4592 36.918 68.4615 36.993C68.4631 38.2663 68.5634 39.5376 68.7615 40.7955C68.7774 40.8529 68.8136 40.9026 68.8634 40.9354C68.9131 40.9683 68.9731 40.982 69.0322 40.974C69.0912 40.966 69.1454 40.937 69.1847 40.8922C69.224 40.8474 69.2458 40.7898 69.246 40.7302C69.3272 39.6367 69.3522 38.5398 69.321 37.4437C69.285 36.0247 68.9242 23.3317 68.8912 22.7625C68.8711 22.3193 68.8257 21.8776 68.7555 21.4395C68.7555 21.4395 145.02 20.9145 145.089 20.9055C145.049 24.4845 145.657 93.798 145.667 94.1512C145.592 94.1512 98.2035 94.734 98.2605 94.7317C97.944 94.7452 97.9425 95.238 98.2605 95.2245C98.343 95.2245 144.561 94.8442 145.843 94.6785C145.925 94.6569 146 94.6116 146.057 94.5481C146.115 94.4847 146.152 94.4059 146.165 94.3215C146.138 92.0482 146.293 90.3 146.239 81.9937Z" fill="#2A2928"/>
<path d="M128.146 55.6852C127.941 55.9012 127.744 56.1247 127.552 56.352C127.456 55.72 127.347 55.0895 127.225 54.4605C127.21 54.4076 127.179 54.3605 127.137 54.3248C127.094 54.289 127.043 54.2662 126.988 54.2591C126.933 54.252 126.878 54.2608 126.828 54.2846C126.778 54.3083 126.736 54.346 126.707 54.393C126.366 55.031 126.031 55.6725 125.702 56.3175C125.639 56.1495 125.574 55.9817 125.509 55.8142C125.488 55.7437 125.441 55.6839 125.377 55.6471C125.313 55.6103 125.238 55.5993 125.166 55.6162C125.095 55.6332 125.032 55.6769 124.992 55.7383C124.951 55.7998 124.936 55.8745 124.948 55.947C124.714 56.622 124.135 60.687 123.538 64.587C123.527 64.6335 123.532 64.6821 123.552 64.7258C123.571 64.7694 123.603 64.8058 123.644 64.8297C123.686 64.8537 123.733 64.8639 123.781 64.859C123.828 64.854 123.873 64.8342 123.908 64.8022C124.129 64.6057 124.332 64.3898 124.515 64.1572C124.615 64.6387 124.734 65.1155 124.873 65.5875C124.886 65.6285 124.91 65.665 124.943 65.6927C124.976 65.7203 125.016 65.738 125.059 65.7436C125.102 65.7492 125.145 65.7425 125.184 65.7243C125.223 65.706 125.255 65.6771 125.278 65.6407C125.522 65.244 125.753 64.8382 125.979 64.4287C126.11 64.8037 126.241 65.1787 126.368 65.5597C126.382 65.6068 126.41 65.6482 126.449 65.6776C126.488 65.7071 126.536 65.723 126.585 65.723C126.633 65.723 126.681 65.7071 126.72 65.6776C126.759 65.6482 126.788 65.6068 126.801 65.5597C127.513 62.4907 128.205 59.0347 128.622 55.8847C128.655 55.6365 128.299 55.5232 128.146 55.6852ZM126.541 64.725L126.227 63.8625C126.215 63.8235 126.192 63.7887 126.161 63.7623C126.13 63.7359 126.092 63.7191 126.052 63.7137C126.011 63.7083 125.97 63.7147 125.933 63.732C125.896 63.7494 125.865 63.7769 125.843 63.8115C125.627 64.2066 125.402 64.5967 125.168 64.9815C125.044 64.5123 124.938 64.0384 124.851 63.561C124.838 63.5198 124.814 63.4831 124.781 63.4553C124.748 63.4274 124.708 63.4097 124.665 63.4041C124.622 63.3984 124.579 63.4052 124.54 63.4236C124.501 63.442 124.468 63.4712 124.445 63.5077C124.334 63.6813 124.211 63.8472 124.077 64.0042C124.396 61.938 125.176 56.6715 125.188 56.5792L125.389 57.1095C125.405 57.1636 125.437 57.2119 125.479 57.2487C125.522 57.2856 125.574 57.3093 125.63 57.3172C125.687 57.3254 125.744 57.3166 125.796 57.2918C125.847 57.2671 125.89 57.2277 125.919 57.1785C126.219 56.5845 126.522 55.9922 126.829 55.4017C126.929 55.9667 127.02 56.533 127.102 57.1005C127.116 57.1534 127.146 57.2008 127.188 57.2367C127.229 57.2727 127.28 57.2954 127.335 57.3022C127.552 57.3285 127.597 57.1702 127.954 56.7487C127.567 59.5845 127.152 62.0932 126.541 64.725Z" fill="#2A2928"/>
<path d="M120.161 83.3625C119.854 83.2749 119.527 83.2867 119.227 83.3962C119.002 83.4712 119.132 83.5612 118.996 85.2292C118.956 85.4201 118.962 85.6178 119.013 85.806C119.023 85.8306 119.04 85.852 119.061 85.8681C119.082 85.8842 119.107 85.8944 119.134 85.8976C119.16 85.9008 119.187 85.8969 119.211 85.8864C119.236 85.8758 119.257 85.8589 119.273 85.8375C119.358 85.6615 119.398 85.4668 119.39 85.2712C119.403 85.0837 119.424 84.693 119.424 84.693C120.611 84.834 121.125 83.7075 120.161 83.3625ZM120.004 84.2625C119.826 84.3341 119.63 84.3475 119.444 84.3007C119.454 84.0907 119.462 83.8807 119.46 83.6707C120.142 83.4577 120.605 83.9895 120.004 84.261V84.2625Z" fill="#2A2928"/>
<path d="M122.382 84.5003C122.254 84.127 122.107 83.7605 121.941 83.4023C121.926 83.3666 121.901 83.3362 121.869 83.3148C121.836 83.2934 121.799 83.282 121.76 83.282C121.721 83.282 121.683 83.2934 121.651 83.3148C121.619 83.3362 121.594 83.3666 121.579 83.4023C121.27 84.1714 121.048 84.9723 120.916 85.7903C120.903 85.9493 121.16 85.9658 121.216 85.8263C121.338 85.4948 121.42 85.1513 121.516 84.8108C121.561 84.8205 121.958 84.873 122.106 84.8798C122.128 84.9548 122.158 85.0298 122.181 85.1048C122.219 85.2997 122.269 85.4921 122.331 85.6808C122.401 85.845 122.698 85.8368 122.692 85.6365C122.62 85.25 122.516 84.8699 122.382 84.5003ZM121.594 84.5138C121.651 84.3248 121.712 84.1388 121.777 83.9498C121.857 84.1453 121.932 84.3433 122.002 84.5438C121.866 84.5297 121.73 84.5197 121.594 84.5138Z" fill="#2A2928"/>
<path d="M124.486 83.6902C124.486 84.153 124.499 84.615 124.503 85.077C123.947 84.1942 123.899 83.8522 123.603 83.4847C123.502 83.358 123.254 83.391 123.257 83.5702C123.26 84.3053 123.3 85.0398 123.377 85.7707C123.414 85.9207 123.635 85.8667 123.652 85.737C123.676 85.2542 123.672 84.7703 123.639 84.288C123.864 84.7895 124.162 85.2553 124.523 85.6702C124.614 85.788 124.823 85.7505 124.829 85.5952C124.841 84.96 124.877 84.3262 124.898 83.6925C124.908 83.448 124.484 83.448 124.486 83.6902Z" fill="#2A2928"/>
<path d="M130.968 83.4562C130.968 83.9212 130.982 84.384 130.985 84.849C130.863 84.6547 130.751 84.4537 130.64 84.2572C130.477 83.9102 130.291 83.5738 130.085 83.25C129.985 83.1232 129.736 83.1562 129.74 83.3355C129.742 84.0706 129.782 84.805 129.86 85.536C129.897 85.686 130.117 85.632 130.134 85.5022C130.161 85.026 130.157 84.5485 130.121 84.0727C130.357 84.5625 130.654 85.0204 131.005 85.4355C131.096 85.5502 131.305 85.5172 131.311 85.3605C131.324 84.7252 131.36 84.0915 131.381 83.4577C131.39 83.2155 130.967 83.214 130.968 83.4562Z" fill="#2A2928"/>
<path d="M125.988 83.3393C125.836 83.3269 125.683 83.3367 125.534 83.3685C125.404 83.3858 125.419 83.5665 125.534 83.5935C125.771 83.6454 126.011 83.6753 126.253 83.6828C126.222 84.1651 126.233 84.6491 126.286 85.1295C126.27 85.3131 126.312 85.497 126.408 85.6546C126.428 85.6719 126.451 85.685 126.476 85.6928C126.501 85.7007 126.528 85.7031 126.554 85.7001C126.58 85.6971 126.606 85.6886 126.628 85.6752C126.651 85.6618 126.671 85.6438 126.686 85.6223C126.766 85.4768 126.703 85.2908 126.686 85.1333C126.606 84.4133 126.618 84.1583 126.571 83.7083C127.087 83.733 127.183 83.745 127.264 83.6895C127.284 83.6797 127.301 83.6651 127.315 83.647C127.328 83.6289 127.336 83.6078 127.34 83.5856C127.343 83.5634 127.34 83.5408 127.333 83.5197C127.325 83.4986 127.313 83.4796 127.296 83.4646C127.194 83.3716 127.117 83.3701 125.988 83.3393Z" fill="#2A2928"/>
<path d="M129.008 83.3183C128.645 82.9433 127.958 83.1683 127.973 83.5628C127.573 84.3878 127.689 85.554 128.565 85.3838C129.202 85.2623 129.352 84.474 129.24 83.8335C129.216 83.6423 129.136 83.4627 129.008 83.3183ZM128.854 84.4433C128.831 84.6548 128.758 84.9525 128.498 85.0208C128.041 85.14 128.092 84.2708 128.182 83.8073C128.203 83.8061 128.223 83.7993 128.241 83.7875C128.259 83.7758 128.273 83.7596 128.283 83.7405C128.317 83.6892 128.357 83.6417 128.401 83.5988C128.424 83.5665 128.455 83.5407 128.491 83.5238C128.833 83.3865 128.895 84.0668 128.854 84.4433Z" fill="#2A2928"/>
<path d="M133.43 85.1393C133.344 85.1303 132.436 85.2143 132.392 85.2008C132.364 85.0018 132.346 84.8016 132.337 84.6008C132.67 84.6113 132.76 84.6083 133.087 84.5948C133.232 84.5903 133.437 84.5641 133.437 84.3923C133.433 84.3475 133.415 84.3052 133.384 84.2726C133.353 84.2399 133.311 84.2189 133.267 84.2131C132.955 84.2068 132.644 84.2264 132.335 84.2716C132.336 84.0664 132.346 83.8614 132.367 83.6573C132.415 83.6506 133.117 83.5771 133.414 83.5546C133.448 83.5546 133.48 83.541 133.504 83.517C133.528 83.4929 133.542 83.4603 133.542 83.4263C133.542 83.3923 133.528 83.3597 133.504 83.3356C133.48 83.3116 133.448 83.2981 133.414 83.2981C132.984 83.2433 132.548 83.2636 132.125 83.3581C131.936 83.4518 131.967 83.7286 131.956 83.8943C131.93 84.2909 131.939 84.6891 131.986 85.0838C132.007 85.2608 132.031 85.4438 132.232 85.5263C132.412 85.6013 132.567 85.5556 133.144 85.5166C133.259 85.5149 133.374 85.5034 133.486 85.4821C133.673 85.4303 133.681 85.1641 133.43 85.1393Z" fill="#2A2928"/>
<path d="M16.0253 57.6345C15.7058 56.3595 15.4538 55.071 15.2191 53.7825C15.2009 53.7222 15.1602 53.6713 15.1055 53.6403C15.0507 53.6093 14.9861 53.6006 14.9251 53.616C13.6163 53.8342 12.3106 54.0742 11.0056 54.3135C10.8736 54.3382 10.8023 54.525 10.7986 54.6135C10.9332 55.9275 11.1587 57.2306 11.4736 58.5135C11.4885 58.566 11.5202 58.6123 11.5638 58.6453C11.6073 58.6783 11.6604 58.6963 11.7151 58.6965C13.1216 58.6052 14.5124 58.3484 15.8588 57.9315C15.8893 57.9229 15.9177 57.9084 15.9426 57.8889C15.9674 57.8693 15.9881 57.845 16.0036 57.8175C16.0191 57.7899 16.0289 57.7595 16.0327 57.7281C16.0364 57.6967 16.0339 57.6649 16.0253 57.6345Z" fill="#115711"/>
<path d="M17.1794 63.2183C16.8592 61.947 16.6072 60.6548 16.3724 59.367C16.3544 59.3066 16.3138 59.2555 16.259 59.2244C16.2042 59.1932 16.1395 59.1844 16.0784 59.1998C14.7703 59.4217 13.464 59.6545 12.1597 59.898C12.0269 59.922 11.9557 60.1125 11.9519 60.198C12.087 61.512 12.3125 62.8151 12.6269 64.098C12.6417 64.1505 12.6732 64.1968 12.7167 64.2298C12.7601 64.2628 12.8131 64.2808 12.8677 64.281C14.2742 64.1902 15.6651 63.9335 17.0114 63.516C17.0731 63.4987 17.1254 63.4576 17.1569 63.4018C17.1884 63.346 17.1965 63.28 17.1794 63.2183Z" fill="#115711"/>
<path d="M24.258 53.0092C22.215 52.7052 20.1662 52.447 18.1117 52.2345C18.0434 52.2353 17.9772 52.2582 17.9231 52.2999C17.869 52.3416 17.8299 52.3997 17.8117 52.4655C17.5537 53.3292 17.414 54.2238 17.3962 55.125C17.382 55.3365 17.7052 55.3725 17.76 55.1745C17.9027 54.761 18.0214 54.3395 18.1155 53.9122C18.1905 53.5695 18.2737 53.229 18.3562 52.8892C20.1822 53.0817 22.0037 53.3107 23.8207 53.5762C23.682 54.4507 21.4387 67.2157 21.3982 67.4827C21.3255 67.7655 21.3362 68.0632 21.429 68.34C21.4379 68.3667 21.4542 68.3904 21.476 68.4082C21.4977 68.4261 21.5241 68.4375 21.552 68.4411C21.58 68.4447 21.6084 68.4404 21.6339 68.4286C21.6595 68.4168 21.6813 68.3981 21.6967 68.3745C21.9728 67.9617 22.1347 67.4833 22.1662 66.9877C22.26 66.4995 23.6662 58.677 23.9812 56.7127C24.1575 55.6065 24.3097 54.4987 24.4792 53.3932C24.5017 53.244 24.441 53.0362 24.258 53.0092Z" fill="#2A2928"/>
<path d="M18.8767 58.2247C18.5565 58.1212 18.4192 58.6252 18.738 58.7287C19.7168 59.0449 20.7296 59.2442 21.7552 59.3227C21.8126 59.3227 21.8685 59.304 21.9143 59.2693C21.96 59.2346 21.9932 59.186 22.0087 59.1307C22.3087 57.6807 22.5372 56.2195 22.6942 54.747C22.7115 54.5925 22.5585 54.4987 22.4295 54.483C19.251 54.084 19.1842 54.075 18.8865 54.108C18.8419 54.1106 18.7995 54.1287 18.7668 54.1592C18.734 54.1896 18.7129 54.2305 18.7069 54.2748C18.701 54.3191 18.7107 54.3641 18.7342 54.4021C18.7578 54.44 18.7939 54.4686 18.8362 54.483C19.1115 54.5895 19.1317 54.594 22.1362 54.9697C21.9917 56.2462 21.7932 57.5147 21.5407 58.7752C20.6354 58.6887 19.7422 58.5041 18.8767 58.2247Z" fill="#2A2928"/>
<path d="M21.0704 60.687C20.8064 60.6322 19.6859 60.4177 19.3904 60.3607C19.1151 60.2634 18.8177 60.2467 18.5332 60.3127C18.5157 60.3232 18.5009 60.3375 18.4897 60.3546C18.4786 60.3716 18.4715 60.391 18.4689 60.4112C18.4663 60.4314 18.4683 60.4519 18.4747 60.4712C18.4812 60.4905 18.492 60.5081 18.5062 60.5227C18.6607 60.6885 18.7747 60.684 20.9189 61.1227C20.9099 61.332 20.6362 63.6727 20.2094 65.79C20.1502 66.0825 20.6002 66.2085 20.6594 65.9137C20.9797 64.3526 21.2151 62.7753 21.3644 61.1887C21.3892 60.9375 21.3427 60.7432 21.0704 60.687Z" fill="#2A2928"/>
<path d="M9.86319 66.417C9.70869 66.1215 4.92444 58.3515 4.49394 57.6217C5.65706 56.656 6.92621 55.8257 8.27694 55.1467C8.47944 55.0267 8.66769 54.8707 8.86494 54.7425C9.06219 54.6142 8.93544 54.273 8.70444 54.3622C8.47344 54.4515 8.24394 54.5122 8.02494 54.6067C7.79169 54.7087 6.72069 55.26 6.13569 55.6132C5.31223 56.0994 4.54398 56.6735 3.84444 57.3255C3.7938 57.3774 3.76138 57.4444 3.75205 57.5164C3.74272 57.5883 3.75698 57.6613 3.79269 57.7245C4.72569 59.3325 7.71894 64.1505 9.23169 66.6427C9.39123 66.9291 9.58654 67.1939 9.81294 67.431C9.85077 67.4672 9.89937 67.4902 9.95139 67.4963C10.0034 67.5025 10.056 67.4917 10.1013 67.4653C10.1466 67.439 10.1821 67.3987 10.2025 67.3504C10.2228 67.3021 10.2269 67.2485 10.2142 67.1977C10.1284 66.9245 10.0106 66.6625 9.86319 66.417Z" fill="#2A2928"/>
<path d="M8.63402 56.289C7.93077 56.6951 7.25437 57.146 6.60902 57.639C5.99327 58.1175 6.10202 57.96 7.16627 59.9295L8.08652 61.6358C8.11825 61.6889 8.16958 61.7275 8.22947 61.7432C8.28937 61.7589 8.35303 61.7505 8.40677 61.7198C8.83202 61.4048 9.23177 61.0598 9.68552 60.7883C9.71344 60.7721 9.73756 60.7502 9.75626 60.724C9.77497 60.6977 9.78781 60.6677 9.79393 60.6361C9.80004 60.6044 9.79929 60.5719 9.79171 60.5405C9.78414 60.5092 9.76992 60.4799 9.75002 60.4545C9.73727 60.1148 9.33527 58.2045 9.01427 56.3865C8.97752 56.2028 8.75252 56.196 8.63402 56.289Z" fill="#2A2928"/>
<path d="M11.1196 66.591C10.9426 66.012 10.8668 65.25 10.6358 64.2142C10.4858 63.5392 10.3313 62.8642 10.2338 62.1757C10.2046 61.968 9.94209 61.995 9.85884 62.1472C9.72384 62.199 9.44334 62.3947 8.89434 62.7292C8.85279 62.7547 8.82266 62.7951 8.81022 62.8422C8.79778 62.8893 8.80401 62.9394 8.82759 62.982C9.18609 63.6195 9.54009 64.257 9.87159 64.9117C10.1346 65.5555 10.4486 66.1772 10.8106 66.771C10.9268 66.9195 11.1706 66.7575 11.1196 66.591Z" fill="#2A2928"/>
<path d="M52.4153 51.987L52.4056 51.9713C52.3754 51.9282 52.3431 51.8866 52.3088 51.8468C52.2059 51.7398 52.0744 51.6646 51.9301 51.63C51.8399 51.605 51.7451 51.6014 51.6533 51.6195C51.6215 51.6219 51.59 51.6264 51.5588 51.633C51.5416 51.633 51.4088 51.6945 51.3908 51.702C51.2855 51.7625 51.1964 51.8477 51.1313 51.9503C51.0958 52.016 51.0669 52.0851 51.0451 52.1565C51.0133 52.2795 51.0133 52.4085 51.0451 52.5315C51.0671 52.6029 51.096 52.6719 51.1313 52.7378C51.2103 52.872 51.3349 52.9734 51.4823 53.0235C51.5882 53.0818 51.7059 53.1151 51.8266 53.121C51.8998 53.1209 51.9728 53.1121 52.0441 53.0948C52.1142 53.0751 52.1796 53.0411 52.2361 52.995C52.2599 52.9792 52.2818 52.9606 52.3013 52.9395C52.3851 52.8502 52.4475 52.7431 52.4838 52.6261C52.5202 52.5092 52.5296 52.3856 52.5113 52.2645C52.503 52.1655 52.47 52.0701 52.4153 51.987Z" fill="#2A2928"/>
<path d="M58.6306 51.987L58.6208 51.9713C58.5907 51.9282 58.5584 51.8866 58.5241 51.8468C58.4221 51.7404 58.2921 51.6652 58.1491 51.63C58.0589 51.605 57.9641 51.6014 57.8723 51.6195C57.8405 51.6219 57.809 51.6264 57.7778 51.633C57.7606 51.633 57.6278 51.6945 57.6098 51.702C57.5046 51.7624 57.4158 51.8477 57.3511 51.9503C57.315 52.0158 57.2858 52.085 57.264 52.1565C57.2323 52.2795 57.2323 52.4085 57.264 52.5315C57.2861 52.6029 57.315 52.6719 57.3503 52.7378C57.4293 52.872 57.5539 52.9734 57.7013 53.0235C57.8283 53.1006 57.9771 53.1341 58.1249 53.1189C58.2727 53.1038 58.4115 53.0408 58.5203 52.9395C58.604 52.8502 58.6664 52.743 58.7027 52.6261C58.7391 52.5092 58.7485 52.3856 58.7303 52.2645C58.7212 52.1651 58.6868 52.0696 58.6306 51.987Z" fill="#2A2928"/>
<path d="M54.6562 56.1172C55.0762 56.2807 55.4062 55.9207 55.1715 55.5922C54.9637 55.2982 54.633 55.4692 53.9572 54.663C54.3961 54.2778 54.73 53.7875 54.9277 53.238C55.2002 52.5576 55.3232 51.8266 55.2885 51.0945C55.2769 51.0556 55.2542 51.021 55.2233 50.9947C55.1924 50.9685 55.1546 50.9517 55.1144 50.9465C55.0742 50.9412 55.0333 50.9477 54.9967 50.9652C54.9602 50.9827 54.9294 51.0104 54.9082 51.045C54.6495 51.57 54.6022 53.157 53.3775 54.156C53.2524 54.2353 53.1596 54.3565 53.1157 54.498C53.1034 54.5972 53.1133 54.698 53.1447 54.7929C53.1761 54.8879 53.2282 54.9746 53.2972 55.047C53.6407 55.5244 54.1117 55.8953 54.6562 56.1172Z" fill="#2A2928"/>
<path d="M53.0505 57.402C53.0775 57.4177 53.106 57.432 53.133 57.4462C53.1347 57.4582 53.1374 57.47 53.1413 57.4815C53.4593 58.293 53.4848 59.1772 53.7495 60.0052C54.627 62.7495 57.6638 62.721 58.209 59.001C58.3253 58.0522 58.3112 57.0921 58.167 56.1472C58.165 56.0823 58.1444 56.0194 58.1075 55.966C58.0707 55.9126 58.0192 55.8709 57.9593 55.846C57.8994 55.821 57.8336 55.8139 57.7697 55.8254C57.7059 55.837 57.6467 55.8666 57.5993 55.911C57.0047 56.4263 56.2921 56.787 55.5248 56.961C54.7449 57.0881 53.9496 57.0881 53.1698 56.961C52.9268 56.934 52.86 57.2902 53.0505 57.402ZM57.573 56.823C57.7412 58.0683 57.536 59.3355 56.9835 60.4642C56.2043 61.7722 54.9285 61.254 54.4658 59.8642C54.2348 59.1712 54.177 58.4347 53.9828 57.7327C55.2522 57.9064 56.5395 57.5802 57.573 56.823Z" fill="#2A2928"/>
<path d="M57.2249 49.4835C57.3307 49.461 57.4312 49.419 57.5384 49.392C57.8369 49.3517 58.1407 49.3902 58.4197 49.5037C58.6986 49.6173 58.943 49.8019 59.1284 50.0392C59.3152 50.2837 59.4149 50.7142 59.7434 50.7997C59.8118 50.8184 59.8847 50.8093 59.9464 50.7745C60.008 50.7397 60.0534 50.6819 60.0727 50.6137C60.0831 50.3981 60.0173 50.1856 59.8867 50.0137C59.6518 49.5549 59.2689 49.1889 58.7999 48.975C58.3408 48.7572 57.8169 48.7185 57.3307 48.8662C57.2413 48.8975 57.1591 48.9463 57.0889 49.0098C57.0187 49.0733 56.962 49.1502 56.9219 49.236C56.8364 49.395 56.9812 49.6057 57.2249 49.4835Z" fill="#2A2928"/>
<path d="M50.7053 50.4899C50.7519 50.2843 50.8361 50.0891 50.9535 49.9139C51.0877 49.7449 51.2407 49.5917 51.4095 49.4572C51.5565 49.2976 51.7509 49.1895 51.964 49.149C52.1772 49.1085 52.3977 49.1376 52.593 49.2322C52.6664 49.2631 52.7491 49.2636 52.8229 49.2336C52.8966 49.2036 52.9554 49.1455 52.9864 49.0721C53.0173 48.9987 53.0178 48.916 52.9878 48.8422C52.9578 48.7684 52.8997 48.7096 52.8263 48.6787C52.5386 48.4986 52.1917 48.4386 51.8603 48.5114C51.4932 48.6227 51.1559 48.8154 50.8736 49.0751C50.5913 49.3348 50.3712 49.6549 50.2298 50.0114C50.1976 50.1694 50.2042 50.3329 50.2493 50.4877C50.3018 50.7059 50.6655 50.7269 50.7053 50.4899Z" fill="#2A2928"/>
<path d="M87.9001 86.0842C87.9751 86.3497 88.0876 86.5965 88.1633 86.8635C88.1791 86.8936 88.2046 86.9174 88.2358 86.9311C88.2669 86.9448 88.3017 86.9475 88.3346 86.9388C88.3675 86.9301 88.3964 86.9104 88.4167 86.8831C88.4369 86.8558 88.4473 86.8224 88.4461 86.7885C88.3861 86.2217 88.2833 85.6604 88.1386 85.1092C87.9136 84.1139 87.5648 82.6492 86.7683 80.1637C85.6838 76.7752 83.4226 71.109 81.3991 68.2597C80.3001 66.5962 78.7433 65.2862 76.9163 64.488C76.0549 64.1151 75.1233 63.9325 74.1849 63.9525C73.2465 63.9726 72.3235 64.1949 71.4788 64.6042C70.5728 65.0805 70.8226 65.5927 71.4653 65.2792C71.7466 65.1197 72.044 64.9905 72.3526 64.8937C73.6245 64.5325 74.9772 64.575 76.2241 65.0152C79.9088 66.2114 81.8356 70.0342 83.4316 73.5652C85.2494 77.6136 86.7436 81.7997 87.9001 86.0842Z" fill="#2A2928"/>
<path d="M85.9066 93.7501C85.8871 93.9586 86.2208 93.9983 86.2703 93.7996C87.8513 87.3931 92.6558 83.8328 94.4558 80.4743C96.1006 77.4038 95.1308 75.0916 95.0363 73.3336C94.7648 68.3513 97.9703 69.1891 100.116 67.5098C100.511 67.2016 101.052 66.4756 101.106 66.9983C101.162 67.6138 101.04 68.2326 100.754 68.7803C100.307 69.6228 99.6901 70.3635 98.9423 70.9553C98.8983 70.9987 98.8667 71.0531 98.8508 71.1129C98.835 71.1726 98.8355 71.2356 98.8523 71.2951C99.3473 72.7148 99.1148 73.7701 98.6933 75.1951C98.6056 75.4951 99.0023 75.6203 99.1651 75.3938C99.5174 74.7817 99.7373 74.1025 99.8106 73.4001C99.8838 72.6976 99.8088 71.9877 99.5903 71.3161C100.614 70.5027 101.356 69.3882 101.711 68.13C101.846 67.53 101.999 66.42 101.24 66.1718C100.532 65.9408 100.07 66.7021 99.5986 67.0441C98.2103 68.0513 96.3803 68.0475 95.2486 69.5258C94.4943 70.7118 94.1801 72.1249 94.3606 73.5188C94.4671 74.9716 95.1428 76.8143 94.3246 79.1116C92.9198 83.0543 86.4983 87.3811 85.9066 93.7501Z" fill="#2A2928"/>
<path d="M108.169 74.3753C107.638 73.7798 106.702 73.8825 105.963 73.9913C105.087 74.0911 104.239 74.356 103.462 74.772C103.223 74.9018 103.408 75.2633 103.477 75.339C103.645 75.5456 103.856 75.713 104.095 75.8295C104.34 75.9442 104.598 76.0288 104.863 76.0815C105.294 76.1633 106.306 76.2263 106.506 75.8363C106.541 75.7728 106.55 75.6985 106.531 75.6287C106.512 75.5588 106.467 75.4989 106.405 75.4613C106.187 75.3315 105.896 75.4613 105.673 75.477C105.112 75.5212 104.551 75.4002 104.058 75.129C104.739 74.9162 105.434 74.7518 106.138 74.637C106.649 74.562 107.543 74.412 107.794 75.0278C107.868 75.3183 107.857 75.6236 107.763 75.9081C107.67 76.1927 107.497 76.4448 107.266 76.635C106.345 77.5493 103.957 78.2535 101.801 79.8465C99.0315 81.8918 98.2927 84.3045 97.7767 87.7215C97.3507 91.1367 96.6308 94.5087 95.625 97.8C93.8632 103.507 90.9982 108.6 86.19 105.091C86.0025 104.954 85.785 105.251 85.944 105.409C88.6492 108.078 91.5795 107.181 93.6892 104.092C95.4247 101.549 96.6592 97.2668 97.3642 94.2735C99.0142 87.249 98.1847 83.7068 101.888 80.712C104.877 78.2925 108.438 77.9745 108.529 75.4478C108.552 75.0571 108.423 74.6729 108.169 74.3753Z" fill="#2A2928"/>
<path d="M104.787 72.5025C103.856 72.5678 102.155 72.9728 101.497 73.6275C101.455 73.6725 101.428 73.7301 101.42 73.7916C101.413 73.8532 101.426 73.9155 101.457 73.9691C101.489 74.0227 101.536 74.0648 101.593 74.0889C101.651 74.113 101.714 74.118 101.774 74.103C102.691 73.6633 103.664 73.3522 104.666 73.1783C105.081 73.1058 105.504 73.097 105.922 73.152C106.279 73.1968 106.607 73.3708 106.845 73.641C106.972 73.818 107.314 73.716 107.226 73.4805C107.154 73.2512 107.017 73.048 106.831 72.8963C106.215 72.5337 105.493 72.3946 104.787 72.5025Z" fill="#2A2928"/>
<path d="M102.124 70.938C101.724 71.0028 101.329 71.0894 100.939 71.1975C100.803 71.2614 100.679 71.347 100.57 71.451C100.541 71.4809 100.52 71.5179 100.509 71.5584C100.499 71.5989 100.499 71.6414 100.51 71.6819C100.52 71.7224 100.541 71.7594 100.571 71.7892C100.6 71.8191 100.637 71.8408 100.677 71.8523C100.922 71.9341 101.188 71.9245 101.427 71.8252C102.112 71.6309 102.822 71.5359 103.534 71.5432C104.305 71.5678 105.05 71.8298 105.667 72.2932C105.709 72.3358 105.766 72.3614 105.826 72.3652C105.886 72.369 105.945 72.3508 105.993 72.314C106.04 72.2772 106.072 72.2242 106.084 72.1652C106.095 72.1061 106.084 72.045 106.054 71.9932C105.167 70.8322 103.582 70.7025 102.124 70.938Z" fill="#2A2928"/>
<path d="M102.3 65.175C102.177 64.4727 102.222 63.7511 102.432 63.0697C102.575 62.7135 102.488 62.6835 103.124 64.212C103.88 66.027 104.309 66.8692 104.316 67.5937C104.331 68.8305 103.226 69.8197 102.839 70.4152C102.743 70.5652 102.943 70.7805 103.092 70.6687C103.716 70.1509 104.23 69.5134 104.604 68.7937C104.799 68.4068 104.906 67.9811 104.915 67.5478C104.925 67.1145 104.837 66.6846 104.659 66.2895C104.446 65.7157 104.359 65.517 103.334 63.0135C103.263 62.8042 103.159 62.6074 103.027 62.43C102.961 62.3451 102.874 62.2785 102.775 62.2363C102.677 62.1942 102.569 62.1779 102.462 62.1891C102.355 62.2003 102.253 62.2385 102.165 62.3002C102.077 62.3619 102.006 62.4451 101.959 62.5417C101.546 63.2527 101.373 64.6245 101.951 65.3167C101.979 65.3445 102.015 65.3633 102.055 65.3709C102.094 65.3785 102.134 65.3746 102.171 65.3596C102.208 65.3446 102.24 65.3191 102.263 65.2864C102.286 65.2536 102.299 65.2149 102.3 65.175Z" fill="#2A2928"/>
<path d="M48.8249 66.7275C47.9826 66.4036 47.1066 66.1746 46.2134 66.045C42.6937 65.5485 40.5397 67.3058 38.5739 70.2848C35.6414 74.7263 34.2337 81.9983 33.7807 87.3098C33.7337 87.8692 33.7204 88.431 33.7409 88.992C31.3649 85.1303 29.6354 84.0593 27.0862 81.3623C23.0489 77.0955 23.9159 74.9415 23.4164 72.7223C23.3342 72.2533 23.16 71.8053 22.9037 71.404C22.6474 71.0028 22.3141 70.6563 21.9232 70.3845C20.1337 69.291 18.1987 70.7768 14.7479 69.279C14.6664 69.233 14.5701 69.2205 14.4794 69.2443C14.3888 69.2681 14.3111 69.3263 14.2627 69.4065C14.089 69.8258 14.0365 70.2854 14.1111 70.733C14.1858 71.1806 14.3846 71.5983 14.6849 71.9385C15.6104 73.1123 17.1599 73.2833 18.6404 73.3103C18.5918 73.7258 18.6297 74.1469 18.7518 74.547C18.8739 74.9472 19.0776 75.3177 19.3499 75.6353C19.5352 75.8603 19.8292 75.5745 19.7249 75.3473C19.5629 74.9809 19.4424 74.5975 19.3657 74.2043C19.2875 73.8297 19.2804 73.4437 19.3447 73.0665C19.3573 73.0164 19.3585 72.964 19.3481 72.9133C19.3377 72.8626 19.3161 72.815 19.2847 72.7738C19.2534 72.7327 19.2131 72.6991 19.167 72.6756C19.121 72.6522 19.0702 72.6394 19.0184 72.6383C17.5139 72.6255 15.4109 72.549 14.8552 70.833C14.77 70.5839 14.7466 70.3177 14.7869 70.0575C18.7259 71.5883 20.6167 69.7575 22.0454 71.31C23.0864 72.4433 22.9124 74.3655 23.1532 75.756C23.9212 80.1698 28.2232 83.0768 30.8152 86.031C32.3865 87.858 33.7134 89.8818 34.7624 92.0513C34.789 92.0931 34.8294 92.1241 34.8767 92.1389C34.9239 92.1536 34.9749 92.1512 35.0205 92.1319C35.0661 92.1127 35.1034 92.0779 35.1258 92.0337C35.1481 91.9896 35.1541 91.9389 35.1427 91.8908C34.8737 91.1585 34.5495 90.4477 34.1729 89.7645C34.4782 88.4618 34.5149 86.3348 35.0369 83.229C35.6707 79.4355 36.7942 74.7855 38.7412 71.484C39.6322 69.9728 41.0662 68.1135 42.6119 67.32C44.3009 66.4545 46.4812 66.7455 48.3082 67.254C48.4297 67.2878 48.5504 67.3335 48.6727 67.3605C49.4714 67.5255 49.5749 67.05 48.8249 66.7275Z" fill="#2A2928"/>
<path d="M39.0232 103.64C38.9672 103.608 38.9013 103.6 38.8393 103.616C38.7772 103.632 38.7238 103.672 38.6902 103.727C38.2954 104.183 37.8125 104.555 37.2704 104.819C36.7283 105.084 36.1383 105.237 35.5357 105.268C34.3017 105.458 33.0419 105.164 32.0197 104.447C29.6392 102.904 27.7402 99.507 26.5927 96.9113C24.7995 92.8538 23.0077 86.1863 21.5242 83.4368C20.7598 82.0889 19.5618 81.0393 18.1252 80.4585C16.785 79.8765 15.2842 79.4715 14.3205 78.291C13.2405 76.971 13.6102 75.1853 14.139 73.716C14.3069 73.3274 14.4441 72.9262 14.5492 72.516C14.5606 72.4646 14.5536 72.4108 14.5294 72.3641C14.5052 72.3173 14.4654 72.2805 14.4168 72.2601C14.3683 72.2396 14.3141 72.2369 14.2638 72.2523C14.2134 72.2677 14.17 72.3002 14.1412 72.3443C14.023 72.5243 13.9187 72.7131 13.8292 72.909C12.3337 76.4933 12.6945 78.8925 16.4902 80.493C17.7652 81.03 19.1107 81.411 20.307 82.7948C20.8195 83.4486 21.2269 84.1784 21.5145 84.9578C23.6827 90.0863 24.8977 96.0645 27.906 100.8C29.181 102.81 30.9225 104.933 33.2032 105.662C34.9522 106.22 37.8532 105.678 39.1125 103.97C39.1441 103.915 39.1524 103.849 39.1357 103.787C39.119 103.725 39.0786 103.672 39.0232 103.64Z" fill="#2A2928"/>
<path d="M12.309 72.5145C12.2979 72.1164 12.3096 71.718 12.3443 71.3212C12.3501 71.2814 12.3399 71.2409 12.316 71.2087C12.292 71.1764 12.2562 71.155 12.2164 71.1491C12.1766 71.1432 12.1361 71.1534 12.1038 71.1774C12.0716 71.2014 12.0501 71.2372 12.0443 71.277C11.8119 72.077 11.7574 72.9181 11.8845 73.7415C11.9668 74.3581 12.1193 74.9632 12.339 75.5452C12.3962 75.749 12.4987 75.9372 12.639 76.0957C12.789 76.2457 13.014 76.0665 13.0028 75.8895C12.5634 74.8175 12.3281 73.6728 12.309 72.5145Z" fill="#2A2928"/>
<path d="M11.6332 73.4475C11.2773 72.2161 11.1052 70.9388 11.1225 69.657C11.1225 69.3975 10.7475 69.3225 10.7092 69.597C10.533 70.9595 10.646 72.3439 11.0407 73.6598C10.6459 73.0461 10.2989 72.403 10.0027 71.736C9.60983 70.8397 9.28565 69.9148 9.03297 68.9693C8.96547 68.7075 8.56122 68.7368 8.60172 69.0225C8.81977 70.5493 9.34428 72.0162 10.1437 73.335C10.3505 73.7997 10.6846 74.1962 11.1075 74.4788C11.1242 74.4859 11.1422 74.4895 11.1603 74.4896C11.1785 74.4896 11.1965 74.4861 11.2132 74.4791C11.23 74.4721 11.2452 74.4619 11.2579 74.4489C11.2707 74.436 11.2807 74.4206 11.2875 74.4038C11.3535 74.583 11.4442 74.7788 11.616 74.8335C11.6742 74.8565 11.7391 74.8564 11.7973 74.8331C11.8554 74.8098 11.9025 74.7652 11.9287 74.7083C12.0525 74.481 11.877 74.2793 11.6332 73.4475Z" fill="#2A2928"/>
<path d="M88.8577 33.27C88.6773 31.9385 88.0457 30.7091 87.0682 29.787C84.7762 27.6218 80.7164 28.2218 78.7807 30.3593C78.0738 31.2606 77.5996 32.3219 77.3999 33.4498C77.2002 34.5776 77.2811 35.7373 77.6354 36.8265C77.871 37.5648 78.2717 38.2397 78.8071 38.7999C79.3425 39.3602 79.9986 39.791 80.7254 40.0598C82.1286 40.5023 83.6283 40.539 85.0514 40.1655C88.3417 39.3368 89.2394 36.0038 88.8577 33.27Z" fill="#115711"/>
<path d="M112.05 33.27C111.87 31.9385 111.238 30.7091 110.261 29.787C107.969 27.6218 103.909 28.2218 101.973 30.3593C101.266 31.2602 100.792 32.3213 100.592 33.449C100.392 34.5766 100.473 35.7361 100.828 36.825C101.063 37.5633 101.464 38.2382 102 38.7984C102.535 39.3587 103.191 39.7895 103.918 40.0583C105.321 40.5006 106.821 40.5375 108.244 40.1648C111.531 39.3368 112.429 36.0038 112.05 33.27Z" fill="#2A2928"/>
<path d="M134.615 33.225C134.461 31.7629 133.749 30.4162 132.628 29.4654C131.507 28.5147 130.062 28.0329 128.594 28.1205C126.855 28.1656 125.203 28.8929 123.995 30.1455C123.246 31.0862 122.744 32.1987 122.533 33.3825C122.322 34.5663 122.409 35.784 122.787 36.9255C123.586 39.2228 125.473 40.7295 128.437 40.7295C129.158 40.7291 129.877 40.6402 130.577 40.4648C133.95 39.6195 135.034 36.2198 134.615 33.225ZM130.422 39.8595C129.06 40.2213 127.622 40.1877 126.278 39.7628C125.596 39.5086 124.98 39.1028 124.478 38.576C123.975 38.0492 123.599 37.415 123.377 36.7215C123.041 35.6852 122.964 34.5824 123.152 33.5093C123.341 32.4363 123.789 31.4258 124.459 30.5663C126.309 28.524 130.159 27.9915 132.299 30.012C133.226 30.8847 133.825 32.05 133.994 33.312C134.375 36.03 133.418 39.108 130.425 39.861L130.422 39.8595Z" fill="#2A2928"/>
<path d="M63.6066 99.465C63.5641 99.1906 63.4442 98.9339 63.261 98.7252C63.0779 98.5164 62.839 98.3642 62.5724 98.2863C62.3058 98.2085 62.0225 98.2083 61.7558 98.2856C61.4891 98.363 61.2499 98.5148 61.0664 98.7233C60.8866 98.9442 60.7657 99.207 60.715 99.4873C60.6642 99.7675 60.6853 100.056 60.7761 100.326C60.8687 100.608 61.0521 100.851 61.2976 101.017C61.5432 101.183 61.8369 101.263 62.1329 101.245C62.358 101.26 62.5834 101.221 62.7907 101.132C62.9979 101.043 63.181 100.906 63.3249 100.732C63.4688 100.558 63.5693 100.353 63.6183 100.132C63.6673 99.9121 63.6633 99.6834 63.6066 99.465ZM62.2206 98.7435C63.3561 98.7435 63.3921 100.469 62.5011 100.694C62.3623 100.739 62.2151 100.754 62.0699 100.737C61.9247 100.72 61.785 100.671 61.6607 100.594C61.5363 100.517 61.4304 100.414 61.3503 100.291C61.2702 100.169 61.218 100.031 61.1971 99.8859C61.1763 99.7412 61.1875 99.5936 61.2298 99.4537C61.2722 99.3137 61.3447 99.1848 61.4423 99.0758C61.5398 98.9669 61.6601 98.8807 61.7946 98.8233C61.9291 98.7659 62.0745 98.7387 62.2206 98.7435Z" fill="#2A2928"/>
<path d="M58.8075 47.487C56.553 46.6477 55.0417 44.6055 53.7262 42.687C53.5207 42.387 53.2852 42.1065 53.0722 41.811C53.0424 41.7593 52.9932 41.7215 52.9356 41.7061C52.8779 41.6906 52.8164 41.6987 52.7647 41.7285C52.713 41.7583 52.6753 41.8075 52.6598 41.8652C52.6443 41.9228 52.6524 41.9843 52.6822 42.036C52.9677 42.6183 53.2969 43.1781 53.667 43.7107C54.7886 45.6258 56.4693 47.1519 58.4835 48.084C58.6277 48.1747 58.7918 48.2289 58.9617 48.2419C59.1316 48.255 59.3021 48.2265 59.4585 48.159C59.4955 48.1364 59.5223 48.1002 59.5331 48.0582C59.5439 48.0162 59.5378 47.9716 59.5162 47.934C59.3438 47.7021 59.0911 47.5427 58.8075 47.487Z" fill="#115711"/>
<path d="M64.317 50.9783C61.7797 49.1783 60.5325 46.1865 59.1615 43.4033C59.0632 43.203 58.7182 43.344 58.797 43.5533C59.0306 44.255 59.3032 44.9431 59.6137 45.6143C60.5142 47.8837 61.9808 49.8848 63.8737 51.4268C64.1662 51.645 64.494 51.9458 64.8825 51.87C64.9334 51.8555 64.9765 51.8216 65.0028 51.7756C65.029 51.7296 65.0361 51.6752 65.0227 51.624C64.9125 51.3 64.5825 51.1658 64.317 50.9783Z" fill="#115711"/>
<path d="M72.138 63.0315C72.0285 62.3303 71.724 61.3755 71.4548 59.6168C70.635 54.3045 71.0985 48.4118 69.0218 43.2083C67.275 38.8253 64.8338 36.8558 60.963 36C61.9245 35.2575 62.538 33.1973 61.8188 31.2608C60.7913 28.5045 57.8685 27.6653 55.2848 29.0955C54.445 29.518 53.7495 30.1804 53.2866 30.9986C52.8236 31.8168 52.6141 32.7541 52.6845 33.6915C52.7397 34.4931 53.0838 35.2475 53.6528 35.8148C50.8028 36.2805 47.814 38.5245 46.269 42.4808C44.514 46.9703 45.0855 51.9766 45.069 56.5058C45.0618 58.3905 44.9537 60.2734 44.745 62.1465C44.692 62.9441 44.5067 63.7273 44.1968 64.4641C44.1714 64.5041 44.1543 64.5488 44.1466 64.5955C44.1388 64.6423 44.1406 64.6901 44.1518 64.7361C44.163 64.7822 44.1833 64.8255 44.2116 64.8635C44.2399 64.9015 44.2756 64.9334 44.3165 64.9574C44.3574 64.9813 44.4027 64.9967 44.4497 65.0027C44.4967 65.0087 44.5444 65.0052 44.59 64.9923C44.6356 64.9794 44.6782 64.9575 44.7151 64.9278C44.7521 64.8981 44.7826 64.8613 44.805 64.8195C45.3353 64.0118 45.423 62.7015 45.5363 61.467C45.9653 56.7833 45.6465 53.9513 45.6863 50.3806C45.7313 46.1011 46.461 41.5305 49.5968 38.595C50.9696 37.2759 52.7488 36.4606 54.6443 36.282C54.8408 36.2663 55.035 36.2363 55.2315 36.2175C55.3163 36.2445 55.4198 36.3015 55.4565 36.1793C55.5983 36.0953 55.623 35.8433 55.4228 35.8088C55.1062 35.7397 54.7822 35.7099 54.4583 35.7203C54.151 35.5305 53.8903 35.2741 53.6955 34.9699C53.5008 34.6657 53.377 34.3216 53.3333 33.963C52.5143 29.913 58.5833 27.0143 60.879 30.7178C61.9215 32.3963 61.578 34.659 60.612 35.4878C60.4575 35.6205 60.087 35.8215 60.0638 35.8448C59.4882 35.7473 58.898 35.7838 58.3388 35.9513C58.1198 36.0128 58.1535 36.3788 58.3943 36.36C60.6255 36.3399 62.8144 36.9692 64.6943 38.1713C66.3144 39.4324 67.5592 41.1121 68.2943 43.029C69.984 46.9718 70.1055 51.5588 70.4078 55.5826C70.5503 57.4815 70.908 61.4783 71.6828 63.2251C71.7119 63.2799 71.7606 63.3219 71.8192 63.3427C71.8777 63.3634 71.942 63.3615 71.9992 63.3372C72.0564 63.3128 72.1024 63.268 72.1281 63.2114C72.1538 63.1548 72.1573 63.0906 72.138 63.0315Z" fill="#115711"/>
<path d="M78.8362 46.5848C78.6481 46.5703 78.4593 46.5662 78.2707 46.5728C78.2707 46.4453 78.2647 45.9203 78.2655 45.783C78.6195 45.804 78.6892 45.8355 78.798 45.7958C78.8315 45.7855 78.8613 45.7658 78.884 45.739C78.9066 45.7122 78.9211 45.6795 78.9257 45.6447C78.9303 45.61 78.9248 45.5746 78.9098 45.5429C78.8949 45.5112 78.8712 45.4844 78.8415 45.4658C78.7597 45.4178 78.7237 45.417 78.2647 45.3863C78.2647 45.1613 78.2535 44.9408 78.2302 44.7195C78.2278 44.6883 78.2136 44.6591 78.1906 44.6378C78.1676 44.6165 78.1374 44.6047 78.1061 44.6047C78.0747 44.6047 78.0445 44.6165 78.0215 44.6378C77.9985 44.6591 77.9844 44.6883 77.982 44.7195C77.9597 44.9346 77.9479 45.1506 77.9467 45.3668C77.7546 45.3543 77.5623 45.3446 77.37 45.3375C77.3797 45.1125 77.3887 44.8875 77.394 44.6685C77.394 44.4825 77.133 44.4938 77.1105 44.6685C77.0835 44.889 77.0625 45.1088 77.043 45.3285C76.7496 45.3052 76.4543 45.329 76.1685 45.399C76.1429 45.4069 76.1206 45.4228 76.1047 45.4443C76.0889 45.4659 76.0803 45.4919 76.0803 45.5186C76.0803 45.5454 76.0889 45.5714 76.1047 45.5929C76.1206 45.6145 76.1429 45.6303 76.1685 45.6383C76.4439 45.7057 76.7273 45.7352 77.0107 45.726C77.001 45.8558 76.9612 46.4108 76.953 46.5593C76.677 46.5516 76.401 46.5682 76.128 46.6088C75.993 46.6268 75.996 46.8555 76.128 46.878C76.3935 46.9177 76.6613 46.9402 76.9297 46.9455C76.8976 47.1499 76.8996 47.3583 76.9357 47.562C76.9732 47.673 77.1607 47.7293 77.2155 47.5995C77.2755 47.3895 77.3008 47.1712 77.2905 46.953C77.3535 46.953 77.7832 46.959 77.934 46.962C77.934 47.1968 77.9287 47.43 77.9287 47.6648C77.9287 47.7107 77.947 47.7548 77.9795 47.7873C78.0119 47.8198 78.056 47.838 78.102 47.838C78.1479 47.838 78.192 47.8198 78.2245 47.7873C78.257 47.7548 78.2752 47.7107 78.2752 47.6648C78.2752 47.4323 78.2752 47.2005 78.27 46.9688C78.4571 46.9796 78.6446 46.9796 78.8317 46.9688C78.8786 46.9635 78.9219 46.9413 78.9536 46.9063C78.9852 46.8713 79.003 46.8259 79.0035 46.7788C79.0041 46.7316 78.9874 46.6858 78.9566 46.6501C78.9257 46.6144 78.8829 46.5912 78.8362 46.5848ZM77.3122 46.563L77.3505 45.738C77.5282 45.7433 77.8252 45.7598 77.9445 45.7665C77.9445 45.909 77.9445 46.4415 77.94 46.5705L77.3122 46.563Z" fill="#2A2928"/>
<path d="M80.8837 43.9747C80.7862 43.9463 80.6838 43.9383 80.583 43.9512C80.4822 43.9641 80.3852 43.9976 80.2979 44.0497C79.7392 44.37 79.7422 45.0697 79.7234 45.7567C79.6144 45.7438 79.5038 45.7548 79.3994 45.789C79.3655 45.7959 79.3351 45.8143 79.3132 45.8411C79.2913 45.8679 79.2793 45.9014 79.2793 45.936C79.2793 45.9706 79.2913 46.0041 79.3132 46.0309C79.3351 46.0577 79.3655 46.0761 79.3994 46.083C79.4979 46.125 79.6046 46.144 79.7114 46.1385C79.6635 46.6782 79.6872 47.222 79.7819 47.7555C79.8434 47.8852 80.0069 47.8252 80.0534 47.7202C80.1074 47.1991 80.1254 46.6749 80.1074 46.1512C80.3152 46.1512 80.4712 46.1677 80.5694 46.0597C80.5979 46.0302 80.6138 45.9909 80.6138 45.9499C80.6138 45.9089 80.5979 45.8695 80.5694 45.84C80.5253 45.8041 80.4738 45.7781 80.4187 45.7639C80.3636 45.7496 80.306 45.7475 80.2499 45.7575H80.1202C80.0901 45.3553 80.154 44.9517 80.3069 44.5785C80.3506 44.5075 80.4103 44.4479 80.4813 44.4043C80.5524 44.3608 80.6327 44.3347 80.7157 44.328C81.2662 44.325 81.0269 44.025 80.8837 43.9747Z" fill="#2A2928"/>
<path d="M82.2998 45.033C81.9661 44.9782 81.6264 44.9699 81.2903 45.0083C81.1471 45.0233 81.0916 45.2423 81.2528 45.279C81.5158 45.339 81.7832 45.3779 82.0523 45.3953C81.8201 46.0003 81.6412 46.6244 81.5176 47.2605C81.4679 47.4122 81.4505 47.5727 81.4666 47.7315C81.4767 47.7652 81.4963 47.7953 81.5232 47.818C81.55 47.8408 81.5828 47.8553 81.6177 47.8599C81.6526 47.8644 81.6881 47.8587 81.7198 47.8435C81.7515 47.8283 81.7782 47.8043 81.7966 47.7743C81.8858 47.6378 81.8858 47.0535 82.2998 45.855C82.3808 45.6203 82.6298 45.1913 82.2998 45.033Z" fill="#2A2928"/>
<path d="M83.5177 45.0269C83.3514 45.0041 83.1836 44.9951 83.0159 44.9999C82.982 45.0011 82.9495 45.0143 82.9244 45.0371C82.8992 45.0598 82.8828 45.0908 82.8783 45.1245C82.8737 45.1581 82.8812 45.1923 82.8993 45.221C82.9175 45.2497 82.9453 45.271 82.9777 45.2812C83.3144 45.3749 83.5882 45.4147 83.6632 45.4312C83.3424 46.0631 83.1086 46.7354 82.9679 47.4299C82.9417 47.5544 82.8929 47.7014 83.0024 47.7989C83.0233 47.8197 83.0493 47.8345 83.0777 47.8419C83.1062 47.8493 83.1361 47.8489 83.1644 47.8409C83.3692 47.7659 83.2987 47.6324 83.4974 46.9409C83.8987 45.5354 84.2159 45.3712 83.9939 45.1597C83.8505 45.0722 83.6857 45.0262 83.5177 45.0269Z" fill="#2A2928"/>
<path d="M87.6944 45.1627C87.551 45.0741 87.3859 45.0271 87.2174 45.027C87.0512 45.0038 86.8833 44.9947 86.7156 45C86.6817 45.0012 86.6492 45.0143 86.6241 45.0371C86.5989 45.0599 86.5826 45.0908 86.578 45.1245C86.5734 45.1581 86.5809 45.1923 86.599 45.221C86.6172 45.2497 86.645 45.271 86.6774 45.2812C87.0419 45.3825 87.2879 45.414 87.3629 45.4312C87.0419 46.063 86.8081 46.7354 86.6676 47.43C86.6414 47.5545 86.5926 47.7015 86.7021 47.799C86.723 47.8197 86.749 47.8346 86.7774 47.8419C86.8059 47.8493 86.8358 47.849 86.8641 47.841C87.1221 47.7487 86.9241 47.5702 87.5031 46.0312C87.7154 45.4717 87.8601 45.3195 87.6944 45.1627Z" fill="#2A2928"/>
<path d="M85.65 43.8915C85.6032 44.1989 85.5863 44.5101 85.5997 44.8208C85.5937 45.132 85.5615 46.0883 85.554 46.2548C85.4304 46.1804 85.2902 46.1381 85.1461 46.1316C85.002 46.1252 84.8586 46.1549 84.729 46.218C84.5861 46.2894 84.4651 46.398 84.3788 46.5324C84.2925 46.6667 84.244 46.8219 84.2385 46.9815C84.2347 47.1002 84.2556 47.2184 84.2996 47.3287C84.3437 47.439 84.41 47.5391 84.4945 47.6225C84.5789 47.706 84.6797 47.7712 84.7905 47.8139C84.9014 47.8567 85.0198 47.8761 85.1385 47.871C85.3116 47.8346 85.487 47.8095 85.6635 47.796C85.7102 47.7952 85.7547 47.7763 85.7878 47.7433C85.8208 47.7103 85.8397 47.6657 85.8405 47.619C85.9276 46.3778 85.9504 45.1329 85.9087 43.8893C85.9011 43.8606 85.8842 43.8352 85.8606 43.8172C85.8371 43.7992 85.8081 43.7895 85.7785 43.7898C85.7488 43.7901 85.72 43.8002 85.6968 43.8186C85.6735 43.837 85.657 43.8627 85.65 43.8915ZM84.957 47.4608C84.8963 47.4388 84.8407 47.4048 84.7936 47.3609C84.7464 47.3169 84.7085 47.2639 84.6823 47.2049C84.6561 47.146 84.6421 47.0824 84.641 47.0179C84.64 46.9534 84.652 46.8894 84.6762 46.8297C84.7005 46.7699 84.7366 46.7157 84.7824 46.6702C84.8281 46.6248 84.8826 46.589 84.9425 46.5651C85.0024 46.5412 85.0665 46.5296 85.131 46.531C85.1954 46.5325 85.259 46.5469 85.3177 46.5735C85.3888 46.604 85.4654 46.6193 85.5427 46.6185C85.5292 46.896 85.514 47.1743 85.497 47.4533C85.3196 47.5026 85.1326 47.5052 84.954 47.4608H84.957Z" fill="#2A2928"/>
<path d="M89.2621 46.725C89.3536 46.7138 89.4571 46.6313 89.4121 46.524C89.3664 46.361 89.2807 46.212 89.1628 46.0904C89.045 45.9689 88.8986 45.8787 88.7371 45.828C88.6195 45.7996 88.4971 45.7971 88.3784 45.8208C88.2598 45.8445 88.1477 45.8938 88.0501 45.9653C87.4613 46.4078 87.5963 47.742 88.4026 47.8733C88.9208 47.9558 89.3708 47.5665 89.3153 47.2665C89.3041 47.2271 89.2778 47.1937 89.2422 47.1735C89.2066 47.1533 89.1644 47.1479 89.1248 47.1585C88.9951 47.1945 88.9246 47.3085 88.8331 47.376C88.7591 47.4358 88.6672 47.4692 88.5721 47.4708C88.477 47.4725 88.3841 47.4423 88.3081 47.385C88.2343 47.2958 88.1802 47.1921 88.1492 47.0806C88.1182 46.9691 88.111 46.8523 88.1281 46.7378C88.5056 46.7707 88.8854 46.7664 89.2621 46.725ZM88.9988 46.425C88.5811 46.4445 88.5016 46.4363 88.2136 46.4295C88.2559 46.3641 88.3139 46.3103 88.3822 46.2729C88.4505 46.2355 88.5271 46.2157 88.605 46.2152C88.6829 46.2148 88.7597 46.2337 88.8284 46.2704C88.8972 46.307 88.9557 46.3601 88.9988 46.425Z" fill="#2A2928"/>
<path d="M101.646 46.4678C101.458 46.453 101.269 46.4488 101.08 46.4551C101.08 46.3283 101.074 45.8033 101.075 45.6661C101.422 45.6863 101.499 45.7193 101.607 45.6781C101.641 45.6678 101.67 45.6481 101.693 45.6213C101.716 45.5945 101.73 45.5618 101.735 45.527C101.739 45.4923 101.734 45.4569 101.719 45.4252C101.704 45.3935 101.68 45.3667 101.651 45.3481C101.569 45.3008 101.533 45.2993 101.074 45.2731C101.074 45.0481 101.063 44.8268 101.039 44.6063C101.037 44.5751 101.023 44.5459 101 44.5246C100.977 44.5033 100.947 44.4915 100.915 44.4915C100.884 44.4915 100.854 44.5033 100.831 44.5246C100.808 44.5459 100.793 44.5751 100.791 44.6063C100.769 44.8213 100.757 45.0374 100.757 45.2536C100.22 45.2221 100.179 45.2236 100.179 45.2236C100.19 44.9986 100.198 44.7773 100.203 44.5553C100.203 44.3686 99.942 44.3798 99.9195 44.5553C99.8925 44.7751 99.8715 44.9948 99.852 45.2153C99.5587 45.1918 99.2635 45.2153 98.9775 45.2851C98.9517 45.2928 98.9291 45.3086 98.913 45.3302C98.8969 45.3519 98.8882 45.3781 98.8882 45.4051C98.8882 45.432 98.8969 45.4583 98.913 45.4799C98.9291 45.5015 98.9517 45.5173 98.9775 45.5251C99.2531 45.5918 99.5364 45.6213 99.8198 45.6128C99.81 45.7426 99.7703 46.2976 99.762 46.4453C99.4861 46.4381 99.2101 46.4546 98.937 46.4948C98.802 46.5136 98.805 46.7423 98.937 46.7641C99.2026 46.8039 99.4704 46.8267 99.7388 46.8323C99.7063 47.0367 99.7083 47.2451 99.7448 47.4488C99.7823 47.5598 99.9698 47.6153 100.025 47.4856C100.085 47.2758 100.11 47.0577 100.1 46.8398L100.743 46.8481C100.743 47.0828 100.738 47.3161 100.738 47.5508C100.738 47.5968 100.756 47.6408 100.789 47.6733C100.821 47.7058 100.865 47.7241 100.911 47.7241C100.957 47.7241 101.001 47.7058 101.034 47.6733C101.066 47.6408 101.084 47.5968 101.084 47.5508V46.8556C101.271 46.8661 101.459 46.8661 101.646 46.8556C101.697 46.8556 101.747 46.8351 101.783 46.7988C101.819 46.7624 101.84 46.7131 101.84 46.6617C101.84 46.6103 101.819 46.561 101.783 46.5246C101.747 46.4882 101.697 46.4678 101.646 46.4678ZM100.121 46.4453L100.16 45.6203C100.337 45.6256 100.629 45.6413 100.754 45.6488C100.754 45.7906 100.754 46.3238 100.749 46.4528C100.541 46.4513 100.333 46.4488 100.125 46.4453H100.121Z" fill="#2A2928"/>
<path d="M103.179 44.8381C102.692 44.9176 102.446 45.6233 102.383 46.0763C102.359 46.1926 102.357 46.3123 102.376 46.4296C102.335 46.9006 102.472 47.37 102.76 47.7451C103.094 48.0496 103.696 47.9086 103.909 46.9951C103.983 46.6978 104.03 46.3946 104.05 46.0891C104.076 45.5723 103.867 44.7256 103.179 44.8381ZM103.601 46.7071C103.573 46.9186 103.508 47.1235 103.409 47.3123C103.327 47.4473 103.157 47.6206 103.004 47.4818C102.811 47.1941 102.713 46.853 102.725 46.5068C102.819 46.3283 102.827 45.5768 103.145 45.3106C103.171 45.2845 103.202 45.2647 103.237 45.2525C103.272 45.2403 103.309 45.236 103.346 45.2399C103.382 45.2439 103.418 45.256 103.449 45.2753C103.48 45.2947 103.507 45.3208 103.527 45.3518C103.787 45.6833 103.68 46.2983 103.601 46.7071Z" fill="#2A2928"/>
<path d="M105.07 44.8381C104.583 44.9176 104.338 45.6241 104.275 46.0763C104.25 46.1926 104.248 46.3123 104.267 46.4296C104.226 46.9006 104.363 47.3699 104.651 47.7451C104.985 48.0496 105.587 47.9086 105.8 46.9951C105.874 46.6978 105.921 46.3946 105.941 46.0891C105.967 45.5723 105.758 44.7256 105.07 44.8381ZM105.493 46.7071C105.464 46.9185 105.399 47.1234 105.3 47.3123C105.218 47.4473 105.048 47.6206 104.895 47.4818C104.702 47.194 104.604 46.8531 104.615 46.5068C104.711 46.3276 104.721 45.5738 105.036 45.3106C105.062 45.2845 105.094 45.2647 105.128 45.2525C105.163 45.2403 105.2 45.236 105.237 45.2399C105.274 45.2439 105.309 45.256 105.34 45.2753C105.372 45.2947 105.398 45.3208 105.418 45.3518C105.679 45.6833 105.571 46.2976 105.493 46.7071Z" fill="#2A2928"/>
<path d="M106.925 44.8381C106.438 44.9176 106.192 45.6233 106.129 46.0763C106.105 46.1926 106.102 46.3123 106.121 46.4296C106.08 46.9006 106.217 47.37 106.505 47.7451C106.839 48.0496 107.441 47.9086 107.655 46.9951C107.729 46.6979 107.776 46.3947 107.795 46.0891C107.82 45.5723 107.612 44.7256 106.925 44.8381ZM107.347 46.7071C107.319 46.9187 107.254 47.1236 107.154 47.3123C107.073 47.4473 106.902 47.6206 106.749 47.4818C106.556 47.194 106.459 46.853 106.47 46.5068C106.565 46.3283 106.572 45.5768 106.89 45.3106C106.916 45.2845 106.948 45.2647 106.983 45.2525C107.017 45.2403 107.055 45.236 107.091 45.2399C107.128 45.2439 107.163 45.256 107.195 45.2753C107.226 45.2947 107.253 45.3208 107.273 45.3518C107.534 45.6841 107.426 46.2961 107.347 46.7071Z" fill="#2A2928"/>
<path d="M108.782 44.7593C108.294 44.8388 108.05 45.5491 107.987 45.9968C107.963 46.1131 107.96 46.2329 107.98 46.3501C107.939 46.8214 108.076 47.2909 108.364 47.6663C108.697 47.9708 109.3 47.8291 109.513 46.9163C109.587 46.6194 109.634 46.3164 109.654 46.0111C109.679 45.4943 109.471 44.6476 108.782 44.7593ZM109.206 46.6298C109.178 46.8414 109.113 47.0463 109.013 47.2351C108.932 47.3693 108.761 47.5426 108.608 47.4038C108.415 47.1162 108.318 46.775 108.329 46.4288C108.424 46.2518 108.435 45.4958 108.749 45.2333C108.775 45.2073 108.807 45.1874 108.842 45.1751C108.877 45.1628 108.914 45.1585 108.951 45.1623C108.987 45.1662 109.023 45.1782 109.054 45.1975C109.086 45.2168 109.112 45.2429 109.133 45.2738C109.393 45.6061 109.285 46.2166 109.206 46.6298Z" fill="#2A2928"/>
<path d="M110.674 44.7593C110.074 44.8568 109.792 46.0066 109.87 46.3501C109.83 46.8215 109.967 47.291 110.255 47.6663C110.588 47.9708 111.191 47.8291 111.404 46.9163C111.478 46.6194 111.525 46.3164 111.544 46.0111C111.571 45.4943 111.362 44.6476 110.674 44.7593ZM111.097 46.6298C111.07 46.8414 111.004 47.0463 110.905 47.2351C110.823 47.3693 110.653 47.5426 110.5 47.4038C110.307 47.1162 110.209 46.775 110.221 46.4288C110.316 46.2496 110.326 45.4958 110.641 45.2333C110.667 45.2073 110.698 45.1874 110.733 45.1751C110.768 45.1628 110.805 45.1585 110.842 45.1624C110.878 45.1662 110.914 45.1783 110.945 45.1975C110.976 45.2168 111.003 45.2429 111.023 45.2738C111.285 45.6068 111.175 46.2211 111.097 46.6298Z" fill="#2A2928"/>
<path d="M112.529 44.7593C112.04 44.8388 111.795 45.5491 111.733 45.9968C111.709 46.1131 111.707 46.2328 111.725 46.3501C111.684 46.8214 111.821 47.291 112.109 47.6663C112.443 47.9708 113.045 47.8298 113.258 46.9163C113.332 46.6194 113.379 46.3164 113.399 46.0111C113.426 45.4943 113.216 44.6476 112.529 44.7593ZM112.951 46.6298C112.923 46.8413 112.857 47.0462 112.758 47.2351C112.676 47.3693 112.506 47.5426 112.353 47.4038C112.16 47.116 112.063 46.775 112.073 46.4288C112.169 46.2496 112.179 45.4958 112.494 45.2333C112.52 45.2073 112.552 45.1874 112.587 45.1751C112.621 45.1628 112.658 45.1585 112.695 45.1624C112.732 45.1662 112.767 45.1783 112.798 45.1975C112.83 45.2168 112.857 45.2429 112.877 45.2738C113.072 45.7001 113.099 46.1849 112.95 46.6298H112.951Z" fill="#2A2928"/>
<path d="M124.633 46.6418C124.444 46.6273 124.255 46.6233 124.067 46.6298C124.067 46.5023 124.061 45.9773 124.062 45.8401C124.409 45.8611 124.486 45.8933 124.595 45.8521C124.628 45.8419 124.658 45.8223 124.681 45.7956C124.703 45.7689 124.718 45.7362 124.723 45.7015C124.727 45.6667 124.722 45.6314 124.707 45.5997C124.692 45.568 124.668 45.5413 124.638 45.5228C124.556 45.4748 124.52 45.4733 124.061 45.4433C124.061 45.2183 124.049 44.9978 124.026 44.7766C124.024 44.7453 124.01 44.7161 123.986 44.6948C123.963 44.6735 123.933 44.6617 123.902 44.6617C123.871 44.6617 123.84 44.6735 123.817 44.6948C123.794 44.7161 123.78 44.7453 123.778 44.7766C123.756 44.9916 123.744 45.2076 123.743 45.4238C123.207 45.3931 123.167 45.3938 123.167 45.3938C123.176 45.1688 123.185 44.9483 123.19 44.7256C123.194 44.5396 122.929 44.5501 122.907 44.7256C122.879 44.9453 122.858 45.1658 122.839 45.3856C122.545 45.3622 122.25 45.386 121.964 45.4561C121.939 45.464 121.916 45.4799 121.901 45.5014C121.885 45.5229 121.876 45.5489 121.876 45.5757C121.876 45.6024 121.885 45.6285 121.901 45.65C121.916 45.6715 121.939 45.6874 121.964 45.6953C122.24 45.7627 122.523 45.7922 122.807 45.7831C122.797 45.9128 122.757 46.4678 122.749 46.6156C122.473 46.6083 122.197 46.6249 121.924 46.6651C121.79 46.6838 121.792 46.9126 121.924 46.9343C122.19 46.9742 122.458 46.997 122.726 47.0026C122.693 47.2069 122.695 47.4154 122.732 47.6191C122.769 47.7301 122.957 47.7856 123.011 47.6558C123.072 47.4461 123.097 47.228 123.086 47.0101L123.73 47.0183C123.73 47.2531 123.725 47.4871 123.725 47.7218C123.728 47.7657 123.748 47.8068 123.78 47.8369C123.812 47.8669 123.854 47.8837 123.898 47.8837C123.942 47.8837 123.984 47.8669 124.017 47.8369C124.049 47.8068 124.068 47.7657 124.071 47.7218C124.071 47.4893 124.071 47.2568 124.066 47.0258C124.253 47.0363 124.441 47.0363 124.628 47.0258C124.675 47.0205 124.719 46.9983 124.75 46.9633C124.782 46.9283 124.8 46.883 124.8 46.8358C124.801 46.7886 124.784 46.7429 124.753 46.7072C124.722 46.6714 124.68 46.6482 124.633 46.6418ZM123.107 46.6193L123.146 45.7943C123.323 45.7996 123.614 45.8161 123.74 45.8228C123.74 45.9646 123.74 46.4978 123.734 46.6268C123.659 46.6261 123.3 46.6238 123.107 46.6193Z" fill="#2A2928"/>
<path d="M126.92 44.0317C126.823 44.0031 126.721 43.995 126.62 44.0079C126.519 44.0208 126.422 44.0545 126.335 44.1067C125.778 44.4262 125.777 45.1282 125.761 45.8137C125.652 45.8003 125.541 45.8113 125.437 45.846C125.403 45.8529 125.372 45.8713 125.351 45.8981C125.329 45.9248 125.317 45.9584 125.317 45.993C125.317 46.0276 125.329 46.0611 125.351 46.0879C125.372 46.1147 125.403 46.1331 125.437 46.14C125.535 46.1819 125.641 46.2009 125.748 46.1955C125.706 46.7353 125.73 47.2783 125.819 47.8125C125.881 47.9422 126.044 47.8815 126.09 47.7765C126.145 47.2556 126.164 46.7317 126.146 46.2082C126.353 46.2082 126.509 46.2247 126.608 46.1167C126.636 46.0869 126.652 46.0475 126.652 46.0065C126.652 45.9655 126.636 45.926 126.608 45.8962C126.564 45.8607 126.513 45.8349 126.458 45.8204C126.403 45.806 126.346 45.8032 126.29 45.8122H126.161C126.13 45.4103 126.194 45.0068 126.347 44.634C126.396 44.5521 126.466 44.4857 126.551 44.4428C126.636 44.3999 126.731 44.3822 126.826 44.3917C127.181 44.4495 127.154 44.1112 126.92 44.0317Z" fill="#2A2928"/>
<path d="M128.752 44.031C128.654 44.0026 128.552 43.9945 128.451 44.0075C128.35 44.0204 128.253 44.0539 128.166 44.106C127.609 44.4255 127.608 45.1275 127.592 45.813C127.483 45.7996 127.372 45.8106 127.268 45.8452C127.234 45.8521 127.203 45.8705 127.181 45.8973C127.159 45.9241 127.147 45.9576 127.147 45.9922C127.147 46.0268 127.159 46.0603 127.181 46.0871C127.203 46.1139 127.234 46.1323 127.268 46.1392C127.366 46.1812 127.473 46.2002 127.58 46.1947C127.537 46.7345 127.56 47.2776 127.649 47.8117C127.712 47.9415 127.874 47.8807 127.922 47.7757C127.976 47.2546 127.994 46.7304 127.977 46.2067C128.185 46.2067 128.341 46.224 128.439 46.116C128.467 46.0862 128.483 46.0467 128.483 46.0057C128.483 45.9647 128.467 45.9253 128.439 45.8955C128.395 45.86 128.344 45.8342 128.289 45.8197C128.235 45.8052 128.178 45.8024 128.122 45.8115H127.992C127.962 45.4096 128.025 45.0061 128.178 44.6332C128.226 44.5514 128.297 44.4851 128.382 44.4422C128.467 44.3992 128.562 44.3815 128.657 44.391C129.012 44.4495 128.985 44.1112 128.752 44.031Z" fill="#2A2928"/>
<path d="M130.283 44.031C130.186 44.0026 130.083 43.9945 129.983 44.0075C129.882 44.0204 129.785 44.0539 129.698 44.106C129.14 44.4255 129.14 45.1275 129.123 45.813C129.014 45.7996 128.904 45.8106 128.8 45.8452C128.766 45.8521 128.735 45.8705 128.714 45.8973C128.692 45.9241 128.68 45.9576 128.68 45.9922C128.68 46.0268 128.692 46.0603 128.714 46.0871C128.735 46.1139 128.766 46.1323 128.8 46.1392C128.898 46.1813 129.004 46.2003 129.111 46.1947C129.069 46.7346 129.092 47.2776 129.182 47.8117C129.243 47.9415 129.41 47.8807 129.453 47.7757C129.507 47.2546 129.526 46.7304 129.509 46.2067C129.716 46.2067 129.872 46.224 129.971 46.116C129.999 46.0863 130.015 46.0468 130.015 46.0057C130.015 45.9646 129.999 45.9251 129.971 45.8955C129.927 45.8599 129.876 45.8341 129.821 45.8196C129.766 45.8051 129.709 45.8024 129.653 45.8115H129.525C129.495 45.4095 129.559 45.0061 129.712 44.6332C129.76 44.5513 129.83 44.485 129.915 44.442C130 44.3991 130.095 44.3813 130.19 44.391C130.544 44.4495 130.517 44.1112 130.283 44.031Z" fill="#2A2928"/>
<path d="M131.942 44.0317C131.845 44.0031 131.743 43.995 131.642 44.0079C131.541 44.0208 131.444 44.0545 131.357 44.1067C130.8 44.4262 130.799 45.1282 130.783 45.8137C130.674 45.8003 130.563 45.8113 130.459 45.846C130.425 45.8529 130.394 45.8713 130.372 45.8981C130.351 45.9248 130.339 45.9584 130.339 45.993C130.339 46.0276 130.351 46.0611 130.372 46.0879C130.394 46.1147 130.425 46.1331 130.459 46.14C130.557 46.1819 130.663 46.2009 130.77 46.1955C130.728 46.7353 130.752 47.2783 130.841 47.8125C130.903 47.9422 131.066 47.8815 131.113 47.7765C131.167 47.2556 131.186 46.7316 131.168 46.2082C131.375 46.2082 131.531 46.2247 131.63 46.1167C131.658 46.0869 131.674 46.0475 131.674 46.0065C131.674 45.9655 131.658 45.926 131.63 45.8962C131.586 45.8607 131.535 45.8349 131.48 45.8204C131.425 45.806 131.368 45.8032 131.312 45.8122H131.183C131.152 45.4103 131.216 45.0068 131.369 44.634C131.418 44.5521 131.488 44.4857 131.573 44.4428C131.658 44.3999 131.753 44.3822 131.848 44.3917C132.203 44.4495 132.176 44.1112 131.942 44.0317Z" fill="#2A2928"/>
<path d="M133.777 44.031C133.679 44.0026 133.577 43.9945 133.476 44.0075C133.376 44.0204 133.279 44.0539 133.192 44.106C132.634 44.4255 132.634 45.1275 132.617 45.813C132.508 45.7996 132.398 45.8106 132.293 45.8452C132.259 45.8521 132.229 45.8705 132.207 45.8973C132.185 45.9241 132.173 45.9576 132.173 45.9922C132.173 46.0268 132.185 46.0604 132.207 46.0872C132.229 46.114 132.259 46.1324 132.293 46.1392C132.391 46.1812 132.498 46.2002 132.604 46.1947C132.562 46.7346 132.586 47.2776 132.675 47.8117C132.737 47.9415 132.904 47.8807 132.946 47.7757C133.001 47.2547 133.02 46.7304 133.003 46.2067C133.21 46.2067 133.366 46.224 133.465 46.116C133.493 46.0862 133.509 46.0467 133.509 46.0057C133.509 45.9647 133.493 45.9253 133.465 45.8955C133.421 45.86 133.369 45.8342 133.315 45.8197C133.26 45.8052 133.203 45.8024 133.147 45.8115H133.018C132.987 45.4096 133.051 45.0061 133.204 44.6332C133.252 44.5514 133.323 44.485 133.408 44.4421C133.492 44.3991 133.588 44.3814 133.682 44.391C134.038 44.4495 134.011 44.1112 133.777 44.031Z" fill="#2A2928"/>
<path d="M135.308 44.031C135.21 44.0026 135.108 43.9945 135.007 44.0075C134.907 44.0204 134.81 44.0539 134.723 44.106C134.165 44.4255 134.165 45.1275 134.147 45.813C134.038 45.7996 133.928 45.8106 133.824 45.8452C133.79 45.8521 133.76 45.8705 133.738 45.8973C133.716 45.9241 133.704 45.9576 133.704 45.9922C133.704 46.0268 133.716 46.0604 133.738 46.0872C133.76 46.114 133.79 46.1324 133.824 46.1392C133.922 46.1813 134.029 46.2003 134.135 46.1947C134.093 46.7346 134.117 47.2776 134.206 47.8117C134.267 47.9415 134.434 47.8807 134.477 47.7757C134.531 47.2546 134.55 46.7304 134.533 46.2067C134.741 46.2067 134.897 46.224 134.996 46.116C135.024 46.0862 135.039 46.0467 135.039 46.0057C135.039 45.9647 135.024 45.9253 134.996 45.8955C134.951 45.86 134.9 45.8342 134.845 45.8197C134.791 45.8052 134.733 45.8024 134.678 45.8115H134.55C134.52 45.4096 134.584 45.0061 134.737 44.6332C134.785 44.5514 134.855 44.4851 134.94 44.4422C135.025 44.3992 135.12 44.3815 135.215 44.391C135.568 44.4495 135.541 44.1112 135.308 44.031Z" fill="#2A2928"/>
<path d="M33.9562 124.822C33.7905 124.822 29.4097 124.794 29.376 124.795C29.3927 124.936 29.3994 125.077 29.3962 125.218C29.424 126.254 29.4757 126.6 29.4712 126.697H34.6635C34.5165 126.225 34.116 125.356 33.9562 124.822Z" fill="#2A2928"/>
<path d="M23.1751 124.841C21.6976 124.874 19.2368 124.9 18.1223 125.606C17.7293 125.852 17.6971 126.052 18.3001 126.267C19.6485 126.576 21.0309 126.713 22.4138 126.674C22.4093 126.545 23.0033 125.255 23.1751 124.841Z" fill="#2A2928"/>
<path d="M29.025 124.8C28.9417 124.8 24.3157 124.812 23.589 124.836C23.5395 124.991 22.8607 126.659 22.8442 126.689C25.5045 126.753 28.9942 126.695 29.0692 126.695C29.0647 126.616 28.9822 125.084 29.025 124.8Z" fill="#2A2928"/>
<path d="M44.8499 125.094C43.6591 123.356 42.365 121.692 40.9746 120.11C40.2975 119.216 39.3367 118.579 38.2499 118.304C38.1336 118.25 38.2664 118.28 35.9721 118.264L30.6329 118.231C31.0652 117.977 31.4199 117.61 31.6589 117.17C31.7337 116.999 31.7601 116.811 31.7351 116.627C31.7101 116.442 31.6347 116.268 31.5171 116.124C30.9441 115.458 28.9011 115.287 28.2126 115.005C28.0847 114.96 27.978 114.87 27.9135 114.75C27.849 114.631 27.8313 114.492 27.8639 114.361C27.9681 113.768 28.5569 113.408 29.0526 113.161C31.353 112.15 33.7767 111.448 36.2609 111.071C37.1789 110.958 38.0866 110.772 38.9751 110.516C39.0132 110.504 39.0458 110.479 39.0673 110.445C39.0887 110.412 39.0976 110.372 39.0923 110.333C39.0869 110.293 39.0678 110.257 39.0383 110.23C39.0087 110.204 38.9707 110.188 38.9309 110.187C35.6264 110.394 32.3776 111.138 29.3121 112.39C28.6808 112.61 28.1118 112.978 27.6531 113.465C27.5264 113.592 27.4266 113.744 27.3598 113.91C27.293 114.077 27.2605 114.256 27.2643 114.435C27.2681 114.615 27.308 114.792 27.3818 114.956C27.4556 115.12 27.5616 115.267 27.6936 115.389C28.5119 115.989 31.9379 115.943 31.0169 117.136C30.5848 117.563 30.0978 117.931 29.5686 118.229C23.2281 118.201 21.2031 118.175 19.9034 118.403C19.8435 118.413 19.7897 118.446 19.7534 118.495C19.103 118.725 18.5133 119.1 18.0284 119.591C16.613 121.094 15.3069 122.696 14.1201 124.385C13.4768 125.146 12.9861 126.024 12.6749 126.971C12.544 127.451 12.5745 127.96 12.7619 128.42C12.8716 128.632 13.0338 128.812 13.233 128.944C13.4321 129.075 13.6617 129.153 13.8996 129.17C14.9997 129.325 16.109 129.405 17.2199 129.41C19.2096 129.473 43.5726 130.068 45.2609 129.001C45.4539 128.864 45.6115 128.683 45.7204 128.473C45.8293 128.262 45.8865 128.029 45.8871 127.793C45.8488 126.803 45.4841 125.854 44.8499 125.094ZM40.5591 126.012C40.3859 127.031 37.7579 127.052 36.5091 127.103C34.4226 127.187 24.0816 127.239 20.7794 127.073C19.941 127.073 19.106 126.966 18.2946 126.755C17.2071 126.414 17.0106 125.664 18.0194 125.121C19.1399 124.654 20.3431 124.417 21.5571 124.424C22.6116 124.369 25.5914 124.318 26.9631 124.34C32.5071 124.426 37.3454 124.12 39.4446 124.913C39.8834 125.079 40.6619 125.417 40.5599 126.012H40.5591Z" fill="#2A2928"/>
<path d="M40.098 125.887C39.9802 125.623 39.5287 125.449 39.441 125.412C38.1772 124.874 35.868 124.86 34.3027 124.828C34.6173 125.425 34.8832 126.045 35.0977 126.684C35.6479 126.672 36.1979 126.654 36.7477 126.63C37.455 126.598 39.3232 126.559 39.9547 126.105C40.0245 126.054 40.125 125.971 40.098 125.887Z" fill="#2A2928"/>
<path d="M139.961 60.4177C139.958 60.3689 139.94 60.3222 139.909 60.2842C139.893 60.2452 139.864 60.2121 139.829 60.1894C139.793 60.1666 139.751 60.1552 139.708 60.1567C138.524 60.1297 129.56 60.2265 128.813 60.2317C128.775 60.438 128.738 60.6442 128.695 60.8505C128.92 60.8467 139.462 60.6307 139.495 60.6255C139.474 61.1992 139.786 87.8257 139.786 87.9015C139.758 87.9015 112.606 88.2015 112.61 88.17C112.706 87.4897 112.67 85.0777 112.669 85.002C112.669 84.3037 112.336 61.0215 112.326 60.945C114.931 61.02 123.138 60.9217 123.215 60.9202L123.311 60.2932C123.04 60.2932 112.661 60.4312 112.267 60.4372C112.244 60.3912 112.207 60.3541 112.161 60.3321C112.115 60.3101 112.062 60.3045 112.013 60.3162C111.963 60.3279 111.919 60.3563 111.887 60.3965C111.855 60.4368 111.839 60.4866 111.839 60.5377C111.811 61.7497 112.126 88.1512 112.126 88.1512C112.121 88.2442 112.216 88.6687 112.446 88.686C114.577 88.848 139.996 88.3777 140.08 88.3725C140.118 88.3697 140.156 88.3575 140.189 88.3368C140.222 88.3161 140.249 88.2877 140.268 88.254C140.288 88.2203 140.299 88.1823 140.3 88.1435C140.301 88.1046 140.293 88.0661 140.275 88.0312C140.447 87.1575 139.966 60.4942 139.961 60.4177Z" fill="#2A2928"/>
<path d="M136.429 63.7875L136.411 63.6892C136.075 63.699 132.313 63.7455 128.095 63.7912C127.953 64.4487 127.807 65.104 127.655 65.757C127.611 65.9418 127.519 66.1119 127.389 66.2505C127.259 66.3891 127.095 66.4915 126.914 66.5476C126.732 66.6036 126.539 66.6115 126.353 66.5703C126.168 66.5291 125.996 66.4403 125.855 66.3127C125.719 66.4444 125.551 66.5387 125.368 66.5866C125.184 66.6344 124.992 66.634 124.809 66.5856C124.625 66.5372 124.458 66.4423 124.322 66.3102C124.186 66.178 124.087 66.013 124.033 65.8312L123.999 65.7112C123.823 65.7504 123.639 65.7457 123.465 65.6976C123.291 65.6494 123.132 65.5592 123.001 65.4349C122.87 65.3106 122.771 65.1561 122.714 64.9848C122.657 64.8135 122.642 64.6308 122.672 64.4527L122.766 63.8445C119.141 63.8782 116.137 63.8992 115.84 63.8782C115.824 63.8032 116.14 80.4262 116.065 81.243L116.124 81.3337C116.887 81.3862 135.499 81.171 136.66 81.1447C136.714 80.2762 136.456 64.4377 136.429 63.7875Z" fill="#115711"/>
<path d="M70.4904 65.4C70.469 65.3248 70.4238 65.2586 70.3616 65.2113C70.2994 65.164 70.2235 65.1381 70.1454 65.1375C69.071 65.139 68.0006 65.2674 66.9564 65.52C66.8802 65.5443 66.8133 65.5914 66.7649 65.655C66.7165 65.7186 66.6888 65.7956 66.6856 65.8755C66.6699 66.0465 66.6496 66.216 66.6256 66.3855C66.1291 65.3692 65.7965 64.2808 65.6401 63.1605C65.5019 61.2182 65.628 59.2661 66.0151 57.3578C66.5803 57.4612 67.1634 57.339 67.6395 57.0173C68.1155 56.6957 68.4465 56.2002 68.5614 55.6373C68.8726 54.303 68.1864 52.467 66.9676 51.9675C66.6405 51.8121 66.2663 51.7877 65.9218 51.8993C65.5772 52.0108 65.2884 52.2499 65.1144 52.5675C65.1003 52.6194 65.1037 52.6745 65.1241 52.7243C65.1445 52.774 65.1808 52.8157 65.2272 52.8428C65.2737 52.8698 65.3278 52.8808 65.3812 52.8741C65.4345 52.8673 65.4841 52.8431 65.5224 52.8053C67.5001 51.2138 69.2296 56.25 66.6369 56.6813C66.3873 56.733 66.1275 56.6885 65.9094 56.5568C65.8618 56.5301 65.8088 56.5145 65.7543 56.5112C65.6999 56.5079 65.6454 56.5169 65.5949 56.5376C65.5444 56.5583 65.4993 56.5901 65.4628 56.6307C65.4264 56.6713 65.3995 56.7196 65.3844 56.772C64.8714 59.8425 64.3831 63.0015 65.5944 65.8943C65.8169 66.4072 66.1045 66.8894 66.4501 67.329C66.0128 69.3636 65.0086 71.2329 63.5536 72.7208C62.6988 73.4788 61.6044 73.9115 60.4624 73.943C59.3203 73.9746 58.2037 73.6029 57.3084 72.8933C55.9625 71.7017 54.8525 70.2678 54.0361 68.6663C54.5682 67.5772 54.8139 66.3704 54.7501 65.16C54.7321 64.8908 54.6984 64.6763 54.6901 64.599C56.7961 64.6711 58.8466 63.9153 60.4021 62.4938C61.4541 61.6554 62.3643 60.653 63.0976 59.5253C63.1298 59.4663 63.14 59.3978 63.1264 59.332C63.1127 59.2662 63.0762 59.2073 63.0232 59.166C62.9702 59.1247 62.9043 59.1035 62.8372 59.1062C62.77 59.109 62.706 59.1355 62.6566 59.181C61.6396 60.057 60.3879 61.9748 58.0389 63.1433C57.2145 63.5928 56.2928 63.8339 55.3539 63.8455C54.415 63.8572 53.4876 63.639 52.6524 63.21C49.5774 61.386 49.1274 55.5518 49.1836 52.0058C49.2264 49.0808 49.6194 46.0995 49.7409 44.5748C49.7467 44.4243 49.7384 44.2737 49.7161 44.1248C49.7143 44.0704 49.6933 44.0184 49.6568 43.978C49.6203 43.9376 49.5707 43.9115 49.5168 43.9042C49.4629 43.8969 49.4081 43.9089 49.3622 43.9382C49.3163 43.9675 49.2823 44.012 49.2661 44.064C49.1562 44.342 49.0909 44.6356 49.0726 44.934C49.0044 45.3908 48.9399 45.684 48.7449 47.6828C48.1516 53.7285 48.0699 63.4568 54.0489 64.5173C54.1034 65.0411 54.0984 65.5695 54.0339 66.0923C53.9782 66.6215 53.8492 67.1405 53.6506 67.6343C53.4571 66.8768 53.5966 66.5925 53.1924 66.522C52.9039 66.492 52.6136 66.4829 52.3239 66.495C52.0516 66.4898 50.3739 66.4485 49.8061 66.4358C49.7043 66.4377 49.6073 66.479 49.5354 66.5511C49.4635 66.6231 49.4223 66.7202 49.4206 66.822C49.078 72.6726 47.8529 78.4377 45.7869 83.922C46.5526 83.9288 77.0979 83.9303 78.2716 83.9168C74.8209 77.7338 71.9724 71.925 70.4904 65.4Z" fill="#2A2928"/>
<path d="M13.5472 68.8875C13.7149 68.6463 13.9628 68.4724 14.2466 68.3969C14.5305 68.3214 14.832 68.349 15.0974 68.475C16.0929 68.902 17.1642 69.1241 18.2474 69.1282C18.4117 68.9392 18.2354 69.144 17.4914 65.0587C17.4733 64.9985 17.4326 64.9475 17.3778 64.9165C17.323 64.8855 17.2584 64.8768 17.1974 64.8922C15.8894 65.1112 14.5837 65.3505 13.2787 65.5905C13.2283 65.6035 13.1834 65.6324 13.1507 65.6729C13.118 65.7135 13.0992 65.7634 13.0972 65.8155C13.1638 66.85 13.3143 67.8773 13.5472 68.8875Z" fill="#115711"/>
<path d="M18.4283 75.8663C18.3329 75.7286 18.2462 75.585 18.1688 75.4365C16.9622 75.6708 15.7416 75.8264 14.5148 75.9023C14.4975 76.1133 14.4995 76.3254 14.5208 76.536C15.846 76.4755 17.1585 76.2505 18.4283 75.8663Z" fill="#2A2928"/>
<path d="M13.2652 72.0997C11.6865 64.068 10.3807 58.4085 9.63071 53.5327C11.6332 53.1142 13.6327 52.6777 15.6352 52.2577C17.2102 59.1345 18.6487 67.416 18.9892 68.5177C19.047 68.703 19.1287 68.8995 19.1797 69.0907C19.2982 69.084 19.4167 69.0772 19.5375 69.0727C19.4962 68.7727 19.5615 68.7667 19.4452 67.83C19.3215 66.849 16.3342 52.455 16.182 51.8002C16.159 51.7191 16.1052 51.6501 16.032 51.6081C15.9589 51.566 15.8722 51.5542 15.7905 51.5752C13.5892 52.0335 11.3917 52.5165 9.19047 52.9762C9.10982 53.0001 9.04144 53.054 8.99954 53.1269C8.95764 53.1998 8.94544 53.2861 8.96547 53.3677C9.47172 56.958 10.6417 62.2927 12.816 73.0725C12.9335 72.7343 13.084 72.4085 13.2652 72.0997Z" fill="#2A2928"/>
<path d="M52.0816 46.479C50.7237 45.3127 49.6032 43.8956 48.7816 42.3053C48.7545 42.2619 48.7127 42.2295 48.6639 42.2141C48.615 42.1987 48.5623 42.2012 48.5151 42.2211C48.468 42.2411 48.4295 42.2772 48.4065 42.323C48.3836 42.3689 48.3778 42.4213 48.3901 42.471C49.3753 45.0641 51.2967 47.1937 53.7751 48.4395C54.0593 48.5895 54.4561 48.7891 54.7733 48.6308C54.8043 48.6123 54.8284 48.5842 54.8419 48.5508C54.8554 48.5173 54.8577 48.4804 54.8483 48.4456C54.6886 47.9018 53.7488 47.874 52.0816 46.479Z" fill="#115711"/>
</svg>
